%
M48
M72
T01C0.02000
T02C0.02756
T03C0.03150
T04C0.03200
T05C0.04000
T06C0.11024
%
T01
X35125Y63600
X42925Y111000
X70525Y125400
X81810Y168357
X80873Y179231
X213925Y207600
X107725Y50400
T02
X177053Y29556
X177053Y19556
T03
X220911Y39220
X230911Y39220
X240911Y39220
X250911Y39220
T04
X204887Y50265
X204887Y60265
X204887Y70265
X204887Y80265
X174887Y80265
X164848Y80225
X154848Y80225
X154651Y64517
X164651Y64517
X174887Y60265
X174887Y70265
X174887Y50265
X164454Y49674
X154454Y49674
X140596Y44713
X140596Y34713
X140596Y24713
X124218Y28690
X111816Y28729
X98470Y28729
X85438Y28847
X73430Y29162
X60832Y29359
X45911Y25501
X45911Y35501
X45911Y45501
X45911Y55501
X45911Y65501
X56934Y69398
X60832Y59359
X73430Y59162
X85438Y58847
X86934Y69398
X97564Y69398
X98470Y58729
X111816Y58729
X124218Y58690
X127564Y69398
X140596Y64713
X140596Y54713
X24375Y51682
X24375Y41682
X24218Y67863
X24218Y77863
X152879Y186839
X162879Y186839
X172879Y186839
X182879Y186839
X192879Y186839
T05
X190281Y203375
X180281Y203375
X170281Y203375
X160281Y203375
X150281Y203375
X140281Y203375
X130281Y203375
X120281Y203375
X110281Y203375
X100281Y203375
X90281Y203375
X80281Y203375
X70281Y203375
X60281Y203375
X50281Y203375
X40281Y203375
X40281Y213375
X50281Y213375
X60281Y213375
X70281Y213375
X80281Y213375
X90281Y213375
X100281Y213375
X110281Y213375
X120281Y213375
X130281Y213375
X140281Y213375
X150281Y213375
X160281Y213375
X170281Y213375
X180281Y213375
X190281Y213375
X200281Y213375
X210281Y213375
X220281Y213375
X230281Y213375
X230281Y203375
X220281Y203375
X210281Y203375
X200281Y203375
T06
X23273Y17548
X251619Y17548
M30
