G75*
%MOIN*%
%OFA0B0*%
%FSLAX25Y25*%
%IPPOS*%
%LPD*%
%AMOC8*
5,1,8,0,0,1.08239X$1,22.5*
%
%ADD10C,0.01600*%
%ADD11C,0.00000*%
%ADD12R,0.11811X0.03937*%
%ADD13C,0.05000*%
%ADD14OC8,0.06000*%
%ADD15R,0.04000X0.08858*%
%ADD16R,0.08858X0.04000*%
%ADD17OC8,0.06600*%
%ADD18OC8,0.05200*%
%ADD19R,0.08600X0.08600*%
%ADD20OC8,0.06800*%
%ADD21C,0.04756*%
%ADD22C,0.05200*%
%ADD23C,0.00600*%
%ADD24C,0.03600*%
D10*
X0007525Y0012936D02*
X0007525Y0213105D01*
X0007528Y0213374D01*
X0007538Y0213643D01*
X0007554Y0213912D01*
X0007577Y0214180D01*
X0007606Y0214447D01*
X0007642Y0214714D01*
X0007684Y0214980D01*
X0007732Y0215245D01*
X0007787Y0215508D01*
X0007849Y0215770D01*
X0007916Y0216031D01*
X0007990Y0216289D01*
X0008070Y0216546D01*
X0008156Y0216801D01*
X0008249Y0217054D01*
X0008347Y0217304D01*
X0008452Y0217552D01*
X0008562Y0217798D01*
X0008678Y0218040D01*
X0008801Y0218280D01*
X0008928Y0218517D01*
X0009062Y0218751D01*
X0009201Y0218981D01*
X0009346Y0219208D01*
X0009496Y0219431D01*
X0009652Y0219651D01*
X0009813Y0219866D01*
X0009979Y0220078D01*
X0010150Y0220286D01*
X0010326Y0220490D01*
X0010506Y0220689D01*
X0010692Y0220884D01*
X0010882Y0221074D01*
X0011077Y0221260D01*
X0011276Y0221440D01*
X0011480Y0221616D01*
X0011688Y0221787D01*
X0011900Y0221953D01*
X0012115Y0222114D01*
X0012335Y0222270D01*
X0012558Y0222420D01*
X0012785Y0222565D01*
X0013015Y0222704D01*
X0013249Y0222838D01*
X0013486Y0222965D01*
X0013726Y0223088D01*
X0013968Y0223204D01*
X0014214Y0223314D01*
X0014462Y0223419D01*
X0014712Y0223517D01*
X0014965Y0223610D01*
X0015220Y0223696D01*
X0015477Y0223776D01*
X0015735Y0223850D01*
X0015996Y0223917D01*
X0016258Y0223979D01*
X0016521Y0224034D01*
X0016786Y0224082D01*
X0017052Y0224124D01*
X0017319Y0224160D01*
X0017586Y0224189D01*
X0017854Y0224212D01*
X0018123Y0224228D01*
X0018392Y0224238D01*
X0018661Y0224241D01*
X0252295Y0224241D01*
X0252564Y0224238D01*
X0252833Y0224228D01*
X0253102Y0224212D01*
X0253370Y0224189D01*
X0253637Y0224160D01*
X0253904Y0224124D01*
X0254170Y0224082D01*
X0254435Y0224034D01*
X0254698Y0223979D01*
X0254960Y0223917D01*
X0255221Y0223850D01*
X0255479Y0223776D01*
X0255736Y0223696D01*
X0255991Y0223610D01*
X0256244Y0223517D01*
X0256494Y0223419D01*
X0256742Y0223314D01*
X0256988Y0223204D01*
X0257230Y0223088D01*
X0257470Y0222965D01*
X0257707Y0222838D01*
X0257941Y0222704D01*
X0258171Y0222565D01*
X0258398Y0222420D01*
X0258621Y0222270D01*
X0258841Y0222114D01*
X0259056Y0221953D01*
X0259268Y0221787D01*
X0259476Y0221616D01*
X0259680Y0221440D01*
X0259879Y0221260D01*
X0260074Y0221074D01*
X0260264Y0220884D01*
X0260450Y0220689D01*
X0260630Y0220490D01*
X0260806Y0220286D01*
X0260977Y0220078D01*
X0261143Y0219866D01*
X0261304Y0219651D01*
X0261460Y0219431D01*
X0261610Y0219208D01*
X0261755Y0218981D01*
X0261894Y0218751D01*
X0262028Y0218517D01*
X0262155Y0218280D01*
X0262278Y0218040D01*
X0262394Y0217798D01*
X0262504Y0217552D01*
X0262609Y0217304D01*
X0262707Y0217054D01*
X0262800Y0216801D01*
X0262886Y0216546D01*
X0262966Y0216289D01*
X0263040Y0216031D01*
X0263107Y0215770D01*
X0263169Y0215508D01*
X0263224Y0215245D01*
X0263272Y0214980D01*
X0263314Y0214714D01*
X0263350Y0214447D01*
X0263379Y0214180D01*
X0263402Y0213912D01*
X0263418Y0213643D01*
X0263428Y0213374D01*
X0263431Y0213105D01*
X0263430Y0213105D02*
X0263430Y0012936D01*
X0263431Y0012936D02*
X0263428Y0012667D01*
X0263418Y0012398D01*
X0263402Y0012129D01*
X0263379Y0011861D01*
X0263350Y0011594D01*
X0263314Y0011327D01*
X0263272Y0011061D01*
X0263224Y0010796D01*
X0263169Y0010533D01*
X0263107Y0010271D01*
X0263040Y0010010D01*
X0262966Y0009752D01*
X0262886Y0009495D01*
X0262800Y0009240D01*
X0262707Y0008987D01*
X0262609Y0008737D01*
X0262504Y0008489D01*
X0262394Y0008243D01*
X0262278Y0008001D01*
X0262155Y0007761D01*
X0262028Y0007524D01*
X0261894Y0007290D01*
X0261755Y0007060D01*
X0261610Y0006833D01*
X0261460Y0006610D01*
X0261304Y0006390D01*
X0261143Y0006175D01*
X0260977Y0005963D01*
X0260806Y0005755D01*
X0260630Y0005551D01*
X0260450Y0005352D01*
X0260264Y0005157D01*
X0260074Y0004967D01*
X0259879Y0004781D01*
X0259680Y0004601D01*
X0259476Y0004425D01*
X0259268Y0004254D01*
X0259056Y0004088D01*
X0258841Y0003927D01*
X0258621Y0003771D01*
X0258398Y0003621D01*
X0258171Y0003476D01*
X0257941Y0003337D01*
X0257707Y0003203D01*
X0257470Y0003076D01*
X0257230Y0002953D01*
X0256988Y0002837D01*
X0256742Y0002727D01*
X0256494Y0002622D01*
X0256244Y0002524D01*
X0255991Y0002431D01*
X0255736Y0002345D01*
X0255479Y0002265D01*
X0255221Y0002191D01*
X0254960Y0002124D01*
X0254698Y0002062D01*
X0254435Y0002007D01*
X0254170Y0001959D01*
X0253904Y0001917D01*
X0253637Y0001881D01*
X0253370Y0001852D01*
X0253102Y0001829D01*
X0252833Y0001813D01*
X0252564Y0001803D01*
X0252295Y0001800D01*
X0018661Y0001800D01*
X0018392Y0001803D01*
X0018123Y0001813D01*
X0017854Y0001829D01*
X0017586Y0001852D01*
X0017319Y0001881D01*
X0017052Y0001917D01*
X0016786Y0001959D01*
X0016521Y0002007D01*
X0016258Y0002062D01*
X0015996Y0002124D01*
X0015735Y0002191D01*
X0015477Y0002265D01*
X0015220Y0002345D01*
X0014965Y0002431D01*
X0014712Y0002524D01*
X0014462Y0002622D01*
X0014214Y0002727D01*
X0013968Y0002837D01*
X0013726Y0002953D01*
X0013486Y0003076D01*
X0013249Y0003203D01*
X0013015Y0003337D01*
X0012785Y0003476D01*
X0012558Y0003621D01*
X0012335Y0003771D01*
X0012115Y0003927D01*
X0011900Y0004088D01*
X0011688Y0004254D01*
X0011480Y0004425D01*
X0011276Y0004601D01*
X0011077Y0004781D01*
X0010882Y0004967D01*
X0010692Y0005157D01*
X0010506Y0005352D01*
X0010326Y0005551D01*
X0010150Y0005755D01*
X0009979Y0005963D01*
X0009813Y0006175D01*
X0009652Y0006390D01*
X0009496Y0006610D01*
X0009346Y0006833D01*
X0009201Y0007060D01*
X0009062Y0007290D01*
X0008928Y0007524D01*
X0008801Y0007761D01*
X0008678Y0008001D01*
X0008562Y0008243D01*
X0008452Y0008489D01*
X0008347Y0008737D01*
X0008249Y0008987D01*
X0008156Y0009240D01*
X0008070Y0009495D01*
X0007990Y0009752D01*
X0007916Y0010010D01*
X0007849Y0010271D01*
X0007787Y0010533D01*
X0007732Y0010796D01*
X0007684Y0011061D01*
X0007642Y0011327D01*
X0007606Y0011594D01*
X0007577Y0011861D01*
X0007554Y0012129D01*
X0007538Y0012398D01*
X0007528Y0012667D01*
X0007525Y0012936D01*
X0019336Y0151406D02*
X0019336Y0157312D01*
X0035084Y0157312D01*
D11*
X0017761Y0017548D02*
X0017763Y0017696D01*
X0017769Y0017844D01*
X0017779Y0017992D01*
X0017793Y0018139D01*
X0017811Y0018286D01*
X0017832Y0018432D01*
X0017858Y0018578D01*
X0017888Y0018723D01*
X0017921Y0018867D01*
X0017959Y0019010D01*
X0018000Y0019152D01*
X0018045Y0019293D01*
X0018093Y0019433D01*
X0018146Y0019572D01*
X0018202Y0019709D01*
X0018262Y0019844D01*
X0018325Y0019978D01*
X0018392Y0020110D01*
X0018463Y0020240D01*
X0018537Y0020368D01*
X0018614Y0020494D01*
X0018695Y0020618D01*
X0018779Y0020740D01*
X0018866Y0020859D01*
X0018957Y0020976D01*
X0019051Y0021091D01*
X0019147Y0021203D01*
X0019247Y0021313D01*
X0019349Y0021419D01*
X0019455Y0021523D01*
X0019563Y0021624D01*
X0019674Y0021722D01*
X0019787Y0021818D01*
X0019903Y0021910D01*
X0020021Y0021999D01*
X0020142Y0022084D01*
X0020265Y0022167D01*
X0020390Y0022246D01*
X0020517Y0022322D01*
X0020646Y0022394D01*
X0020777Y0022463D01*
X0020910Y0022528D01*
X0021045Y0022589D01*
X0021181Y0022647D01*
X0021318Y0022702D01*
X0021457Y0022752D01*
X0021598Y0022799D01*
X0021739Y0022842D01*
X0021882Y0022882D01*
X0022026Y0022917D01*
X0022170Y0022949D01*
X0022316Y0022976D01*
X0022462Y0023000D01*
X0022609Y0023020D01*
X0022756Y0023036D01*
X0022903Y0023048D01*
X0023051Y0023056D01*
X0023199Y0023060D01*
X0023347Y0023060D01*
X0023495Y0023056D01*
X0023643Y0023048D01*
X0023790Y0023036D01*
X0023937Y0023020D01*
X0024084Y0023000D01*
X0024230Y0022976D01*
X0024376Y0022949D01*
X0024520Y0022917D01*
X0024664Y0022882D01*
X0024807Y0022842D01*
X0024948Y0022799D01*
X0025089Y0022752D01*
X0025228Y0022702D01*
X0025365Y0022647D01*
X0025501Y0022589D01*
X0025636Y0022528D01*
X0025769Y0022463D01*
X0025900Y0022394D01*
X0026029Y0022322D01*
X0026156Y0022246D01*
X0026281Y0022167D01*
X0026404Y0022084D01*
X0026525Y0021999D01*
X0026643Y0021910D01*
X0026759Y0021818D01*
X0026872Y0021722D01*
X0026983Y0021624D01*
X0027091Y0021523D01*
X0027197Y0021419D01*
X0027299Y0021313D01*
X0027399Y0021203D01*
X0027495Y0021091D01*
X0027589Y0020976D01*
X0027680Y0020859D01*
X0027767Y0020740D01*
X0027851Y0020618D01*
X0027932Y0020494D01*
X0028009Y0020368D01*
X0028083Y0020240D01*
X0028154Y0020110D01*
X0028221Y0019978D01*
X0028284Y0019844D01*
X0028344Y0019709D01*
X0028400Y0019572D01*
X0028453Y0019433D01*
X0028501Y0019293D01*
X0028546Y0019152D01*
X0028587Y0019010D01*
X0028625Y0018867D01*
X0028658Y0018723D01*
X0028688Y0018578D01*
X0028714Y0018432D01*
X0028735Y0018286D01*
X0028753Y0018139D01*
X0028767Y0017992D01*
X0028777Y0017844D01*
X0028783Y0017696D01*
X0028785Y0017548D01*
X0028783Y0017400D01*
X0028777Y0017252D01*
X0028767Y0017104D01*
X0028753Y0016957D01*
X0028735Y0016810D01*
X0028714Y0016664D01*
X0028688Y0016518D01*
X0028658Y0016373D01*
X0028625Y0016229D01*
X0028587Y0016086D01*
X0028546Y0015944D01*
X0028501Y0015803D01*
X0028453Y0015663D01*
X0028400Y0015524D01*
X0028344Y0015387D01*
X0028284Y0015252D01*
X0028221Y0015118D01*
X0028154Y0014986D01*
X0028083Y0014856D01*
X0028009Y0014728D01*
X0027932Y0014602D01*
X0027851Y0014478D01*
X0027767Y0014356D01*
X0027680Y0014237D01*
X0027589Y0014120D01*
X0027495Y0014005D01*
X0027399Y0013893D01*
X0027299Y0013783D01*
X0027197Y0013677D01*
X0027091Y0013573D01*
X0026983Y0013472D01*
X0026872Y0013374D01*
X0026759Y0013278D01*
X0026643Y0013186D01*
X0026525Y0013097D01*
X0026404Y0013012D01*
X0026281Y0012929D01*
X0026156Y0012850D01*
X0026029Y0012774D01*
X0025900Y0012702D01*
X0025769Y0012633D01*
X0025636Y0012568D01*
X0025501Y0012507D01*
X0025365Y0012449D01*
X0025228Y0012394D01*
X0025089Y0012344D01*
X0024948Y0012297D01*
X0024807Y0012254D01*
X0024664Y0012214D01*
X0024520Y0012179D01*
X0024376Y0012147D01*
X0024230Y0012120D01*
X0024084Y0012096D01*
X0023937Y0012076D01*
X0023790Y0012060D01*
X0023643Y0012048D01*
X0023495Y0012040D01*
X0023347Y0012036D01*
X0023199Y0012036D01*
X0023051Y0012040D01*
X0022903Y0012048D01*
X0022756Y0012060D01*
X0022609Y0012076D01*
X0022462Y0012096D01*
X0022316Y0012120D01*
X0022170Y0012147D01*
X0022026Y0012179D01*
X0021882Y0012214D01*
X0021739Y0012254D01*
X0021598Y0012297D01*
X0021457Y0012344D01*
X0021318Y0012394D01*
X0021181Y0012449D01*
X0021045Y0012507D01*
X0020910Y0012568D01*
X0020777Y0012633D01*
X0020646Y0012702D01*
X0020517Y0012774D01*
X0020390Y0012850D01*
X0020265Y0012929D01*
X0020142Y0013012D01*
X0020021Y0013097D01*
X0019903Y0013186D01*
X0019787Y0013278D01*
X0019674Y0013374D01*
X0019563Y0013472D01*
X0019455Y0013573D01*
X0019349Y0013677D01*
X0019247Y0013783D01*
X0019147Y0013893D01*
X0019051Y0014005D01*
X0018957Y0014120D01*
X0018866Y0014237D01*
X0018779Y0014356D01*
X0018695Y0014478D01*
X0018614Y0014602D01*
X0018537Y0014728D01*
X0018463Y0014856D01*
X0018392Y0014986D01*
X0018325Y0015118D01*
X0018262Y0015252D01*
X0018202Y0015387D01*
X0018146Y0015524D01*
X0018093Y0015663D01*
X0018045Y0015803D01*
X0018000Y0015944D01*
X0017959Y0016086D01*
X0017921Y0016229D01*
X0017888Y0016373D01*
X0017858Y0016518D01*
X0017832Y0016664D01*
X0017811Y0016810D01*
X0017793Y0016957D01*
X0017779Y0017104D01*
X0017769Y0017252D01*
X0017763Y0017400D01*
X0017761Y0017548D01*
X0246107Y0017548D02*
X0246109Y0017696D01*
X0246115Y0017844D01*
X0246125Y0017992D01*
X0246139Y0018139D01*
X0246157Y0018286D01*
X0246178Y0018432D01*
X0246204Y0018578D01*
X0246234Y0018723D01*
X0246267Y0018867D01*
X0246305Y0019010D01*
X0246346Y0019152D01*
X0246391Y0019293D01*
X0246439Y0019433D01*
X0246492Y0019572D01*
X0246548Y0019709D01*
X0246608Y0019844D01*
X0246671Y0019978D01*
X0246738Y0020110D01*
X0246809Y0020240D01*
X0246883Y0020368D01*
X0246960Y0020494D01*
X0247041Y0020618D01*
X0247125Y0020740D01*
X0247212Y0020859D01*
X0247303Y0020976D01*
X0247397Y0021091D01*
X0247493Y0021203D01*
X0247593Y0021313D01*
X0247695Y0021419D01*
X0247801Y0021523D01*
X0247909Y0021624D01*
X0248020Y0021722D01*
X0248133Y0021818D01*
X0248249Y0021910D01*
X0248367Y0021999D01*
X0248488Y0022084D01*
X0248611Y0022167D01*
X0248736Y0022246D01*
X0248863Y0022322D01*
X0248992Y0022394D01*
X0249123Y0022463D01*
X0249256Y0022528D01*
X0249391Y0022589D01*
X0249527Y0022647D01*
X0249664Y0022702D01*
X0249803Y0022752D01*
X0249944Y0022799D01*
X0250085Y0022842D01*
X0250228Y0022882D01*
X0250372Y0022917D01*
X0250516Y0022949D01*
X0250662Y0022976D01*
X0250808Y0023000D01*
X0250955Y0023020D01*
X0251102Y0023036D01*
X0251249Y0023048D01*
X0251397Y0023056D01*
X0251545Y0023060D01*
X0251693Y0023060D01*
X0251841Y0023056D01*
X0251989Y0023048D01*
X0252136Y0023036D01*
X0252283Y0023020D01*
X0252430Y0023000D01*
X0252576Y0022976D01*
X0252722Y0022949D01*
X0252866Y0022917D01*
X0253010Y0022882D01*
X0253153Y0022842D01*
X0253294Y0022799D01*
X0253435Y0022752D01*
X0253574Y0022702D01*
X0253711Y0022647D01*
X0253847Y0022589D01*
X0253982Y0022528D01*
X0254115Y0022463D01*
X0254246Y0022394D01*
X0254375Y0022322D01*
X0254502Y0022246D01*
X0254627Y0022167D01*
X0254750Y0022084D01*
X0254871Y0021999D01*
X0254989Y0021910D01*
X0255105Y0021818D01*
X0255218Y0021722D01*
X0255329Y0021624D01*
X0255437Y0021523D01*
X0255543Y0021419D01*
X0255645Y0021313D01*
X0255745Y0021203D01*
X0255841Y0021091D01*
X0255935Y0020976D01*
X0256026Y0020859D01*
X0256113Y0020740D01*
X0256197Y0020618D01*
X0256278Y0020494D01*
X0256355Y0020368D01*
X0256429Y0020240D01*
X0256500Y0020110D01*
X0256567Y0019978D01*
X0256630Y0019844D01*
X0256690Y0019709D01*
X0256746Y0019572D01*
X0256799Y0019433D01*
X0256847Y0019293D01*
X0256892Y0019152D01*
X0256933Y0019010D01*
X0256971Y0018867D01*
X0257004Y0018723D01*
X0257034Y0018578D01*
X0257060Y0018432D01*
X0257081Y0018286D01*
X0257099Y0018139D01*
X0257113Y0017992D01*
X0257123Y0017844D01*
X0257129Y0017696D01*
X0257131Y0017548D01*
X0257129Y0017400D01*
X0257123Y0017252D01*
X0257113Y0017104D01*
X0257099Y0016957D01*
X0257081Y0016810D01*
X0257060Y0016664D01*
X0257034Y0016518D01*
X0257004Y0016373D01*
X0256971Y0016229D01*
X0256933Y0016086D01*
X0256892Y0015944D01*
X0256847Y0015803D01*
X0256799Y0015663D01*
X0256746Y0015524D01*
X0256690Y0015387D01*
X0256630Y0015252D01*
X0256567Y0015118D01*
X0256500Y0014986D01*
X0256429Y0014856D01*
X0256355Y0014728D01*
X0256278Y0014602D01*
X0256197Y0014478D01*
X0256113Y0014356D01*
X0256026Y0014237D01*
X0255935Y0014120D01*
X0255841Y0014005D01*
X0255745Y0013893D01*
X0255645Y0013783D01*
X0255543Y0013677D01*
X0255437Y0013573D01*
X0255329Y0013472D01*
X0255218Y0013374D01*
X0255105Y0013278D01*
X0254989Y0013186D01*
X0254871Y0013097D01*
X0254750Y0013012D01*
X0254627Y0012929D01*
X0254502Y0012850D01*
X0254375Y0012774D01*
X0254246Y0012702D01*
X0254115Y0012633D01*
X0253982Y0012568D01*
X0253847Y0012507D01*
X0253711Y0012449D01*
X0253574Y0012394D01*
X0253435Y0012344D01*
X0253294Y0012297D01*
X0253153Y0012254D01*
X0253010Y0012214D01*
X0252866Y0012179D01*
X0252722Y0012147D01*
X0252576Y0012120D01*
X0252430Y0012096D01*
X0252283Y0012076D01*
X0252136Y0012060D01*
X0251989Y0012048D01*
X0251841Y0012040D01*
X0251693Y0012036D01*
X0251545Y0012036D01*
X0251397Y0012040D01*
X0251249Y0012048D01*
X0251102Y0012060D01*
X0250955Y0012076D01*
X0250808Y0012096D01*
X0250662Y0012120D01*
X0250516Y0012147D01*
X0250372Y0012179D01*
X0250228Y0012214D01*
X0250085Y0012254D01*
X0249944Y0012297D01*
X0249803Y0012344D01*
X0249664Y0012394D01*
X0249527Y0012449D01*
X0249391Y0012507D01*
X0249256Y0012568D01*
X0249123Y0012633D01*
X0248992Y0012702D01*
X0248863Y0012774D01*
X0248736Y0012850D01*
X0248611Y0012929D01*
X0248488Y0013012D01*
X0248367Y0013097D01*
X0248249Y0013186D01*
X0248133Y0013278D01*
X0248020Y0013374D01*
X0247909Y0013472D01*
X0247801Y0013573D01*
X0247695Y0013677D01*
X0247593Y0013783D01*
X0247493Y0013893D01*
X0247397Y0014005D01*
X0247303Y0014120D01*
X0247212Y0014237D01*
X0247125Y0014356D01*
X0247041Y0014478D01*
X0246960Y0014602D01*
X0246883Y0014728D01*
X0246809Y0014856D01*
X0246738Y0014986D01*
X0246671Y0015118D01*
X0246608Y0015252D01*
X0246548Y0015387D01*
X0246492Y0015524D01*
X0246439Y0015663D01*
X0246391Y0015803D01*
X0246346Y0015944D01*
X0246305Y0016086D01*
X0246267Y0016229D01*
X0246234Y0016373D01*
X0246204Y0016518D01*
X0246178Y0016664D01*
X0246157Y0016810D01*
X0246139Y0016957D01*
X0246125Y0017104D01*
X0246115Y0017252D01*
X0246109Y0017400D01*
X0246107Y0017548D01*
D12*
X0019336Y0151406D03*
X0019336Y0214398D03*
D13*
X0015399Y0017548D02*
X0015401Y0017741D01*
X0015408Y0017934D01*
X0015420Y0018127D01*
X0015437Y0018320D01*
X0015458Y0018512D01*
X0015484Y0018703D01*
X0015515Y0018894D01*
X0015550Y0019084D01*
X0015590Y0019273D01*
X0015635Y0019461D01*
X0015684Y0019648D01*
X0015738Y0019834D01*
X0015796Y0020018D01*
X0015859Y0020201D01*
X0015927Y0020382D01*
X0015998Y0020561D01*
X0016075Y0020739D01*
X0016155Y0020915D01*
X0016240Y0021088D01*
X0016329Y0021260D01*
X0016422Y0021429D01*
X0016519Y0021596D01*
X0016621Y0021761D01*
X0016726Y0021923D01*
X0016835Y0022082D01*
X0016949Y0022239D01*
X0017066Y0022392D01*
X0017186Y0022543D01*
X0017311Y0022691D01*
X0017439Y0022836D01*
X0017570Y0022977D01*
X0017705Y0023116D01*
X0017844Y0023251D01*
X0017985Y0023382D01*
X0018130Y0023510D01*
X0018278Y0023635D01*
X0018429Y0023755D01*
X0018582Y0023872D01*
X0018739Y0023986D01*
X0018898Y0024095D01*
X0019060Y0024200D01*
X0019225Y0024302D01*
X0019392Y0024399D01*
X0019561Y0024492D01*
X0019733Y0024581D01*
X0019906Y0024666D01*
X0020082Y0024746D01*
X0020260Y0024823D01*
X0020439Y0024894D01*
X0020620Y0024962D01*
X0020803Y0025025D01*
X0020987Y0025083D01*
X0021173Y0025137D01*
X0021360Y0025186D01*
X0021548Y0025231D01*
X0021737Y0025271D01*
X0021927Y0025306D01*
X0022118Y0025337D01*
X0022309Y0025363D01*
X0022501Y0025384D01*
X0022694Y0025401D01*
X0022887Y0025413D01*
X0023080Y0025420D01*
X0023273Y0025422D01*
X0023466Y0025420D01*
X0023659Y0025413D01*
X0023852Y0025401D01*
X0024045Y0025384D01*
X0024237Y0025363D01*
X0024428Y0025337D01*
X0024619Y0025306D01*
X0024809Y0025271D01*
X0024998Y0025231D01*
X0025186Y0025186D01*
X0025373Y0025137D01*
X0025559Y0025083D01*
X0025743Y0025025D01*
X0025926Y0024962D01*
X0026107Y0024894D01*
X0026286Y0024823D01*
X0026464Y0024746D01*
X0026640Y0024666D01*
X0026813Y0024581D01*
X0026985Y0024492D01*
X0027154Y0024399D01*
X0027321Y0024302D01*
X0027486Y0024200D01*
X0027648Y0024095D01*
X0027807Y0023986D01*
X0027964Y0023872D01*
X0028117Y0023755D01*
X0028268Y0023635D01*
X0028416Y0023510D01*
X0028561Y0023382D01*
X0028702Y0023251D01*
X0028841Y0023116D01*
X0028976Y0022977D01*
X0029107Y0022836D01*
X0029235Y0022691D01*
X0029360Y0022543D01*
X0029480Y0022392D01*
X0029597Y0022239D01*
X0029711Y0022082D01*
X0029820Y0021923D01*
X0029925Y0021761D01*
X0030027Y0021596D01*
X0030124Y0021429D01*
X0030217Y0021260D01*
X0030306Y0021088D01*
X0030391Y0020915D01*
X0030471Y0020739D01*
X0030548Y0020561D01*
X0030619Y0020382D01*
X0030687Y0020201D01*
X0030750Y0020018D01*
X0030808Y0019834D01*
X0030862Y0019648D01*
X0030911Y0019461D01*
X0030956Y0019273D01*
X0030996Y0019084D01*
X0031031Y0018894D01*
X0031062Y0018703D01*
X0031088Y0018512D01*
X0031109Y0018320D01*
X0031126Y0018127D01*
X0031138Y0017934D01*
X0031145Y0017741D01*
X0031147Y0017548D01*
X0031145Y0017355D01*
X0031138Y0017162D01*
X0031126Y0016969D01*
X0031109Y0016776D01*
X0031088Y0016584D01*
X0031062Y0016393D01*
X0031031Y0016202D01*
X0030996Y0016012D01*
X0030956Y0015823D01*
X0030911Y0015635D01*
X0030862Y0015448D01*
X0030808Y0015262D01*
X0030750Y0015078D01*
X0030687Y0014895D01*
X0030619Y0014714D01*
X0030548Y0014535D01*
X0030471Y0014357D01*
X0030391Y0014181D01*
X0030306Y0014008D01*
X0030217Y0013836D01*
X0030124Y0013667D01*
X0030027Y0013500D01*
X0029925Y0013335D01*
X0029820Y0013173D01*
X0029711Y0013014D01*
X0029597Y0012857D01*
X0029480Y0012704D01*
X0029360Y0012553D01*
X0029235Y0012405D01*
X0029107Y0012260D01*
X0028976Y0012119D01*
X0028841Y0011980D01*
X0028702Y0011845D01*
X0028561Y0011714D01*
X0028416Y0011586D01*
X0028268Y0011461D01*
X0028117Y0011341D01*
X0027964Y0011224D01*
X0027807Y0011110D01*
X0027648Y0011001D01*
X0027486Y0010896D01*
X0027321Y0010794D01*
X0027154Y0010697D01*
X0026985Y0010604D01*
X0026813Y0010515D01*
X0026640Y0010430D01*
X0026464Y0010350D01*
X0026286Y0010273D01*
X0026107Y0010202D01*
X0025926Y0010134D01*
X0025743Y0010071D01*
X0025559Y0010013D01*
X0025373Y0009959D01*
X0025186Y0009910D01*
X0024998Y0009865D01*
X0024809Y0009825D01*
X0024619Y0009790D01*
X0024428Y0009759D01*
X0024237Y0009733D01*
X0024045Y0009712D01*
X0023852Y0009695D01*
X0023659Y0009683D01*
X0023466Y0009676D01*
X0023273Y0009674D01*
X0023080Y0009676D01*
X0022887Y0009683D01*
X0022694Y0009695D01*
X0022501Y0009712D01*
X0022309Y0009733D01*
X0022118Y0009759D01*
X0021927Y0009790D01*
X0021737Y0009825D01*
X0021548Y0009865D01*
X0021360Y0009910D01*
X0021173Y0009959D01*
X0020987Y0010013D01*
X0020803Y0010071D01*
X0020620Y0010134D01*
X0020439Y0010202D01*
X0020260Y0010273D01*
X0020082Y0010350D01*
X0019906Y0010430D01*
X0019733Y0010515D01*
X0019561Y0010604D01*
X0019392Y0010697D01*
X0019225Y0010794D01*
X0019060Y0010896D01*
X0018898Y0011001D01*
X0018739Y0011110D01*
X0018582Y0011224D01*
X0018429Y0011341D01*
X0018278Y0011461D01*
X0018130Y0011586D01*
X0017985Y0011714D01*
X0017844Y0011845D01*
X0017705Y0011980D01*
X0017570Y0012119D01*
X0017439Y0012260D01*
X0017311Y0012405D01*
X0017186Y0012553D01*
X0017066Y0012704D01*
X0016949Y0012857D01*
X0016835Y0013014D01*
X0016726Y0013173D01*
X0016621Y0013335D01*
X0016519Y0013500D01*
X0016422Y0013667D01*
X0016329Y0013836D01*
X0016240Y0014008D01*
X0016155Y0014181D01*
X0016075Y0014357D01*
X0015998Y0014535D01*
X0015927Y0014714D01*
X0015859Y0014895D01*
X0015796Y0015078D01*
X0015738Y0015262D01*
X0015684Y0015448D01*
X0015635Y0015635D01*
X0015590Y0015823D01*
X0015550Y0016012D01*
X0015515Y0016202D01*
X0015484Y0016393D01*
X0015458Y0016584D01*
X0015437Y0016776D01*
X0015420Y0016969D01*
X0015408Y0017162D01*
X0015401Y0017355D01*
X0015399Y0017548D01*
X0243745Y0017548D02*
X0243747Y0017741D01*
X0243754Y0017934D01*
X0243766Y0018127D01*
X0243783Y0018320D01*
X0243804Y0018512D01*
X0243830Y0018703D01*
X0243861Y0018894D01*
X0243896Y0019084D01*
X0243936Y0019273D01*
X0243981Y0019461D01*
X0244030Y0019648D01*
X0244084Y0019834D01*
X0244142Y0020018D01*
X0244205Y0020201D01*
X0244273Y0020382D01*
X0244344Y0020561D01*
X0244421Y0020739D01*
X0244501Y0020915D01*
X0244586Y0021088D01*
X0244675Y0021260D01*
X0244768Y0021429D01*
X0244865Y0021596D01*
X0244967Y0021761D01*
X0245072Y0021923D01*
X0245181Y0022082D01*
X0245295Y0022239D01*
X0245412Y0022392D01*
X0245532Y0022543D01*
X0245657Y0022691D01*
X0245785Y0022836D01*
X0245916Y0022977D01*
X0246051Y0023116D01*
X0246190Y0023251D01*
X0246331Y0023382D01*
X0246476Y0023510D01*
X0246624Y0023635D01*
X0246775Y0023755D01*
X0246928Y0023872D01*
X0247085Y0023986D01*
X0247244Y0024095D01*
X0247406Y0024200D01*
X0247571Y0024302D01*
X0247738Y0024399D01*
X0247907Y0024492D01*
X0248079Y0024581D01*
X0248252Y0024666D01*
X0248428Y0024746D01*
X0248606Y0024823D01*
X0248785Y0024894D01*
X0248966Y0024962D01*
X0249149Y0025025D01*
X0249333Y0025083D01*
X0249519Y0025137D01*
X0249706Y0025186D01*
X0249894Y0025231D01*
X0250083Y0025271D01*
X0250273Y0025306D01*
X0250464Y0025337D01*
X0250655Y0025363D01*
X0250847Y0025384D01*
X0251040Y0025401D01*
X0251233Y0025413D01*
X0251426Y0025420D01*
X0251619Y0025422D01*
X0251812Y0025420D01*
X0252005Y0025413D01*
X0252198Y0025401D01*
X0252391Y0025384D01*
X0252583Y0025363D01*
X0252774Y0025337D01*
X0252965Y0025306D01*
X0253155Y0025271D01*
X0253344Y0025231D01*
X0253532Y0025186D01*
X0253719Y0025137D01*
X0253905Y0025083D01*
X0254089Y0025025D01*
X0254272Y0024962D01*
X0254453Y0024894D01*
X0254632Y0024823D01*
X0254810Y0024746D01*
X0254986Y0024666D01*
X0255159Y0024581D01*
X0255331Y0024492D01*
X0255500Y0024399D01*
X0255667Y0024302D01*
X0255832Y0024200D01*
X0255994Y0024095D01*
X0256153Y0023986D01*
X0256310Y0023872D01*
X0256463Y0023755D01*
X0256614Y0023635D01*
X0256762Y0023510D01*
X0256907Y0023382D01*
X0257048Y0023251D01*
X0257187Y0023116D01*
X0257322Y0022977D01*
X0257453Y0022836D01*
X0257581Y0022691D01*
X0257706Y0022543D01*
X0257826Y0022392D01*
X0257943Y0022239D01*
X0258057Y0022082D01*
X0258166Y0021923D01*
X0258271Y0021761D01*
X0258373Y0021596D01*
X0258470Y0021429D01*
X0258563Y0021260D01*
X0258652Y0021088D01*
X0258737Y0020915D01*
X0258817Y0020739D01*
X0258894Y0020561D01*
X0258965Y0020382D01*
X0259033Y0020201D01*
X0259096Y0020018D01*
X0259154Y0019834D01*
X0259208Y0019648D01*
X0259257Y0019461D01*
X0259302Y0019273D01*
X0259342Y0019084D01*
X0259377Y0018894D01*
X0259408Y0018703D01*
X0259434Y0018512D01*
X0259455Y0018320D01*
X0259472Y0018127D01*
X0259484Y0017934D01*
X0259491Y0017741D01*
X0259493Y0017548D01*
X0259491Y0017355D01*
X0259484Y0017162D01*
X0259472Y0016969D01*
X0259455Y0016776D01*
X0259434Y0016584D01*
X0259408Y0016393D01*
X0259377Y0016202D01*
X0259342Y0016012D01*
X0259302Y0015823D01*
X0259257Y0015635D01*
X0259208Y0015448D01*
X0259154Y0015262D01*
X0259096Y0015078D01*
X0259033Y0014895D01*
X0258965Y0014714D01*
X0258894Y0014535D01*
X0258817Y0014357D01*
X0258737Y0014181D01*
X0258652Y0014008D01*
X0258563Y0013836D01*
X0258470Y0013667D01*
X0258373Y0013500D01*
X0258271Y0013335D01*
X0258166Y0013173D01*
X0258057Y0013014D01*
X0257943Y0012857D01*
X0257826Y0012704D01*
X0257706Y0012553D01*
X0257581Y0012405D01*
X0257453Y0012260D01*
X0257322Y0012119D01*
X0257187Y0011980D01*
X0257048Y0011845D01*
X0256907Y0011714D01*
X0256762Y0011586D01*
X0256614Y0011461D01*
X0256463Y0011341D01*
X0256310Y0011224D01*
X0256153Y0011110D01*
X0255994Y0011001D01*
X0255832Y0010896D01*
X0255667Y0010794D01*
X0255500Y0010697D01*
X0255331Y0010604D01*
X0255159Y0010515D01*
X0254986Y0010430D01*
X0254810Y0010350D01*
X0254632Y0010273D01*
X0254453Y0010202D01*
X0254272Y0010134D01*
X0254089Y0010071D01*
X0253905Y0010013D01*
X0253719Y0009959D01*
X0253532Y0009910D01*
X0253344Y0009865D01*
X0253155Y0009825D01*
X0252965Y0009790D01*
X0252774Y0009759D01*
X0252583Y0009733D01*
X0252391Y0009712D01*
X0252198Y0009695D01*
X0252005Y0009683D01*
X0251812Y0009676D01*
X0251619Y0009674D01*
X0251426Y0009676D01*
X0251233Y0009683D01*
X0251040Y0009695D01*
X0250847Y0009712D01*
X0250655Y0009733D01*
X0250464Y0009759D01*
X0250273Y0009790D01*
X0250083Y0009825D01*
X0249894Y0009865D01*
X0249706Y0009910D01*
X0249519Y0009959D01*
X0249333Y0010013D01*
X0249149Y0010071D01*
X0248966Y0010134D01*
X0248785Y0010202D01*
X0248606Y0010273D01*
X0248428Y0010350D01*
X0248252Y0010430D01*
X0248079Y0010515D01*
X0247907Y0010604D01*
X0247738Y0010697D01*
X0247571Y0010794D01*
X0247406Y0010896D01*
X0247244Y0011001D01*
X0247085Y0011110D01*
X0246928Y0011224D01*
X0246775Y0011341D01*
X0246624Y0011461D01*
X0246476Y0011586D01*
X0246331Y0011714D01*
X0246190Y0011845D01*
X0246051Y0011980D01*
X0245916Y0012119D01*
X0245785Y0012260D01*
X0245657Y0012405D01*
X0245532Y0012553D01*
X0245412Y0012704D01*
X0245295Y0012857D01*
X0245181Y0013014D01*
X0245072Y0013173D01*
X0244967Y0013335D01*
X0244865Y0013500D01*
X0244768Y0013667D01*
X0244675Y0013836D01*
X0244586Y0014008D01*
X0244501Y0014181D01*
X0244421Y0014357D01*
X0244344Y0014535D01*
X0244273Y0014714D01*
X0244205Y0014895D01*
X0244142Y0015078D01*
X0244084Y0015262D01*
X0244030Y0015448D01*
X0243981Y0015635D01*
X0243936Y0015823D01*
X0243896Y0016012D01*
X0243861Y0016202D01*
X0243830Y0016393D01*
X0243804Y0016584D01*
X0243783Y0016776D01*
X0243766Y0016969D01*
X0243754Y0017162D01*
X0243747Y0017355D01*
X0243745Y0017548D01*
D14*
X0230281Y0203375D03*
X0220281Y0203375D03*
X0210281Y0203375D03*
X0200281Y0203375D03*
X0190281Y0203375D03*
X0180281Y0203375D03*
X0170281Y0203375D03*
X0160281Y0203375D03*
X0150281Y0203375D03*
X0140281Y0203375D03*
X0130281Y0203375D03*
X0120281Y0203375D03*
X0110281Y0203375D03*
X0100281Y0203375D03*
X0090281Y0203375D03*
X0080281Y0203375D03*
X0070281Y0203375D03*
X0060281Y0203375D03*
X0050281Y0203375D03*
X0040281Y0203375D03*
X0040281Y0213375D03*
X0050281Y0213375D03*
X0060281Y0213375D03*
X0070281Y0213375D03*
X0080281Y0213375D03*
X0090281Y0213375D03*
X0100281Y0213375D03*
X0110281Y0213375D03*
X0120281Y0213375D03*
X0130281Y0213375D03*
X0140281Y0213375D03*
X0150281Y0213375D03*
X0160281Y0213375D03*
X0170281Y0213375D03*
X0180281Y0213375D03*
X0190281Y0213375D03*
X0200281Y0213375D03*
X0210281Y0213375D03*
X0220281Y0213375D03*
X0230281Y0213375D03*
D15*
X0135281Y0188099D03*
X0130281Y0188099D03*
X0125281Y0188099D03*
X0120281Y0188099D03*
X0115281Y0188099D03*
X0110281Y0188099D03*
X0105281Y0188099D03*
X0100281Y0188099D03*
X0095281Y0188099D03*
X0090281Y0188099D03*
X0085281Y0188099D03*
X0080281Y0188099D03*
X0075281Y0188099D03*
X0070281Y0188099D03*
X0065281Y0188099D03*
X0060281Y0188099D03*
X0055281Y0188099D03*
X0050281Y0188099D03*
X0045281Y0188099D03*
X0040281Y0188099D03*
X0040281Y0118099D03*
X0045281Y0118099D03*
X0050281Y0118099D03*
X0055281Y0118099D03*
X0060281Y0118099D03*
X0065281Y0118099D03*
X0070281Y0118099D03*
X0075281Y0118099D03*
X0080281Y0118099D03*
X0085281Y0118099D03*
X0090281Y0118099D03*
X0095281Y0118099D03*
X0100281Y0118099D03*
X0105281Y0118099D03*
X0110281Y0118099D03*
X0115281Y0118099D03*
X0120281Y0118099D03*
X0125281Y0118099D03*
X0130281Y0118099D03*
X0135281Y0118099D03*
D16*
X0035281Y0138099D03*
X0035281Y0143099D03*
X0035281Y0148099D03*
X0035281Y0153099D03*
X0035281Y0158099D03*
X0035281Y0163099D03*
X0035281Y0168099D03*
D17*
X0024218Y0077863D03*
X0024218Y0067863D03*
X0024375Y0051682D03*
X0024375Y0041682D03*
D18*
X0056934Y0069398D03*
X0060832Y0059359D03*
X0073430Y0059162D03*
X0085438Y0058847D03*
X0086934Y0069398D03*
X0097564Y0069398D03*
X0098470Y0058729D03*
X0111816Y0058729D03*
X0124218Y0058690D03*
X0127564Y0069398D03*
X0154651Y0064517D03*
X0164651Y0064517D03*
X0164454Y0049674D03*
X0154454Y0049674D03*
X0124218Y0028690D03*
X0111816Y0028729D03*
X0098470Y0028729D03*
X0085438Y0028847D03*
X0073430Y0029162D03*
X0060832Y0029359D03*
X0154848Y0080225D03*
X0164848Y0080225D03*
D19*
X0220911Y0039220D03*
X0230911Y0039220D03*
X0240911Y0039220D03*
X0250911Y0039220D03*
D20*
X0204887Y0050265D03*
X0204887Y0060265D03*
X0204887Y0070265D03*
X0204887Y0080265D03*
X0174887Y0080265D03*
X0174887Y0070265D03*
X0174887Y0060265D03*
X0174887Y0050265D03*
D21*
X0177053Y0029556D03*
X0177053Y0019556D03*
D22*
X0143196Y0024713D02*
X0137996Y0024713D01*
X0137996Y0034713D02*
X0143196Y0034713D01*
X0143196Y0044713D02*
X0137996Y0044713D01*
X0137996Y0054713D02*
X0143196Y0054713D01*
X0143196Y0064713D02*
X0137996Y0064713D01*
X0048511Y0065501D02*
X0043311Y0065501D01*
X0043311Y0055501D02*
X0048511Y0055501D01*
X0048511Y0045501D02*
X0043311Y0045501D01*
X0043311Y0035501D02*
X0048511Y0035501D01*
X0048511Y0025501D02*
X0043311Y0025501D01*
X0152879Y0184239D02*
X0152879Y0189439D01*
X0162879Y0189439D02*
X0162879Y0184239D01*
X0172879Y0184239D02*
X0172879Y0189439D01*
X0182879Y0189439D02*
X0182879Y0184239D01*
X0192879Y0184239D02*
X0192879Y0189439D01*
D23*
X0189325Y0192000D02*
X0189325Y0185400D01*
X0181525Y0177600D01*
X0116725Y0177600D01*
X0060325Y0121200D01*
X0060325Y0118200D01*
X0060281Y0118099D01*
X0065125Y0117600D02*
X0065125Y0115200D01*
X0065281Y0118099D01*
X0065125Y0117600D01*
X0065125Y0115200D02*
X0068125Y0112200D01*
X0102325Y0112200D01*
X0105325Y0115200D01*
X0105281Y0118099D01*
X0105325Y0117600D01*
X0105325Y0115200D01*
X0108325Y0112200D01*
X0132325Y0112200D01*
X0134725Y0114600D01*
X0134725Y0117600D01*
X0135281Y0118099D01*
X0168925Y0080400D02*
X0173125Y0084600D01*
X0200125Y0084600D01*
X0204325Y0080400D01*
X0204887Y0080265D01*
X0204925Y0079800D01*
X0220525Y0064200D01*
X0220525Y0039600D01*
X0220911Y0039220D01*
X0225325Y0033600D02*
X0216325Y0033600D01*
X0212725Y0037200D01*
X0171325Y0037200D01*
X0155125Y0021000D01*
X0063925Y0021000D01*
X0057325Y0027600D01*
X0057325Y0031200D01*
X0059125Y0033000D01*
X0074725Y0033000D01*
X0082525Y0025200D01*
X0087325Y0025200D01*
X0090325Y0028200D01*
X0098125Y0028200D01*
X0098470Y0028729D01*
X0111325Y0028800D02*
X0111816Y0028729D01*
X0111325Y0028800D02*
X0111325Y0042600D01*
X0104725Y0049200D01*
X0104725Y0058800D01*
X0111325Y0065400D01*
X0133525Y0065400D01*
X0147925Y0079800D01*
X0154525Y0079800D01*
X0154848Y0080225D01*
X0155125Y0079800D01*
X0164125Y0070800D01*
X0164125Y0064800D01*
X0164651Y0064517D01*
X0169525Y0060000D02*
X0174325Y0060000D01*
X0174887Y0060265D01*
X0179725Y0058800D02*
X0175525Y0054600D01*
X0173125Y0054600D01*
X0168325Y0049800D01*
X0168325Y0048000D01*
X0145525Y0025200D01*
X0140596Y0024713D01*
X0140725Y0025200D01*
X0145525Y0025200D01*
X0140596Y0024713D02*
X0140125Y0025200D01*
X0127525Y0025200D01*
X0124525Y0028200D01*
X0124218Y0028690D01*
X0114325Y0024000D02*
X0131125Y0040800D01*
X0145525Y0040800D01*
X0153925Y0049200D01*
X0154454Y0049674D01*
X0154525Y0049800D01*
X0159325Y0049800D01*
X0169525Y0060000D01*
X0164125Y0058800D02*
X0124525Y0058800D01*
X0124218Y0058690D01*
X0123925Y0058800D01*
X0111925Y0058800D01*
X0111816Y0058729D01*
X0110125Y0062400D02*
X0107725Y0060000D01*
X0107725Y0050400D01*
X0098725Y0058800D02*
X0098470Y0058729D01*
X0098125Y0058200D01*
X0085525Y0045600D01*
X0085525Y0029400D01*
X0085438Y0028847D01*
X0081925Y0024000D02*
X0114325Y0024000D01*
X0081925Y0024000D02*
X0077125Y0028800D01*
X0073525Y0028800D01*
X0073430Y0029162D01*
X0072925Y0029400D01*
X0060925Y0029400D01*
X0060832Y0029359D01*
X0061525Y0042000D02*
X0024925Y0042000D01*
X0024375Y0041682D01*
X0023725Y0036000D02*
X0018325Y0041400D01*
X0018325Y0107494D01*
X0063062Y0152231D01*
X0078810Y0167589D01*
X0078642Y0179231D01*
X0080873Y0179231D01*
X0086462Y0179231D01*
X0087662Y0180000D01*
X0153925Y0180000D01*
X0159325Y0185400D01*
X0159325Y0191400D01*
X0161125Y0193200D01*
X0166525Y0193200D01*
X0172525Y0187200D01*
X0172879Y0186839D01*
X0180925Y0187200D02*
X0164725Y0203400D01*
X0164725Y0204600D01*
X0159925Y0209400D01*
X0098725Y0209400D01*
X0094525Y0213600D01*
X0094525Y0214800D01*
X0091525Y0217800D01*
X0068725Y0217800D01*
X0066325Y0215400D01*
X0066325Y0207000D01*
X0069925Y0203400D01*
X0070281Y0203375D01*
X0068725Y0199200D02*
X0064525Y0203400D01*
X0064525Y0214800D01*
X0061525Y0217800D01*
X0059125Y0217800D01*
X0054325Y0213000D01*
X0054325Y0211800D01*
X0050125Y0207600D01*
X0044725Y0207600D01*
X0040525Y0203400D01*
X0040281Y0203375D01*
X0048325Y0199200D02*
X0051925Y0199200D01*
X0056125Y0203400D01*
X0056125Y0209400D01*
X0059725Y0213000D01*
X0060281Y0213375D01*
X0070281Y0213375D02*
X0070525Y0213000D01*
X0074125Y0209400D01*
X0080125Y0209400D01*
X0084325Y0205200D01*
X0084325Y0203400D01*
X0088525Y0199200D01*
X0096925Y0199200D01*
X0104725Y0191400D01*
X0104725Y0188400D01*
X0105281Y0188099D01*
X0100525Y0187800D02*
X0100525Y0184800D01*
X0102925Y0182400D01*
X0132325Y0182400D01*
X0134725Y0184800D01*
X0134725Y0187800D01*
X0135281Y0188099D01*
X0141925Y0186600D02*
X0136525Y0181200D01*
X0084325Y0181200D01*
X0080725Y0184800D01*
X0080725Y0187800D01*
X0080281Y0188099D01*
X0080125Y0188400D01*
X0080125Y0191400D01*
X0072325Y0199200D01*
X0068725Y0199200D01*
X0080281Y0203375D02*
X0080725Y0202800D01*
X0084925Y0198600D01*
X0084925Y0193800D01*
X0097525Y0193800D01*
X0099925Y0191400D01*
X0099925Y0188400D01*
X0100281Y0188099D01*
X0100525Y0187800D01*
X0110125Y0188400D02*
X0110281Y0188099D01*
X0110125Y0188400D02*
X0110125Y0191400D01*
X0102325Y0199200D01*
X0098725Y0199200D01*
X0094525Y0203400D01*
X0094525Y0205200D01*
X0090325Y0209400D01*
X0084325Y0209400D01*
X0080725Y0213000D01*
X0080281Y0213375D01*
X0084925Y0193800D02*
X0084925Y0188400D01*
X0085281Y0188099D01*
X0092725Y0178800D02*
X0154525Y0178800D01*
X0162325Y0186600D01*
X0162879Y0186839D01*
X0152879Y0186839D02*
X0152725Y0186600D01*
X0141925Y0186600D01*
X0176125Y0201600D02*
X0178525Y0199200D01*
X0182125Y0199200D01*
X0185725Y0202800D01*
X0189925Y0202800D01*
X0190281Y0203375D01*
X0188725Y0207600D02*
X0201925Y0207600D01*
X0204325Y0205200D01*
X0204325Y0179400D01*
X0102925Y0078000D01*
X0024325Y0078000D01*
X0024218Y0077863D01*
X0024218Y0067863D02*
X0024325Y0067800D01*
X0031525Y0060600D01*
X0048925Y0060600D01*
X0052525Y0064200D01*
X0052525Y0064800D01*
X0056725Y0069000D01*
X0056934Y0069398D01*
X0055525Y0073200D02*
X0058525Y0073200D01*
X0060925Y0070800D01*
X0060925Y0059400D01*
X0060832Y0059359D01*
X0060925Y0059400D02*
X0068125Y0059400D01*
X0077725Y0069000D01*
X0086725Y0069000D01*
X0086934Y0069398D01*
X0087325Y0069600D01*
X0090925Y0073200D01*
X0098725Y0073200D01*
X0105925Y0066000D01*
X0108925Y0069000D01*
X0127525Y0069000D01*
X0127564Y0069398D01*
X0128125Y0069600D01*
X0142525Y0084000D01*
X0156325Y0084000D01*
X0159925Y0080400D01*
X0164725Y0080400D01*
X0164848Y0080225D01*
X0165325Y0080400D01*
X0168925Y0080400D01*
X0174887Y0080265D02*
X0174925Y0079800D01*
X0174925Y0076800D01*
X0179725Y0072000D01*
X0179725Y0058800D01*
X0174325Y0069000D02*
X0164125Y0058800D01*
X0154525Y0064200D02*
X0154651Y0064517D01*
X0154525Y0064200D02*
X0151525Y0061200D01*
X0136525Y0061200D01*
X0135325Y0062400D01*
X0110125Y0062400D01*
X0105925Y0066000D02*
X0098725Y0058800D01*
X0097525Y0069000D02*
X0091525Y0069000D01*
X0084925Y0062400D01*
X0081925Y0062400D01*
X0061525Y0042000D01*
X0045911Y0045501D02*
X0045325Y0045600D01*
X0040525Y0045600D01*
X0019525Y0066600D01*
X0019525Y0105600D01*
X0077125Y0163200D01*
X0081810Y0168357D01*
X0077125Y0163200D02*
X0092725Y0178800D01*
X0048325Y0199200D02*
X0040525Y0191400D01*
X0040525Y0188400D01*
X0040281Y0188099D01*
X0039925Y0187800D01*
X0039925Y0172800D01*
X0035725Y0168600D01*
X0035281Y0168099D01*
X0035125Y0168000D01*
X0035125Y0163200D01*
X0035281Y0163099D01*
X0035725Y0162600D01*
X0038725Y0162600D01*
X0041125Y0160200D01*
X0041125Y0156000D01*
X0038725Y0153600D01*
X0035281Y0153099D01*
X0035725Y0153600D01*
X0038725Y0153600D01*
X0041125Y0151200D01*
X0041125Y0145800D01*
X0038725Y0143400D01*
X0035725Y0143400D01*
X0035281Y0143099D01*
X0035125Y0142800D01*
X0035125Y0138600D01*
X0035281Y0138099D01*
X0040281Y0118099D02*
X0040525Y0117600D01*
X0040525Y0114600D01*
X0042925Y0112200D01*
X0042925Y0111000D01*
X0042925Y0112200D02*
X0062125Y0112200D01*
X0065125Y0115200D01*
X0070281Y0118099D02*
X0070525Y0118200D01*
X0070525Y0125400D01*
X0055525Y0073200D02*
X0048325Y0066000D01*
X0045925Y0066000D01*
X0045911Y0065501D01*
X0045925Y0074400D02*
X0035125Y0063600D01*
X0045925Y0074400D02*
X0101125Y0074400D01*
X0205525Y0178800D01*
X0205525Y0205800D01*
X0202525Y0208800D01*
X0179725Y0208800D01*
X0176125Y0205200D01*
X0176125Y0201600D01*
X0180281Y0203375D02*
X0180325Y0203400D01*
X0184525Y0203400D01*
X0188725Y0207600D01*
X0200281Y0203375D02*
X0200125Y0202800D01*
X0189325Y0192000D01*
X0182725Y0187200D02*
X0180925Y0187200D01*
X0182725Y0187200D02*
X0182879Y0186839D01*
X0213925Y0205800D02*
X0216325Y0203400D01*
X0216325Y0070200D01*
X0230725Y0055800D01*
X0230725Y0039600D01*
X0230911Y0039220D01*
X0230725Y0039000D01*
X0225325Y0033600D01*
X0174325Y0069000D02*
X0174325Y0070200D01*
X0174887Y0070265D01*
X0097564Y0069398D02*
X0097525Y0069000D01*
X0045911Y0035501D02*
X0045325Y0036000D01*
X0023725Y0036000D01*
X0213925Y0205800D02*
X0213925Y0207600D01*
D24*
X0213925Y0207600D03*
X0080873Y0179231D03*
X0081810Y0168357D03*
X0070525Y0125400D03*
X0042925Y0111000D03*
X0035125Y0063600D03*
X0107725Y0050400D03*
M02*
