%
M48
M72
T01C0.02000
T02C0.02756
T03C0.03150
T04C0.03200
T05C0.04000
T06C0.11024
%
T01
X29400Y63600
X37200Y111000
X64800Y125400
X210169Y207600
T02
X171328Y29556
X171328Y19556
T03
X215186Y39220
X225186Y39220
X235186Y39220
X245186Y39220
T04
X201131Y54202
X201131Y64202
X201131Y74202
X201131Y84202
X171131Y84202
X163060Y84162
X153060Y84162
X171131Y74202
X162863Y68454
X171131Y64202
X171131Y54202
X162666Y45737
X152666Y45737
X134871Y44713
X134871Y34713
X134871Y24713
X118493Y28690
X106091Y28729
X92745Y28729
X79713Y28847
X67706Y29162
X55107Y29359
X39202Y25501
X39202Y35501
X39202Y45501
X39202Y55501
X39202Y65501
X51209Y69398
X55107Y59359
X67706Y59162
X79713Y58847
X92745Y58729
X91839Y69398
X81209Y69398
X106091Y58729
X118493Y58690
X121839Y69398
X134871Y64713
X134871Y54713
X152863Y68454
X18493Y67863
X18493Y77863
X18650Y51682
X18650Y41682
X147154Y186839
X157154Y186839
X167154Y186839
X177154Y186839
X187154Y186839
T05
X184556Y203375
X194556Y203375
X204556Y203375
X214556Y203375
X224556Y203375
X224556Y213375
X214556Y213375
X204556Y213375
X194556Y213375
X184556Y213375
X174556Y213375
X164556Y213375
X154556Y213375
X144556Y213375
X134556Y213375
X124556Y213375
X114556Y213375
X104556Y213375
X94556Y213375
X84556Y213375
X74556Y213375
X64556Y213375
X54556Y213375
X44556Y213375
X34556Y213375
X34556Y203375
X44556Y203375
X54556Y203375
X64556Y203375
X74556Y203375
X84556Y203375
X94556Y203375
X104556Y203375
X114556Y203375
X124556Y203375
X134556Y203375
X144556Y203375
X154556Y203375
X164556Y203375
X174556Y203375
T06
X17548Y17548
X245894Y17548
M30
