G75*
%MOIN*%
%OFA0B0*%
%FSLAX25Y25*%
%IPPOS*%
%LPD*%
%AMOC8*
5,1,8,0,0,1.08239X$1,22.5*
%
%ADD10C,0.00600*%
D10*
X0078217Y0012276D02*
X0079285Y0012276D01*
X0081420Y0010141D01*
X0081420Y0008006D02*
X0081420Y0012276D01*
X0083595Y0011208D02*
X0083595Y0010141D01*
X0087866Y0010141D01*
X0087866Y0011208D02*
X0086798Y0012276D01*
X0084663Y0012276D01*
X0083595Y0011208D01*
X0084663Y0008006D02*
X0086798Y0008006D01*
X0087866Y0009073D01*
X0087866Y0011208D01*
X0090041Y0012276D02*
X0090041Y0006938D01*
X0091108Y0005870D01*
X0092176Y0005870D01*
X0093243Y0008006D02*
X0090041Y0008006D01*
X0093243Y0008006D02*
X0094311Y0009073D01*
X0094311Y0012276D01*
X0097540Y0014411D02*
X0097540Y0008006D01*
X0096473Y0008006D02*
X0098608Y0008006D01*
X0100783Y0010141D02*
X0105054Y0010141D01*
X0105054Y0011208D02*
X0103986Y0012276D01*
X0101851Y0012276D01*
X0100783Y0011208D01*
X0100783Y0010141D01*
X0101851Y0008006D02*
X0103986Y0008006D01*
X0105054Y0009073D01*
X0105054Y0011208D01*
X0107229Y0011208D02*
X0111499Y0011208D01*
X0111499Y0008006D02*
X0111499Y0014411D01*
X0107229Y0014411D02*
X0107229Y0008006D01*
X0098608Y0014411D02*
X0097540Y0014411D01*
X0120120Y0012276D02*
X0123322Y0012276D01*
X0124390Y0011208D01*
X0123322Y0010141D01*
X0121187Y0010141D01*
X0120120Y0009073D01*
X0121187Y0008006D01*
X0124390Y0008006D01*
X0126565Y0008006D02*
X0126565Y0011208D01*
X0127633Y0012276D01*
X0129768Y0012276D01*
X0129768Y0010141D02*
X0126565Y0010141D01*
X0126565Y0008006D02*
X0129768Y0008006D01*
X0130836Y0009073D01*
X0129768Y0010141D01*
X0133011Y0011208D02*
X0133011Y0008006D01*
X0135146Y0008006D02*
X0135146Y0011208D01*
X0134078Y0012276D01*
X0133011Y0011208D01*
X0135146Y0011208D02*
X0136213Y0012276D01*
X0137281Y0012276D01*
X0137281Y0008006D01*
X0139456Y0009073D02*
X0139456Y0011208D01*
X0140524Y0012276D01*
X0142659Y0012276D01*
X0143727Y0011208D01*
X0143727Y0009073D01*
X0142659Y0008006D01*
X0140524Y0008006D01*
X0139456Y0009073D01*
X0145902Y0008006D02*
X0145902Y0011208D01*
X0146969Y0012276D01*
X0149104Y0012276D01*
X0150172Y0011208D01*
X0150172Y0008006D02*
X0150172Y0014411D01*
X0152347Y0014411D02*
X0156617Y0014411D01*
X0154482Y0014411D02*
X0154482Y0008006D01*
X0165238Y0008006D02*
X0168441Y0008006D01*
X0169508Y0009073D01*
X0169508Y0012276D01*
X0171684Y0011208D02*
X0172751Y0012276D01*
X0175954Y0012276D01*
X0175954Y0014411D02*
X0175954Y0008006D01*
X0172751Y0008006D01*
X0171684Y0009073D01*
X0171684Y0011208D01*
X0165238Y0012276D02*
X0165238Y0006938D01*
X0166306Y0005870D01*
X0167373Y0005870D01*
X0184575Y0008006D02*
X0187777Y0008006D01*
X0188845Y0009073D01*
X0188845Y0011208D01*
X0187777Y0012276D01*
X0184575Y0012276D01*
X0184575Y0014411D02*
X0184575Y0008006D01*
X0191020Y0010141D02*
X0195290Y0010141D01*
X0195290Y0011208D02*
X0194223Y0012276D01*
X0192088Y0012276D01*
X0191020Y0011208D01*
X0191020Y0010141D01*
X0192088Y0008006D02*
X0194223Y0008006D01*
X0195290Y0009073D01*
X0195290Y0011208D01*
X0197466Y0011208D02*
X0197466Y0008006D01*
X0197466Y0011208D02*
X0198533Y0012276D01*
X0201736Y0012276D01*
X0201736Y0008006D01*
X0203911Y0008006D02*
X0207114Y0008006D01*
X0208181Y0009073D01*
X0208181Y0011208D01*
X0207114Y0012276D01*
X0203911Y0012276D01*
X0203911Y0006938D01*
X0204979Y0005870D01*
X0206046Y0005870D01*
X0210343Y0008006D02*
X0212478Y0008006D01*
X0211411Y0008006D02*
X0211411Y0012276D01*
X0212478Y0012276D01*
X0214654Y0012276D02*
X0217856Y0012276D01*
X0218924Y0011208D01*
X0217856Y0010141D01*
X0215721Y0010141D01*
X0214654Y0009073D01*
X0215721Y0008006D01*
X0218924Y0008006D01*
X0221099Y0010141D02*
X0225369Y0010141D01*
X0225369Y0011208D02*
X0224302Y0012276D01*
X0222167Y0012276D01*
X0221099Y0011208D01*
X0221099Y0010141D01*
X0222167Y0008006D02*
X0224302Y0008006D01*
X0225369Y0009073D01*
X0225369Y0011208D01*
X0227545Y0009073D02*
X0227545Y0013343D01*
X0228612Y0014411D01*
X0231815Y0014411D01*
X0231815Y0008006D01*
X0228612Y0008006D01*
X0227545Y0009073D01*
X0211411Y0014411D02*
X0211411Y0015479D01*
X0220727Y0129886D02*
X0219659Y0130954D01*
X0219659Y0136292D01*
X0222862Y0136292D01*
X0223930Y0135224D01*
X0223930Y0133089D01*
X0222862Y0132021D01*
X0219659Y0132021D01*
X0217484Y0132021D02*
X0215349Y0132021D01*
X0216416Y0132021D02*
X0216416Y0136292D01*
X0217484Y0136292D01*
X0216416Y0138427D02*
X0216416Y0139494D01*
X0212119Y0137359D02*
X0212119Y0133089D01*
X0211052Y0132021D01*
X0208890Y0133089D02*
X0207822Y0132021D01*
X0204620Y0132021D01*
X0204620Y0136292D01*
X0202445Y0135224D02*
X0202445Y0133089D01*
X0201377Y0132021D01*
X0198174Y0132021D01*
X0198174Y0138427D01*
X0198174Y0136292D02*
X0201377Y0136292D01*
X0202445Y0135224D01*
X0195999Y0135224D02*
X0195999Y0133089D01*
X0194931Y0132021D01*
X0192796Y0132021D01*
X0191729Y0134156D02*
X0195999Y0134156D01*
X0195999Y0135224D02*
X0194931Y0136292D01*
X0192796Y0136292D01*
X0191729Y0135224D01*
X0191729Y0134156D01*
X0183108Y0132021D02*
X0178838Y0132021D01*
X0175595Y0133089D02*
X0174527Y0132021D01*
X0175595Y0133089D02*
X0175595Y0137359D01*
X0176663Y0136292D02*
X0174527Y0136292D01*
X0172366Y0135224D02*
X0172366Y0133089D01*
X0171298Y0132021D01*
X0168095Y0132021D01*
X0168095Y0138427D01*
X0168095Y0136292D02*
X0171298Y0136292D01*
X0172366Y0135224D01*
X0175608Y0145801D02*
X0174541Y0146868D01*
X0174541Y0147936D01*
X0175608Y0149004D01*
X0178811Y0149004D01*
X0178811Y0146868D01*
X0177743Y0145801D01*
X0175608Y0145801D01*
X0178811Y0149004D02*
X0176676Y0151139D01*
X0174541Y0152206D01*
X0171291Y0159580D02*
X0171291Y0165986D01*
X0168089Y0165986D01*
X0167021Y0164918D01*
X0167021Y0162783D01*
X0168089Y0161715D01*
X0171291Y0161715D01*
X0169156Y0161715D02*
X0167021Y0159580D01*
X0164846Y0160648D02*
X0164846Y0162783D01*
X0163778Y0163851D01*
X0161643Y0163851D01*
X0160575Y0162783D01*
X0160575Y0161715D01*
X0164846Y0161715D01*
X0164846Y0160648D02*
X0163778Y0159580D01*
X0161643Y0159580D01*
X0158400Y0163851D02*
X0156265Y0159580D01*
X0154130Y0163851D01*
X0151955Y0163851D02*
X0150887Y0163851D01*
X0150887Y0159580D01*
X0149820Y0159580D02*
X0151955Y0159580D01*
X0147658Y0159580D02*
X0144455Y0159580D01*
X0143387Y0160648D01*
X0144455Y0161715D01*
X0146590Y0161715D01*
X0147658Y0162783D01*
X0146590Y0163851D01*
X0143387Y0163851D01*
X0141212Y0163851D02*
X0140145Y0163851D01*
X0140145Y0159580D01*
X0141212Y0159580D02*
X0139077Y0159580D01*
X0136915Y0160648D02*
X0135848Y0159580D01*
X0133713Y0159580D01*
X0132645Y0160648D01*
X0132645Y0162783D01*
X0133713Y0163851D01*
X0135848Y0163851D01*
X0136915Y0162783D01*
X0136915Y0160648D01*
X0140145Y0165986D02*
X0140145Y0167053D01*
X0130470Y0163851D02*
X0127267Y0163851D01*
X0126199Y0162783D01*
X0126199Y0159580D01*
X0130470Y0159580D02*
X0130470Y0163851D01*
X0126186Y0152206D02*
X0127254Y0151139D01*
X0127254Y0145801D01*
X0130496Y0146868D02*
X0130496Y0149004D01*
X0131564Y0150071D01*
X0133699Y0150071D01*
X0134767Y0149004D01*
X0134767Y0146868D01*
X0133699Y0145801D01*
X0131564Y0145801D01*
X0130496Y0146868D01*
X0128321Y0149004D02*
X0126186Y0149004D01*
X0117579Y0151139D02*
X0117579Y0146868D01*
X0116511Y0145801D01*
X0114376Y0145801D01*
X0113308Y0146868D01*
X0111133Y0146868D02*
X0111133Y0150071D01*
X0113308Y0151139D02*
X0114376Y0152206D01*
X0116511Y0152206D01*
X0117579Y0151139D01*
X0111133Y0146868D02*
X0110066Y0145801D01*
X0106863Y0145801D01*
X0106863Y0150071D01*
X0104688Y0152206D02*
X0103620Y0152206D01*
X0103620Y0145801D01*
X0102553Y0145801D02*
X0104688Y0145801D01*
X0099323Y0146868D02*
X0098256Y0145801D01*
X0099323Y0146868D02*
X0099323Y0151139D01*
X0098256Y0150071D02*
X0100391Y0150071D01*
X0096094Y0150071D02*
X0096094Y0146868D01*
X0095026Y0145801D01*
X0091823Y0145801D01*
X0091823Y0150071D01*
X0089648Y0150071D02*
X0089648Y0145801D01*
X0089648Y0147936D02*
X0087513Y0150071D01*
X0086446Y0150071D01*
X0084277Y0149004D02*
X0084277Y0146868D01*
X0083209Y0145801D01*
X0081074Y0145801D01*
X0080007Y0147936D02*
X0084277Y0147936D01*
X0084277Y0149004D02*
X0083209Y0150071D01*
X0081074Y0150071D01*
X0080007Y0149004D01*
X0080007Y0147936D01*
X0113308Y0160648D02*
X0114376Y0159580D01*
X0116511Y0159580D01*
X0117579Y0160648D01*
X0115444Y0162783D02*
X0114376Y0162783D01*
X0113308Y0161715D01*
X0113308Y0160648D01*
X0114376Y0162783D02*
X0113308Y0163851D01*
X0113308Y0164918D01*
X0114376Y0165986D01*
X0116511Y0165986D01*
X0117579Y0164918D01*
X0143381Y0150071D02*
X0144448Y0150071D01*
X0146584Y0147936D01*
X0146584Y0145801D02*
X0146584Y0150071D01*
X0148759Y0149004D02*
X0148759Y0145801D01*
X0151961Y0145801D01*
X0153029Y0146868D01*
X0151961Y0147936D01*
X0148759Y0147936D01*
X0148759Y0149004D02*
X0149826Y0150071D01*
X0151961Y0150071D01*
X0155204Y0149004D02*
X0155204Y0147936D01*
X0159475Y0147936D01*
X0159475Y0146868D02*
X0159475Y0149004D01*
X0158407Y0150071D01*
X0156272Y0150071D01*
X0155204Y0149004D01*
X0156272Y0145801D02*
X0158407Y0145801D01*
X0159475Y0146868D01*
X0163785Y0145801D02*
X0163785Y0149004D01*
X0161650Y0151139D01*
X0161650Y0152206D01*
X0163785Y0149004D02*
X0165920Y0151139D01*
X0165920Y0152206D01*
X0179905Y0163851D02*
X0180973Y0163851D01*
X0183108Y0161715D01*
X0183108Y0159580D02*
X0183108Y0163851D01*
X0185283Y0162783D02*
X0185283Y0161715D01*
X0189554Y0161715D01*
X0189554Y0160648D02*
X0189554Y0162783D01*
X0188486Y0163851D01*
X0186351Y0163851D01*
X0185283Y0162783D01*
X0186351Y0159580D02*
X0188486Y0159580D01*
X0189554Y0160648D01*
X0191715Y0159580D02*
X0192783Y0160648D01*
X0192783Y0164918D01*
X0193851Y0163851D02*
X0191715Y0163851D01*
X0196026Y0163851D02*
X0199228Y0163851D01*
X0200296Y0162783D01*
X0199228Y0161715D01*
X0197093Y0161715D01*
X0196026Y0160648D01*
X0197093Y0159580D01*
X0200296Y0159580D01*
X0202458Y0159580D02*
X0204593Y0159580D01*
X0203525Y0159580D02*
X0203525Y0163851D01*
X0204593Y0163851D01*
X0203525Y0165986D02*
X0203525Y0167053D01*
X0206768Y0164918D02*
X0207836Y0165986D01*
X0209971Y0165986D01*
X0211039Y0164918D01*
X0211039Y0163851D01*
X0209971Y0162783D01*
X0207836Y0162783D01*
X0206768Y0161715D01*
X0206768Y0160648D01*
X0207836Y0159580D01*
X0209971Y0159580D01*
X0211039Y0160648D01*
X0219659Y0161715D02*
X0223930Y0161715D01*
X0223930Y0160648D02*
X0223930Y0162783D01*
X0222862Y0163851D01*
X0220727Y0163851D01*
X0219659Y0162783D01*
X0219659Y0161715D01*
X0220727Y0159580D02*
X0222862Y0159580D01*
X0223930Y0160648D01*
X0226091Y0159580D02*
X0228227Y0159580D01*
X0227159Y0159580D02*
X0227159Y0165986D01*
X0228227Y0165986D01*
X0230388Y0163851D02*
X0232523Y0163851D01*
X0231456Y0164918D02*
X0231456Y0160648D01*
X0230388Y0159580D01*
X0234685Y0159580D02*
X0235753Y0160648D01*
X0235753Y0164918D01*
X0236820Y0163851D02*
X0234685Y0163851D01*
X0240050Y0163851D02*
X0240050Y0159580D01*
X0241117Y0159580D02*
X0238982Y0159580D01*
X0243293Y0159580D02*
X0247563Y0159580D01*
X0247563Y0165986D01*
X0241117Y0163851D02*
X0240050Y0163851D01*
X0240050Y0165986D02*
X0240050Y0167053D01*
X0220713Y0153274D02*
X0220713Y0152206D01*
X0220713Y0150071D02*
X0220713Y0145801D01*
X0219646Y0145801D02*
X0221781Y0145801D01*
X0223956Y0145801D02*
X0227159Y0145801D01*
X0228227Y0146868D01*
X0228227Y0149004D01*
X0227159Y0150071D01*
X0223956Y0150071D01*
X0223956Y0152206D02*
X0223956Y0145801D01*
X0221781Y0150071D02*
X0220713Y0150071D01*
X0217484Y0150071D02*
X0217484Y0145801D01*
X0213214Y0145801D02*
X0213214Y0149004D01*
X0214281Y0150071D01*
X0217484Y0150071D01*
X0211039Y0149004D02*
X0211039Y0146868D01*
X0209971Y0145801D01*
X0206768Y0145801D01*
X0206768Y0144733D02*
X0206768Y0150071D01*
X0209971Y0150071D01*
X0211039Y0149004D01*
X0206768Y0144733D02*
X0207836Y0143666D01*
X0208903Y0143666D01*
X0208890Y0136292D02*
X0208890Y0133089D01*
X0211052Y0136292D02*
X0213187Y0136292D01*
X0220727Y0129886D02*
X0221794Y0129886D01*
X0226105Y0132021D02*
X0226105Y0135224D01*
X0227172Y0136292D01*
X0230375Y0136292D01*
X0230375Y0132021D01*
X0232537Y0132021D02*
X0234672Y0132021D01*
X0233604Y0132021D02*
X0233604Y0136292D01*
X0234672Y0136292D01*
X0233604Y0138427D02*
X0233604Y0139494D01*
X0236847Y0135224D02*
X0236847Y0132021D01*
X0236847Y0135224D02*
X0237915Y0136292D01*
X0240050Y0136292D01*
X0241117Y0135224D01*
X0241117Y0138427D02*
X0241117Y0132021D01*
X0245428Y0132021D02*
X0245428Y0138427D01*
X0247563Y0138427D02*
X0243293Y0138427D01*
X0243293Y0145801D02*
X0245428Y0147936D01*
X0244360Y0147936D02*
X0247563Y0147936D01*
X0247563Y0145801D02*
X0247563Y0152206D01*
X0244360Y0152206D01*
X0243293Y0151139D01*
X0243293Y0149004D01*
X0244360Y0147936D01*
X0241117Y0147936D02*
X0236847Y0147936D01*
X0236847Y0149004D01*
X0237915Y0150071D01*
X0240050Y0150071D01*
X0241117Y0149004D01*
X0241117Y0146868D01*
X0240050Y0145801D01*
X0237915Y0145801D01*
X0234672Y0146868D02*
X0233604Y0147936D01*
X0230402Y0147936D01*
X0230402Y0149004D02*
X0230402Y0145801D01*
X0233604Y0145801D01*
X0234672Y0146868D01*
X0233604Y0150071D02*
X0231469Y0150071D01*
X0230402Y0149004D01*
X0198148Y0151139D02*
X0197080Y0152206D01*
X0194945Y0152206D01*
X0193877Y0151139D01*
X0193877Y0150071D01*
X0198148Y0145801D01*
X0193877Y0145801D01*
X0191702Y0146868D02*
X0187432Y0151139D01*
X0187432Y0146868D01*
X0188499Y0145801D01*
X0190634Y0145801D01*
X0191702Y0146868D01*
X0191702Y0151139D01*
X0190634Y0152206D01*
X0188499Y0152206D01*
X0187432Y0151139D01*
X0185257Y0150071D02*
X0183121Y0152206D01*
X0183121Y0145801D01*
X0180986Y0145801D02*
X0185257Y0145801D01*
X0183108Y0138427D02*
X0183108Y0132021D01*
X0150887Y0165986D02*
X0150887Y0167053D01*
M02*
