G75*
%MOIN*%
%OFA0B0*%
%FSLAX25Y25*%
%IPPOS*%
%LPD*%
%AMOC8*
5,1,8,0,0,1.08239X$1,22.5*
%
%ADD10C,0.01600*%
%ADD11C,0.00000*%
%ADD12R,0.11811X0.03937*%
%ADD13C,0.05000*%
%ADD14OC8,0.06000*%
%ADD15R,0.04000X0.08858*%
%ADD16R,0.08858X0.04000*%
%ADD17OC8,0.06600*%
%ADD18OC8,0.05200*%
%ADD19R,0.08600X0.08600*%
%ADD20OC8,0.06800*%
%ADD21C,0.04756*%
%ADD22C,0.05200*%
%ADD23C,0.00600*%
%ADD24C,0.03600*%
%ADD25C,0.00504*%
D10*
X0017548Y0001800D02*
X0241957Y0001800D01*
X0242338Y0001805D01*
X0242718Y0001818D01*
X0243098Y0001841D01*
X0243477Y0001874D01*
X0243855Y0001915D01*
X0244232Y0001965D01*
X0244608Y0002025D01*
X0244983Y0002093D01*
X0245355Y0002171D01*
X0245726Y0002258D01*
X0246094Y0002353D01*
X0246460Y0002458D01*
X0246823Y0002571D01*
X0247184Y0002693D01*
X0247541Y0002823D01*
X0247895Y0002963D01*
X0248246Y0003110D01*
X0248593Y0003267D01*
X0248936Y0003431D01*
X0249275Y0003604D01*
X0249610Y0003785D01*
X0249941Y0003974D01*
X0250266Y0004171D01*
X0250587Y0004375D01*
X0250903Y0004588D01*
X0251213Y0004808D01*
X0251519Y0005035D01*
X0251818Y0005270D01*
X0252112Y0005512D01*
X0252400Y0005760D01*
X0252682Y0006016D01*
X0252957Y0006279D01*
X0253226Y0006548D01*
X0253489Y0006823D01*
X0253745Y0007105D01*
X0253993Y0007393D01*
X0254235Y0007687D01*
X0254470Y0007986D01*
X0254697Y0008292D01*
X0254917Y0008602D01*
X0255130Y0008918D01*
X0255334Y0009239D01*
X0255531Y0009564D01*
X0255720Y0009895D01*
X0255901Y0010230D01*
X0256074Y0010569D01*
X0256238Y0010912D01*
X0256395Y0011259D01*
X0256542Y0011610D01*
X0256682Y0011964D01*
X0256812Y0012321D01*
X0256934Y0012682D01*
X0257047Y0013045D01*
X0257152Y0013411D01*
X0257247Y0013779D01*
X0257334Y0014150D01*
X0257412Y0014522D01*
X0257480Y0014897D01*
X0257540Y0015273D01*
X0257590Y0015650D01*
X0257631Y0016028D01*
X0257664Y0016407D01*
X0257687Y0016787D01*
X0257700Y0017167D01*
X0257705Y0017548D01*
X0257706Y0017548D02*
X0257706Y0208493D01*
X0257705Y0208493D02*
X0257700Y0208874D01*
X0257687Y0209254D01*
X0257664Y0209634D01*
X0257631Y0210013D01*
X0257590Y0210391D01*
X0257540Y0210768D01*
X0257480Y0211144D01*
X0257412Y0211519D01*
X0257334Y0211891D01*
X0257247Y0212262D01*
X0257152Y0212630D01*
X0257047Y0212996D01*
X0256934Y0213359D01*
X0256812Y0213720D01*
X0256682Y0214077D01*
X0256542Y0214431D01*
X0256395Y0214782D01*
X0256238Y0215129D01*
X0256074Y0215472D01*
X0255901Y0215811D01*
X0255720Y0216146D01*
X0255531Y0216477D01*
X0255334Y0216802D01*
X0255130Y0217123D01*
X0254917Y0217439D01*
X0254697Y0217749D01*
X0254470Y0218055D01*
X0254235Y0218354D01*
X0253993Y0218648D01*
X0253745Y0218936D01*
X0253489Y0219218D01*
X0253226Y0219493D01*
X0252957Y0219762D01*
X0252682Y0220025D01*
X0252400Y0220281D01*
X0252112Y0220529D01*
X0251818Y0220771D01*
X0251519Y0221006D01*
X0251213Y0221233D01*
X0250903Y0221453D01*
X0250587Y0221666D01*
X0250266Y0221870D01*
X0249941Y0222067D01*
X0249610Y0222256D01*
X0249275Y0222437D01*
X0248936Y0222610D01*
X0248593Y0222774D01*
X0248246Y0222931D01*
X0247895Y0223078D01*
X0247541Y0223218D01*
X0247184Y0223348D01*
X0246823Y0223470D01*
X0246460Y0223583D01*
X0246094Y0223688D01*
X0245726Y0223783D01*
X0245355Y0223870D01*
X0244983Y0223948D01*
X0244608Y0224016D01*
X0244232Y0224076D01*
X0243855Y0224126D01*
X0243477Y0224167D01*
X0243098Y0224200D01*
X0242718Y0224223D01*
X0242338Y0224236D01*
X0241957Y0224241D01*
X0017548Y0224241D01*
X0017167Y0224236D01*
X0016787Y0224223D01*
X0016407Y0224200D01*
X0016028Y0224167D01*
X0015650Y0224126D01*
X0015273Y0224076D01*
X0014897Y0224016D01*
X0014522Y0223948D01*
X0014150Y0223870D01*
X0013779Y0223783D01*
X0013411Y0223688D01*
X0013045Y0223583D01*
X0012682Y0223470D01*
X0012321Y0223348D01*
X0011964Y0223218D01*
X0011610Y0223078D01*
X0011259Y0222931D01*
X0010912Y0222774D01*
X0010569Y0222610D01*
X0010230Y0222437D01*
X0009895Y0222256D01*
X0009564Y0222067D01*
X0009239Y0221870D01*
X0008918Y0221666D01*
X0008602Y0221453D01*
X0008292Y0221233D01*
X0007986Y0221006D01*
X0007687Y0220771D01*
X0007393Y0220529D01*
X0007105Y0220281D01*
X0006823Y0220025D01*
X0006548Y0219762D01*
X0006279Y0219493D01*
X0006016Y0219218D01*
X0005760Y0218936D01*
X0005512Y0218648D01*
X0005270Y0218354D01*
X0005035Y0218055D01*
X0004808Y0217749D01*
X0004588Y0217439D01*
X0004375Y0217123D01*
X0004171Y0216802D01*
X0003974Y0216477D01*
X0003785Y0216146D01*
X0003604Y0215811D01*
X0003431Y0215472D01*
X0003267Y0215129D01*
X0003110Y0214782D01*
X0002963Y0214431D01*
X0002823Y0214077D01*
X0002693Y0213720D01*
X0002571Y0213359D01*
X0002458Y0212996D01*
X0002353Y0212630D01*
X0002258Y0212262D01*
X0002171Y0211891D01*
X0002093Y0211519D01*
X0002025Y0211144D01*
X0001965Y0210768D01*
X0001915Y0210391D01*
X0001874Y0210013D01*
X0001841Y0209634D01*
X0001818Y0209254D01*
X0001805Y0208874D01*
X0001800Y0208493D01*
X0001800Y0017548D01*
X0001805Y0017167D01*
X0001818Y0016787D01*
X0001841Y0016407D01*
X0001874Y0016028D01*
X0001915Y0015650D01*
X0001965Y0015273D01*
X0002025Y0014897D01*
X0002093Y0014522D01*
X0002171Y0014150D01*
X0002258Y0013779D01*
X0002353Y0013411D01*
X0002458Y0013045D01*
X0002571Y0012682D01*
X0002693Y0012321D01*
X0002823Y0011964D01*
X0002963Y0011610D01*
X0003110Y0011259D01*
X0003267Y0010912D01*
X0003431Y0010569D01*
X0003604Y0010230D01*
X0003785Y0009895D01*
X0003974Y0009564D01*
X0004171Y0009239D01*
X0004375Y0008918D01*
X0004588Y0008602D01*
X0004808Y0008292D01*
X0005035Y0007986D01*
X0005270Y0007687D01*
X0005512Y0007393D01*
X0005760Y0007105D01*
X0006016Y0006823D01*
X0006279Y0006548D01*
X0006548Y0006279D01*
X0006823Y0006016D01*
X0007105Y0005760D01*
X0007393Y0005512D01*
X0007687Y0005270D01*
X0007986Y0005035D01*
X0008292Y0004808D01*
X0008602Y0004588D01*
X0008918Y0004375D01*
X0009239Y0004171D01*
X0009564Y0003974D01*
X0009895Y0003785D01*
X0010230Y0003604D01*
X0010569Y0003431D01*
X0010912Y0003267D01*
X0011259Y0003110D01*
X0011610Y0002963D01*
X0011964Y0002823D01*
X0012321Y0002693D01*
X0012682Y0002571D01*
X0013045Y0002458D01*
X0013411Y0002353D01*
X0013779Y0002258D01*
X0014150Y0002171D01*
X0014522Y0002093D01*
X0014897Y0002025D01*
X0015273Y0001965D01*
X0015650Y0001915D01*
X0016028Y0001874D01*
X0016407Y0001841D01*
X0016787Y0001818D01*
X0017167Y0001805D01*
X0017548Y0001800D01*
X0013611Y0151406D02*
X0013611Y0157312D01*
X0029359Y0157312D01*
D11*
X0012036Y0017548D02*
X0012038Y0017696D01*
X0012044Y0017844D01*
X0012054Y0017992D01*
X0012068Y0018139D01*
X0012086Y0018286D01*
X0012107Y0018432D01*
X0012133Y0018578D01*
X0012163Y0018723D01*
X0012196Y0018867D01*
X0012234Y0019010D01*
X0012275Y0019152D01*
X0012320Y0019293D01*
X0012368Y0019433D01*
X0012421Y0019572D01*
X0012477Y0019709D01*
X0012537Y0019844D01*
X0012600Y0019978D01*
X0012667Y0020110D01*
X0012738Y0020240D01*
X0012812Y0020368D01*
X0012889Y0020494D01*
X0012970Y0020618D01*
X0013054Y0020740D01*
X0013141Y0020859D01*
X0013232Y0020976D01*
X0013326Y0021091D01*
X0013422Y0021203D01*
X0013522Y0021313D01*
X0013624Y0021419D01*
X0013730Y0021523D01*
X0013838Y0021624D01*
X0013949Y0021722D01*
X0014062Y0021818D01*
X0014178Y0021910D01*
X0014296Y0021999D01*
X0014417Y0022084D01*
X0014540Y0022167D01*
X0014665Y0022246D01*
X0014792Y0022322D01*
X0014921Y0022394D01*
X0015052Y0022463D01*
X0015185Y0022528D01*
X0015320Y0022589D01*
X0015456Y0022647D01*
X0015593Y0022702D01*
X0015732Y0022752D01*
X0015873Y0022799D01*
X0016014Y0022842D01*
X0016157Y0022882D01*
X0016301Y0022917D01*
X0016445Y0022949D01*
X0016591Y0022976D01*
X0016737Y0023000D01*
X0016884Y0023020D01*
X0017031Y0023036D01*
X0017178Y0023048D01*
X0017326Y0023056D01*
X0017474Y0023060D01*
X0017622Y0023060D01*
X0017770Y0023056D01*
X0017918Y0023048D01*
X0018065Y0023036D01*
X0018212Y0023020D01*
X0018359Y0023000D01*
X0018505Y0022976D01*
X0018651Y0022949D01*
X0018795Y0022917D01*
X0018939Y0022882D01*
X0019082Y0022842D01*
X0019223Y0022799D01*
X0019364Y0022752D01*
X0019503Y0022702D01*
X0019640Y0022647D01*
X0019776Y0022589D01*
X0019911Y0022528D01*
X0020044Y0022463D01*
X0020175Y0022394D01*
X0020304Y0022322D01*
X0020431Y0022246D01*
X0020556Y0022167D01*
X0020679Y0022084D01*
X0020800Y0021999D01*
X0020918Y0021910D01*
X0021034Y0021818D01*
X0021147Y0021722D01*
X0021258Y0021624D01*
X0021366Y0021523D01*
X0021472Y0021419D01*
X0021574Y0021313D01*
X0021674Y0021203D01*
X0021770Y0021091D01*
X0021864Y0020976D01*
X0021955Y0020859D01*
X0022042Y0020740D01*
X0022126Y0020618D01*
X0022207Y0020494D01*
X0022284Y0020368D01*
X0022358Y0020240D01*
X0022429Y0020110D01*
X0022496Y0019978D01*
X0022559Y0019844D01*
X0022619Y0019709D01*
X0022675Y0019572D01*
X0022728Y0019433D01*
X0022776Y0019293D01*
X0022821Y0019152D01*
X0022862Y0019010D01*
X0022900Y0018867D01*
X0022933Y0018723D01*
X0022963Y0018578D01*
X0022989Y0018432D01*
X0023010Y0018286D01*
X0023028Y0018139D01*
X0023042Y0017992D01*
X0023052Y0017844D01*
X0023058Y0017696D01*
X0023060Y0017548D01*
X0023058Y0017400D01*
X0023052Y0017252D01*
X0023042Y0017104D01*
X0023028Y0016957D01*
X0023010Y0016810D01*
X0022989Y0016664D01*
X0022963Y0016518D01*
X0022933Y0016373D01*
X0022900Y0016229D01*
X0022862Y0016086D01*
X0022821Y0015944D01*
X0022776Y0015803D01*
X0022728Y0015663D01*
X0022675Y0015524D01*
X0022619Y0015387D01*
X0022559Y0015252D01*
X0022496Y0015118D01*
X0022429Y0014986D01*
X0022358Y0014856D01*
X0022284Y0014728D01*
X0022207Y0014602D01*
X0022126Y0014478D01*
X0022042Y0014356D01*
X0021955Y0014237D01*
X0021864Y0014120D01*
X0021770Y0014005D01*
X0021674Y0013893D01*
X0021574Y0013783D01*
X0021472Y0013677D01*
X0021366Y0013573D01*
X0021258Y0013472D01*
X0021147Y0013374D01*
X0021034Y0013278D01*
X0020918Y0013186D01*
X0020800Y0013097D01*
X0020679Y0013012D01*
X0020556Y0012929D01*
X0020431Y0012850D01*
X0020304Y0012774D01*
X0020175Y0012702D01*
X0020044Y0012633D01*
X0019911Y0012568D01*
X0019776Y0012507D01*
X0019640Y0012449D01*
X0019503Y0012394D01*
X0019364Y0012344D01*
X0019223Y0012297D01*
X0019082Y0012254D01*
X0018939Y0012214D01*
X0018795Y0012179D01*
X0018651Y0012147D01*
X0018505Y0012120D01*
X0018359Y0012096D01*
X0018212Y0012076D01*
X0018065Y0012060D01*
X0017918Y0012048D01*
X0017770Y0012040D01*
X0017622Y0012036D01*
X0017474Y0012036D01*
X0017326Y0012040D01*
X0017178Y0012048D01*
X0017031Y0012060D01*
X0016884Y0012076D01*
X0016737Y0012096D01*
X0016591Y0012120D01*
X0016445Y0012147D01*
X0016301Y0012179D01*
X0016157Y0012214D01*
X0016014Y0012254D01*
X0015873Y0012297D01*
X0015732Y0012344D01*
X0015593Y0012394D01*
X0015456Y0012449D01*
X0015320Y0012507D01*
X0015185Y0012568D01*
X0015052Y0012633D01*
X0014921Y0012702D01*
X0014792Y0012774D01*
X0014665Y0012850D01*
X0014540Y0012929D01*
X0014417Y0013012D01*
X0014296Y0013097D01*
X0014178Y0013186D01*
X0014062Y0013278D01*
X0013949Y0013374D01*
X0013838Y0013472D01*
X0013730Y0013573D01*
X0013624Y0013677D01*
X0013522Y0013783D01*
X0013422Y0013893D01*
X0013326Y0014005D01*
X0013232Y0014120D01*
X0013141Y0014237D01*
X0013054Y0014356D01*
X0012970Y0014478D01*
X0012889Y0014602D01*
X0012812Y0014728D01*
X0012738Y0014856D01*
X0012667Y0014986D01*
X0012600Y0015118D01*
X0012537Y0015252D01*
X0012477Y0015387D01*
X0012421Y0015524D01*
X0012368Y0015663D01*
X0012320Y0015803D01*
X0012275Y0015944D01*
X0012234Y0016086D01*
X0012196Y0016229D01*
X0012163Y0016373D01*
X0012133Y0016518D01*
X0012107Y0016664D01*
X0012086Y0016810D01*
X0012068Y0016957D01*
X0012054Y0017104D01*
X0012044Y0017252D01*
X0012038Y0017400D01*
X0012036Y0017548D01*
X0240382Y0017548D02*
X0240384Y0017696D01*
X0240390Y0017844D01*
X0240400Y0017992D01*
X0240414Y0018139D01*
X0240432Y0018286D01*
X0240453Y0018432D01*
X0240479Y0018578D01*
X0240509Y0018723D01*
X0240542Y0018867D01*
X0240580Y0019010D01*
X0240621Y0019152D01*
X0240666Y0019293D01*
X0240714Y0019433D01*
X0240767Y0019572D01*
X0240823Y0019709D01*
X0240883Y0019844D01*
X0240946Y0019978D01*
X0241013Y0020110D01*
X0241084Y0020240D01*
X0241158Y0020368D01*
X0241235Y0020494D01*
X0241316Y0020618D01*
X0241400Y0020740D01*
X0241487Y0020859D01*
X0241578Y0020976D01*
X0241672Y0021091D01*
X0241768Y0021203D01*
X0241868Y0021313D01*
X0241970Y0021419D01*
X0242076Y0021523D01*
X0242184Y0021624D01*
X0242295Y0021722D01*
X0242408Y0021818D01*
X0242524Y0021910D01*
X0242642Y0021999D01*
X0242763Y0022084D01*
X0242886Y0022167D01*
X0243011Y0022246D01*
X0243138Y0022322D01*
X0243267Y0022394D01*
X0243398Y0022463D01*
X0243531Y0022528D01*
X0243666Y0022589D01*
X0243802Y0022647D01*
X0243939Y0022702D01*
X0244078Y0022752D01*
X0244219Y0022799D01*
X0244360Y0022842D01*
X0244503Y0022882D01*
X0244647Y0022917D01*
X0244791Y0022949D01*
X0244937Y0022976D01*
X0245083Y0023000D01*
X0245230Y0023020D01*
X0245377Y0023036D01*
X0245524Y0023048D01*
X0245672Y0023056D01*
X0245820Y0023060D01*
X0245968Y0023060D01*
X0246116Y0023056D01*
X0246264Y0023048D01*
X0246411Y0023036D01*
X0246558Y0023020D01*
X0246705Y0023000D01*
X0246851Y0022976D01*
X0246997Y0022949D01*
X0247141Y0022917D01*
X0247285Y0022882D01*
X0247428Y0022842D01*
X0247569Y0022799D01*
X0247710Y0022752D01*
X0247849Y0022702D01*
X0247986Y0022647D01*
X0248122Y0022589D01*
X0248257Y0022528D01*
X0248390Y0022463D01*
X0248521Y0022394D01*
X0248650Y0022322D01*
X0248777Y0022246D01*
X0248902Y0022167D01*
X0249025Y0022084D01*
X0249146Y0021999D01*
X0249264Y0021910D01*
X0249380Y0021818D01*
X0249493Y0021722D01*
X0249604Y0021624D01*
X0249712Y0021523D01*
X0249818Y0021419D01*
X0249920Y0021313D01*
X0250020Y0021203D01*
X0250116Y0021091D01*
X0250210Y0020976D01*
X0250301Y0020859D01*
X0250388Y0020740D01*
X0250472Y0020618D01*
X0250553Y0020494D01*
X0250630Y0020368D01*
X0250704Y0020240D01*
X0250775Y0020110D01*
X0250842Y0019978D01*
X0250905Y0019844D01*
X0250965Y0019709D01*
X0251021Y0019572D01*
X0251074Y0019433D01*
X0251122Y0019293D01*
X0251167Y0019152D01*
X0251208Y0019010D01*
X0251246Y0018867D01*
X0251279Y0018723D01*
X0251309Y0018578D01*
X0251335Y0018432D01*
X0251356Y0018286D01*
X0251374Y0018139D01*
X0251388Y0017992D01*
X0251398Y0017844D01*
X0251404Y0017696D01*
X0251406Y0017548D01*
X0251404Y0017400D01*
X0251398Y0017252D01*
X0251388Y0017104D01*
X0251374Y0016957D01*
X0251356Y0016810D01*
X0251335Y0016664D01*
X0251309Y0016518D01*
X0251279Y0016373D01*
X0251246Y0016229D01*
X0251208Y0016086D01*
X0251167Y0015944D01*
X0251122Y0015803D01*
X0251074Y0015663D01*
X0251021Y0015524D01*
X0250965Y0015387D01*
X0250905Y0015252D01*
X0250842Y0015118D01*
X0250775Y0014986D01*
X0250704Y0014856D01*
X0250630Y0014728D01*
X0250553Y0014602D01*
X0250472Y0014478D01*
X0250388Y0014356D01*
X0250301Y0014237D01*
X0250210Y0014120D01*
X0250116Y0014005D01*
X0250020Y0013893D01*
X0249920Y0013783D01*
X0249818Y0013677D01*
X0249712Y0013573D01*
X0249604Y0013472D01*
X0249493Y0013374D01*
X0249380Y0013278D01*
X0249264Y0013186D01*
X0249146Y0013097D01*
X0249025Y0013012D01*
X0248902Y0012929D01*
X0248777Y0012850D01*
X0248650Y0012774D01*
X0248521Y0012702D01*
X0248390Y0012633D01*
X0248257Y0012568D01*
X0248122Y0012507D01*
X0247986Y0012449D01*
X0247849Y0012394D01*
X0247710Y0012344D01*
X0247569Y0012297D01*
X0247428Y0012254D01*
X0247285Y0012214D01*
X0247141Y0012179D01*
X0246997Y0012147D01*
X0246851Y0012120D01*
X0246705Y0012096D01*
X0246558Y0012076D01*
X0246411Y0012060D01*
X0246264Y0012048D01*
X0246116Y0012040D01*
X0245968Y0012036D01*
X0245820Y0012036D01*
X0245672Y0012040D01*
X0245524Y0012048D01*
X0245377Y0012060D01*
X0245230Y0012076D01*
X0245083Y0012096D01*
X0244937Y0012120D01*
X0244791Y0012147D01*
X0244647Y0012179D01*
X0244503Y0012214D01*
X0244360Y0012254D01*
X0244219Y0012297D01*
X0244078Y0012344D01*
X0243939Y0012394D01*
X0243802Y0012449D01*
X0243666Y0012507D01*
X0243531Y0012568D01*
X0243398Y0012633D01*
X0243267Y0012702D01*
X0243138Y0012774D01*
X0243011Y0012850D01*
X0242886Y0012929D01*
X0242763Y0013012D01*
X0242642Y0013097D01*
X0242524Y0013186D01*
X0242408Y0013278D01*
X0242295Y0013374D01*
X0242184Y0013472D01*
X0242076Y0013573D01*
X0241970Y0013677D01*
X0241868Y0013783D01*
X0241768Y0013893D01*
X0241672Y0014005D01*
X0241578Y0014120D01*
X0241487Y0014237D01*
X0241400Y0014356D01*
X0241316Y0014478D01*
X0241235Y0014602D01*
X0241158Y0014728D01*
X0241084Y0014856D01*
X0241013Y0014986D01*
X0240946Y0015118D01*
X0240883Y0015252D01*
X0240823Y0015387D01*
X0240767Y0015524D01*
X0240714Y0015663D01*
X0240666Y0015803D01*
X0240621Y0015944D01*
X0240580Y0016086D01*
X0240542Y0016229D01*
X0240509Y0016373D01*
X0240479Y0016518D01*
X0240453Y0016664D01*
X0240432Y0016810D01*
X0240414Y0016957D01*
X0240400Y0017104D01*
X0240390Y0017252D01*
X0240384Y0017400D01*
X0240382Y0017548D01*
D12*
X0013611Y0151406D03*
X0013611Y0214398D03*
D13*
X0009674Y0017548D02*
X0009676Y0017741D01*
X0009683Y0017934D01*
X0009695Y0018127D01*
X0009712Y0018320D01*
X0009733Y0018512D01*
X0009759Y0018703D01*
X0009790Y0018894D01*
X0009825Y0019084D01*
X0009865Y0019273D01*
X0009910Y0019461D01*
X0009959Y0019648D01*
X0010013Y0019834D01*
X0010071Y0020018D01*
X0010134Y0020201D01*
X0010202Y0020382D01*
X0010273Y0020561D01*
X0010350Y0020739D01*
X0010430Y0020915D01*
X0010515Y0021088D01*
X0010604Y0021260D01*
X0010697Y0021429D01*
X0010794Y0021596D01*
X0010896Y0021761D01*
X0011001Y0021923D01*
X0011110Y0022082D01*
X0011224Y0022239D01*
X0011341Y0022392D01*
X0011461Y0022543D01*
X0011586Y0022691D01*
X0011714Y0022836D01*
X0011845Y0022977D01*
X0011980Y0023116D01*
X0012119Y0023251D01*
X0012260Y0023382D01*
X0012405Y0023510D01*
X0012553Y0023635D01*
X0012704Y0023755D01*
X0012857Y0023872D01*
X0013014Y0023986D01*
X0013173Y0024095D01*
X0013335Y0024200D01*
X0013500Y0024302D01*
X0013667Y0024399D01*
X0013836Y0024492D01*
X0014008Y0024581D01*
X0014181Y0024666D01*
X0014357Y0024746D01*
X0014535Y0024823D01*
X0014714Y0024894D01*
X0014895Y0024962D01*
X0015078Y0025025D01*
X0015262Y0025083D01*
X0015448Y0025137D01*
X0015635Y0025186D01*
X0015823Y0025231D01*
X0016012Y0025271D01*
X0016202Y0025306D01*
X0016393Y0025337D01*
X0016584Y0025363D01*
X0016776Y0025384D01*
X0016969Y0025401D01*
X0017162Y0025413D01*
X0017355Y0025420D01*
X0017548Y0025422D01*
X0017741Y0025420D01*
X0017934Y0025413D01*
X0018127Y0025401D01*
X0018320Y0025384D01*
X0018512Y0025363D01*
X0018703Y0025337D01*
X0018894Y0025306D01*
X0019084Y0025271D01*
X0019273Y0025231D01*
X0019461Y0025186D01*
X0019648Y0025137D01*
X0019834Y0025083D01*
X0020018Y0025025D01*
X0020201Y0024962D01*
X0020382Y0024894D01*
X0020561Y0024823D01*
X0020739Y0024746D01*
X0020915Y0024666D01*
X0021088Y0024581D01*
X0021260Y0024492D01*
X0021429Y0024399D01*
X0021596Y0024302D01*
X0021761Y0024200D01*
X0021923Y0024095D01*
X0022082Y0023986D01*
X0022239Y0023872D01*
X0022392Y0023755D01*
X0022543Y0023635D01*
X0022691Y0023510D01*
X0022836Y0023382D01*
X0022977Y0023251D01*
X0023116Y0023116D01*
X0023251Y0022977D01*
X0023382Y0022836D01*
X0023510Y0022691D01*
X0023635Y0022543D01*
X0023755Y0022392D01*
X0023872Y0022239D01*
X0023986Y0022082D01*
X0024095Y0021923D01*
X0024200Y0021761D01*
X0024302Y0021596D01*
X0024399Y0021429D01*
X0024492Y0021260D01*
X0024581Y0021088D01*
X0024666Y0020915D01*
X0024746Y0020739D01*
X0024823Y0020561D01*
X0024894Y0020382D01*
X0024962Y0020201D01*
X0025025Y0020018D01*
X0025083Y0019834D01*
X0025137Y0019648D01*
X0025186Y0019461D01*
X0025231Y0019273D01*
X0025271Y0019084D01*
X0025306Y0018894D01*
X0025337Y0018703D01*
X0025363Y0018512D01*
X0025384Y0018320D01*
X0025401Y0018127D01*
X0025413Y0017934D01*
X0025420Y0017741D01*
X0025422Y0017548D01*
X0025420Y0017355D01*
X0025413Y0017162D01*
X0025401Y0016969D01*
X0025384Y0016776D01*
X0025363Y0016584D01*
X0025337Y0016393D01*
X0025306Y0016202D01*
X0025271Y0016012D01*
X0025231Y0015823D01*
X0025186Y0015635D01*
X0025137Y0015448D01*
X0025083Y0015262D01*
X0025025Y0015078D01*
X0024962Y0014895D01*
X0024894Y0014714D01*
X0024823Y0014535D01*
X0024746Y0014357D01*
X0024666Y0014181D01*
X0024581Y0014008D01*
X0024492Y0013836D01*
X0024399Y0013667D01*
X0024302Y0013500D01*
X0024200Y0013335D01*
X0024095Y0013173D01*
X0023986Y0013014D01*
X0023872Y0012857D01*
X0023755Y0012704D01*
X0023635Y0012553D01*
X0023510Y0012405D01*
X0023382Y0012260D01*
X0023251Y0012119D01*
X0023116Y0011980D01*
X0022977Y0011845D01*
X0022836Y0011714D01*
X0022691Y0011586D01*
X0022543Y0011461D01*
X0022392Y0011341D01*
X0022239Y0011224D01*
X0022082Y0011110D01*
X0021923Y0011001D01*
X0021761Y0010896D01*
X0021596Y0010794D01*
X0021429Y0010697D01*
X0021260Y0010604D01*
X0021088Y0010515D01*
X0020915Y0010430D01*
X0020739Y0010350D01*
X0020561Y0010273D01*
X0020382Y0010202D01*
X0020201Y0010134D01*
X0020018Y0010071D01*
X0019834Y0010013D01*
X0019648Y0009959D01*
X0019461Y0009910D01*
X0019273Y0009865D01*
X0019084Y0009825D01*
X0018894Y0009790D01*
X0018703Y0009759D01*
X0018512Y0009733D01*
X0018320Y0009712D01*
X0018127Y0009695D01*
X0017934Y0009683D01*
X0017741Y0009676D01*
X0017548Y0009674D01*
X0017355Y0009676D01*
X0017162Y0009683D01*
X0016969Y0009695D01*
X0016776Y0009712D01*
X0016584Y0009733D01*
X0016393Y0009759D01*
X0016202Y0009790D01*
X0016012Y0009825D01*
X0015823Y0009865D01*
X0015635Y0009910D01*
X0015448Y0009959D01*
X0015262Y0010013D01*
X0015078Y0010071D01*
X0014895Y0010134D01*
X0014714Y0010202D01*
X0014535Y0010273D01*
X0014357Y0010350D01*
X0014181Y0010430D01*
X0014008Y0010515D01*
X0013836Y0010604D01*
X0013667Y0010697D01*
X0013500Y0010794D01*
X0013335Y0010896D01*
X0013173Y0011001D01*
X0013014Y0011110D01*
X0012857Y0011224D01*
X0012704Y0011341D01*
X0012553Y0011461D01*
X0012405Y0011586D01*
X0012260Y0011714D01*
X0012119Y0011845D01*
X0011980Y0011980D01*
X0011845Y0012119D01*
X0011714Y0012260D01*
X0011586Y0012405D01*
X0011461Y0012553D01*
X0011341Y0012704D01*
X0011224Y0012857D01*
X0011110Y0013014D01*
X0011001Y0013173D01*
X0010896Y0013335D01*
X0010794Y0013500D01*
X0010697Y0013667D01*
X0010604Y0013836D01*
X0010515Y0014008D01*
X0010430Y0014181D01*
X0010350Y0014357D01*
X0010273Y0014535D01*
X0010202Y0014714D01*
X0010134Y0014895D01*
X0010071Y0015078D01*
X0010013Y0015262D01*
X0009959Y0015448D01*
X0009910Y0015635D01*
X0009865Y0015823D01*
X0009825Y0016012D01*
X0009790Y0016202D01*
X0009759Y0016393D01*
X0009733Y0016584D01*
X0009712Y0016776D01*
X0009695Y0016969D01*
X0009683Y0017162D01*
X0009676Y0017355D01*
X0009674Y0017548D01*
X0009676Y0017741D01*
X0009683Y0017934D01*
X0009695Y0018127D01*
X0009712Y0018320D01*
X0009733Y0018512D01*
X0009759Y0018703D01*
X0009790Y0018894D01*
X0009825Y0019084D01*
X0009865Y0019273D01*
X0009910Y0019461D01*
X0009959Y0019648D01*
X0010013Y0019834D01*
X0010071Y0020018D01*
X0010134Y0020201D01*
X0010202Y0020382D01*
X0010273Y0020561D01*
X0010350Y0020739D01*
X0010430Y0020915D01*
X0010515Y0021088D01*
X0010604Y0021260D01*
X0010697Y0021429D01*
X0010794Y0021596D01*
X0010896Y0021761D01*
X0011001Y0021923D01*
X0011110Y0022082D01*
X0011224Y0022239D01*
X0011341Y0022392D01*
X0011461Y0022543D01*
X0011586Y0022691D01*
X0011714Y0022836D01*
X0011845Y0022977D01*
X0011980Y0023116D01*
X0012119Y0023251D01*
X0012260Y0023382D01*
X0012405Y0023510D01*
X0012553Y0023635D01*
X0012704Y0023755D01*
X0012857Y0023872D01*
X0013014Y0023986D01*
X0013173Y0024095D01*
X0013335Y0024200D01*
X0013500Y0024302D01*
X0013667Y0024399D01*
X0013836Y0024492D01*
X0014008Y0024581D01*
X0014181Y0024666D01*
X0014357Y0024746D01*
X0014535Y0024823D01*
X0014714Y0024894D01*
X0014895Y0024962D01*
X0015078Y0025025D01*
X0015262Y0025083D01*
X0015448Y0025137D01*
X0015635Y0025186D01*
X0015823Y0025231D01*
X0016012Y0025271D01*
X0016202Y0025306D01*
X0016393Y0025337D01*
X0016584Y0025363D01*
X0016776Y0025384D01*
X0016969Y0025401D01*
X0017162Y0025413D01*
X0017355Y0025420D01*
X0017548Y0025422D01*
X0017741Y0025420D01*
X0017934Y0025413D01*
X0018127Y0025401D01*
X0018320Y0025384D01*
X0018512Y0025363D01*
X0018703Y0025337D01*
X0018894Y0025306D01*
X0019084Y0025271D01*
X0019273Y0025231D01*
X0019461Y0025186D01*
X0019648Y0025137D01*
X0019834Y0025083D01*
X0020018Y0025025D01*
X0020201Y0024962D01*
X0020382Y0024894D01*
X0020561Y0024823D01*
X0020739Y0024746D01*
X0020915Y0024666D01*
X0021088Y0024581D01*
X0021260Y0024492D01*
X0021429Y0024399D01*
X0021596Y0024302D01*
X0021761Y0024200D01*
X0021923Y0024095D01*
X0022082Y0023986D01*
X0022239Y0023872D01*
X0022392Y0023755D01*
X0022543Y0023635D01*
X0022691Y0023510D01*
X0022836Y0023382D01*
X0022977Y0023251D01*
X0023116Y0023116D01*
X0023251Y0022977D01*
X0023382Y0022836D01*
X0023510Y0022691D01*
X0023635Y0022543D01*
X0023755Y0022392D01*
X0023872Y0022239D01*
X0023986Y0022082D01*
X0024095Y0021923D01*
X0024200Y0021761D01*
X0024302Y0021596D01*
X0024399Y0021429D01*
X0024492Y0021260D01*
X0024581Y0021088D01*
X0024666Y0020915D01*
X0024746Y0020739D01*
X0024823Y0020561D01*
X0024894Y0020382D01*
X0024962Y0020201D01*
X0025025Y0020018D01*
X0025083Y0019834D01*
X0025137Y0019648D01*
X0025186Y0019461D01*
X0025231Y0019273D01*
X0025271Y0019084D01*
X0025306Y0018894D01*
X0025337Y0018703D01*
X0025363Y0018512D01*
X0025384Y0018320D01*
X0025401Y0018127D01*
X0025413Y0017934D01*
X0025420Y0017741D01*
X0025422Y0017548D01*
X0025420Y0017355D01*
X0025413Y0017162D01*
X0025401Y0016969D01*
X0025384Y0016776D01*
X0025363Y0016584D01*
X0025337Y0016393D01*
X0025306Y0016202D01*
X0025271Y0016012D01*
X0025231Y0015823D01*
X0025186Y0015635D01*
X0025137Y0015448D01*
X0025083Y0015262D01*
X0025025Y0015078D01*
X0024962Y0014895D01*
X0024894Y0014714D01*
X0024823Y0014535D01*
X0024746Y0014357D01*
X0024666Y0014181D01*
X0024581Y0014008D01*
X0024492Y0013836D01*
X0024399Y0013667D01*
X0024302Y0013500D01*
X0024200Y0013335D01*
X0024095Y0013173D01*
X0023986Y0013014D01*
X0023872Y0012857D01*
X0023755Y0012704D01*
X0023635Y0012553D01*
X0023510Y0012405D01*
X0023382Y0012260D01*
X0023251Y0012119D01*
X0023116Y0011980D01*
X0022977Y0011845D01*
X0022836Y0011714D01*
X0022691Y0011586D01*
X0022543Y0011461D01*
X0022392Y0011341D01*
X0022239Y0011224D01*
X0022082Y0011110D01*
X0021923Y0011001D01*
X0021761Y0010896D01*
X0021596Y0010794D01*
X0021429Y0010697D01*
X0021260Y0010604D01*
X0021088Y0010515D01*
X0020915Y0010430D01*
X0020739Y0010350D01*
X0020561Y0010273D01*
X0020382Y0010202D01*
X0020201Y0010134D01*
X0020018Y0010071D01*
X0019834Y0010013D01*
X0019648Y0009959D01*
X0019461Y0009910D01*
X0019273Y0009865D01*
X0019084Y0009825D01*
X0018894Y0009790D01*
X0018703Y0009759D01*
X0018512Y0009733D01*
X0018320Y0009712D01*
X0018127Y0009695D01*
X0017934Y0009683D01*
X0017741Y0009676D01*
X0017548Y0009674D01*
X0017355Y0009676D01*
X0017162Y0009683D01*
X0016969Y0009695D01*
X0016776Y0009712D01*
X0016584Y0009733D01*
X0016393Y0009759D01*
X0016202Y0009790D01*
X0016012Y0009825D01*
X0015823Y0009865D01*
X0015635Y0009910D01*
X0015448Y0009959D01*
X0015262Y0010013D01*
X0015078Y0010071D01*
X0014895Y0010134D01*
X0014714Y0010202D01*
X0014535Y0010273D01*
X0014357Y0010350D01*
X0014181Y0010430D01*
X0014008Y0010515D01*
X0013836Y0010604D01*
X0013667Y0010697D01*
X0013500Y0010794D01*
X0013335Y0010896D01*
X0013173Y0011001D01*
X0013014Y0011110D01*
X0012857Y0011224D01*
X0012704Y0011341D01*
X0012553Y0011461D01*
X0012405Y0011586D01*
X0012260Y0011714D01*
X0012119Y0011845D01*
X0011980Y0011980D01*
X0011845Y0012119D01*
X0011714Y0012260D01*
X0011586Y0012405D01*
X0011461Y0012553D01*
X0011341Y0012704D01*
X0011224Y0012857D01*
X0011110Y0013014D01*
X0011001Y0013173D01*
X0010896Y0013335D01*
X0010794Y0013500D01*
X0010697Y0013667D01*
X0010604Y0013836D01*
X0010515Y0014008D01*
X0010430Y0014181D01*
X0010350Y0014357D01*
X0010273Y0014535D01*
X0010202Y0014714D01*
X0010134Y0014895D01*
X0010071Y0015078D01*
X0010013Y0015262D01*
X0009959Y0015448D01*
X0009910Y0015635D01*
X0009865Y0015823D01*
X0009825Y0016012D01*
X0009790Y0016202D01*
X0009759Y0016393D01*
X0009733Y0016584D01*
X0009712Y0016776D01*
X0009695Y0016969D01*
X0009683Y0017162D01*
X0009676Y0017355D01*
X0009674Y0017548D01*
X0238020Y0017548D02*
X0238022Y0017741D01*
X0238029Y0017934D01*
X0238041Y0018127D01*
X0238058Y0018320D01*
X0238079Y0018512D01*
X0238105Y0018703D01*
X0238136Y0018894D01*
X0238171Y0019084D01*
X0238211Y0019273D01*
X0238256Y0019461D01*
X0238305Y0019648D01*
X0238359Y0019834D01*
X0238417Y0020018D01*
X0238480Y0020201D01*
X0238548Y0020382D01*
X0238619Y0020561D01*
X0238696Y0020739D01*
X0238776Y0020915D01*
X0238861Y0021088D01*
X0238950Y0021260D01*
X0239043Y0021429D01*
X0239140Y0021596D01*
X0239242Y0021761D01*
X0239347Y0021923D01*
X0239456Y0022082D01*
X0239570Y0022239D01*
X0239687Y0022392D01*
X0239807Y0022543D01*
X0239932Y0022691D01*
X0240060Y0022836D01*
X0240191Y0022977D01*
X0240326Y0023116D01*
X0240465Y0023251D01*
X0240606Y0023382D01*
X0240751Y0023510D01*
X0240899Y0023635D01*
X0241050Y0023755D01*
X0241203Y0023872D01*
X0241360Y0023986D01*
X0241519Y0024095D01*
X0241681Y0024200D01*
X0241846Y0024302D01*
X0242013Y0024399D01*
X0242182Y0024492D01*
X0242354Y0024581D01*
X0242527Y0024666D01*
X0242703Y0024746D01*
X0242881Y0024823D01*
X0243060Y0024894D01*
X0243241Y0024962D01*
X0243424Y0025025D01*
X0243608Y0025083D01*
X0243794Y0025137D01*
X0243981Y0025186D01*
X0244169Y0025231D01*
X0244358Y0025271D01*
X0244548Y0025306D01*
X0244739Y0025337D01*
X0244930Y0025363D01*
X0245122Y0025384D01*
X0245315Y0025401D01*
X0245508Y0025413D01*
X0245701Y0025420D01*
X0245894Y0025422D01*
X0246087Y0025420D01*
X0246280Y0025413D01*
X0246473Y0025401D01*
X0246666Y0025384D01*
X0246858Y0025363D01*
X0247049Y0025337D01*
X0247240Y0025306D01*
X0247430Y0025271D01*
X0247619Y0025231D01*
X0247807Y0025186D01*
X0247994Y0025137D01*
X0248180Y0025083D01*
X0248364Y0025025D01*
X0248547Y0024962D01*
X0248728Y0024894D01*
X0248907Y0024823D01*
X0249085Y0024746D01*
X0249261Y0024666D01*
X0249434Y0024581D01*
X0249606Y0024492D01*
X0249775Y0024399D01*
X0249942Y0024302D01*
X0250107Y0024200D01*
X0250269Y0024095D01*
X0250428Y0023986D01*
X0250585Y0023872D01*
X0250738Y0023755D01*
X0250889Y0023635D01*
X0251037Y0023510D01*
X0251182Y0023382D01*
X0251323Y0023251D01*
X0251462Y0023116D01*
X0251597Y0022977D01*
X0251728Y0022836D01*
X0251856Y0022691D01*
X0251981Y0022543D01*
X0252101Y0022392D01*
X0252218Y0022239D01*
X0252332Y0022082D01*
X0252441Y0021923D01*
X0252546Y0021761D01*
X0252648Y0021596D01*
X0252745Y0021429D01*
X0252838Y0021260D01*
X0252927Y0021088D01*
X0253012Y0020915D01*
X0253092Y0020739D01*
X0253169Y0020561D01*
X0253240Y0020382D01*
X0253308Y0020201D01*
X0253371Y0020018D01*
X0253429Y0019834D01*
X0253483Y0019648D01*
X0253532Y0019461D01*
X0253577Y0019273D01*
X0253617Y0019084D01*
X0253652Y0018894D01*
X0253683Y0018703D01*
X0253709Y0018512D01*
X0253730Y0018320D01*
X0253747Y0018127D01*
X0253759Y0017934D01*
X0253766Y0017741D01*
X0253768Y0017548D01*
X0253766Y0017355D01*
X0253759Y0017162D01*
X0253747Y0016969D01*
X0253730Y0016776D01*
X0253709Y0016584D01*
X0253683Y0016393D01*
X0253652Y0016202D01*
X0253617Y0016012D01*
X0253577Y0015823D01*
X0253532Y0015635D01*
X0253483Y0015448D01*
X0253429Y0015262D01*
X0253371Y0015078D01*
X0253308Y0014895D01*
X0253240Y0014714D01*
X0253169Y0014535D01*
X0253092Y0014357D01*
X0253012Y0014181D01*
X0252927Y0014008D01*
X0252838Y0013836D01*
X0252745Y0013667D01*
X0252648Y0013500D01*
X0252546Y0013335D01*
X0252441Y0013173D01*
X0252332Y0013014D01*
X0252218Y0012857D01*
X0252101Y0012704D01*
X0251981Y0012553D01*
X0251856Y0012405D01*
X0251728Y0012260D01*
X0251597Y0012119D01*
X0251462Y0011980D01*
X0251323Y0011845D01*
X0251182Y0011714D01*
X0251037Y0011586D01*
X0250889Y0011461D01*
X0250738Y0011341D01*
X0250585Y0011224D01*
X0250428Y0011110D01*
X0250269Y0011001D01*
X0250107Y0010896D01*
X0249942Y0010794D01*
X0249775Y0010697D01*
X0249606Y0010604D01*
X0249434Y0010515D01*
X0249261Y0010430D01*
X0249085Y0010350D01*
X0248907Y0010273D01*
X0248728Y0010202D01*
X0248547Y0010134D01*
X0248364Y0010071D01*
X0248180Y0010013D01*
X0247994Y0009959D01*
X0247807Y0009910D01*
X0247619Y0009865D01*
X0247430Y0009825D01*
X0247240Y0009790D01*
X0247049Y0009759D01*
X0246858Y0009733D01*
X0246666Y0009712D01*
X0246473Y0009695D01*
X0246280Y0009683D01*
X0246087Y0009676D01*
X0245894Y0009674D01*
X0245701Y0009676D01*
X0245508Y0009683D01*
X0245315Y0009695D01*
X0245122Y0009712D01*
X0244930Y0009733D01*
X0244739Y0009759D01*
X0244548Y0009790D01*
X0244358Y0009825D01*
X0244169Y0009865D01*
X0243981Y0009910D01*
X0243794Y0009959D01*
X0243608Y0010013D01*
X0243424Y0010071D01*
X0243241Y0010134D01*
X0243060Y0010202D01*
X0242881Y0010273D01*
X0242703Y0010350D01*
X0242527Y0010430D01*
X0242354Y0010515D01*
X0242182Y0010604D01*
X0242013Y0010697D01*
X0241846Y0010794D01*
X0241681Y0010896D01*
X0241519Y0011001D01*
X0241360Y0011110D01*
X0241203Y0011224D01*
X0241050Y0011341D01*
X0240899Y0011461D01*
X0240751Y0011586D01*
X0240606Y0011714D01*
X0240465Y0011845D01*
X0240326Y0011980D01*
X0240191Y0012119D01*
X0240060Y0012260D01*
X0239932Y0012405D01*
X0239807Y0012553D01*
X0239687Y0012704D01*
X0239570Y0012857D01*
X0239456Y0013014D01*
X0239347Y0013173D01*
X0239242Y0013335D01*
X0239140Y0013500D01*
X0239043Y0013667D01*
X0238950Y0013836D01*
X0238861Y0014008D01*
X0238776Y0014181D01*
X0238696Y0014357D01*
X0238619Y0014535D01*
X0238548Y0014714D01*
X0238480Y0014895D01*
X0238417Y0015078D01*
X0238359Y0015262D01*
X0238305Y0015448D01*
X0238256Y0015635D01*
X0238211Y0015823D01*
X0238171Y0016012D01*
X0238136Y0016202D01*
X0238105Y0016393D01*
X0238079Y0016584D01*
X0238058Y0016776D01*
X0238041Y0016969D01*
X0238029Y0017162D01*
X0238022Y0017355D01*
X0238020Y0017548D01*
X0238022Y0017741D01*
X0238029Y0017934D01*
X0238041Y0018127D01*
X0238058Y0018320D01*
X0238079Y0018512D01*
X0238105Y0018703D01*
X0238136Y0018894D01*
X0238171Y0019084D01*
X0238211Y0019273D01*
X0238256Y0019461D01*
X0238305Y0019648D01*
X0238359Y0019834D01*
X0238417Y0020018D01*
X0238480Y0020201D01*
X0238548Y0020382D01*
X0238619Y0020561D01*
X0238696Y0020739D01*
X0238776Y0020915D01*
X0238861Y0021088D01*
X0238950Y0021260D01*
X0239043Y0021429D01*
X0239140Y0021596D01*
X0239242Y0021761D01*
X0239347Y0021923D01*
X0239456Y0022082D01*
X0239570Y0022239D01*
X0239687Y0022392D01*
X0239807Y0022543D01*
X0239932Y0022691D01*
X0240060Y0022836D01*
X0240191Y0022977D01*
X0240326Y0023116D01*
X0240465Y0023251D01*
X0240606Y0023382D01*
X0240751Y0023510D01*
X0240899Y0023635D01*
X0241050Y0023755D01*
X0241203Y0023872D01*
X0241360Y0023986D01*
X0241519Y0024095D01*
X0241681Y0024200D01*
X0241846Y0024302D01*
X0242013Y0024399D01*
X0242182Y0024492D01*
X0242354Y0024581D01*
X0242527Y0024666D01*
X0242703Y0024746D01*
X0242881Y0024823D01*
X0243060Y0024894D01*
X0243241Y0024962D01*
X0243424Y0025025D01*
X0243608Y0025083D01*
X0243794Y0025137D01*
X0243981Y0025186D01*
X0244169Y0025231D01*
X0244358Y0025271D01*
X0244548Y0025306D01*
X0244739Y0025337D01*
X0244930Y0025363D01*
X0245122Y0025384D01*
X0245315Y0025401D01*
X0245508Y0025413D01*
X0245701Y0025420D01*
X0245894Y0025422D01*
X0246087Y0025420D01*
X0246280Y0025413D01*
X0246473Y0025401D01*
X0246666Y0025384D01*
X0246858Y0025363D01*
X0247049Y0025337D01*
X0247240Y0025306D01*
X0247430Y0025271D01*
X0247619Y0025231D01*
X0247807Y0025186D01*
X0247994Y0025137D01*
X0248180Y0025083D01*
X0248364Y0025025D01*
X0248547Y0024962D01*
X0248728Y0024894D01*
X0248907Y0024823D01*
X0249085Y0024746D01*
X0249261Y0024666D01*
X0249434Y0024581D01*
X0249606Y0024492D01*
X0249775Y0024399D01*
X0249942Y0024302D01*
X0250107Y0024200D01*
X0250269Y0024095D01*
X0250428Y0023986D01*
X0250585Y0023872D01*
X0250738Y0023755D01*
X0250889Y0023635D01*
X0251037Y0023510D01*
X0251182Y0023382D01*
X0251323Y0023251D01*
X0251462Y0023116D01*
X0251597Y0022977D01*
X0251728Y0022836D01*
X0251856Y0022691D01*
X0251981Y0022543D01*
X0252101Y0022392D01*
X0252218Y0022239D01*
X0252332Y0022082D01*
X0252441Y0021923D01*
X0252546Y0021761D01*
X0252648Y0021596D01*
X0252745Y0021429D01*
X0252838Y0021260D01*
X0252927Y0021088D01*
X0253012Y0020915D01*
X0253092Y0020739D01*
X0253169Y0020561D01*
X0253240Y0020382D01*
X0253308Y0020201D01*
X0253371Y0020018D01*
X0253429Y0019834D01*
X0253483Y0019648D01*
X0253532Y0019461D01*
X0253577Y0019273D01*
X0253617Y0019084D01*
X0253652Y0018894D01*
X0253683Y0018703D01*
X0253709Y0018512D01*
X0253730Y0018320D01*
X0253747Y0018127D01*
X0253759Y0017934D01*
X0253766Y0017741D01*
X0253768Y0017548D01*
X0253766Y0017355D01*
X0253759Y0017162D01*
X0253747Y0016969D01*
X0253730Y0016776D01*
X0253709Y0016584D01*
X0253683Y0016393D01*
X0253652Y0016202D01*
X0253617Y0016012D01*
X0253577Y0015823D01*
X0253532Y0015635D01*
X0253483Y0015448D01*
X0253429Y0015262D01*
X0253371Y0015078D01*
X0253308Y0014895D01*
X0253240Y0014714D01*
X0253169Y0014535D01*
X0253092Y0014357D01*
X0253012Y0014181D01*
X0252927Y0014008D01*
X0252838Y0013836D01*
X0252745Y0013667D01*
X0252648Y0013500D01*
X0252546Y0013335D01*
X0252441Y0013173D01*
X0252332Y0013014D01*
X0252218Y0012857D01*
X0252101Y0012704D01*
X0251981Y0012553D01*
X0251856Y0012405D01*
X0251728Y0012260D01*
X0251597Y0012119D01*
X0251462Y0011980D01*
X0251323Y0011845D01*
X0251182Y0011714D01*
X0251037Y0011586D01*
X0250889Y0011461D01*
X0250738Y0011341D01*
X0250585Y0011224D01*
X0250428Y0011110D01*
X0250269Y0011001D01*
X0250107Y0010896D01*
X0249942Y0010794D01*
X0249775Y0010697D01*
X0249606Y0010604D01*
X0249434Y0010515D01*
X0249261Y0010430D01*
X0249085Y0010350D01*
X0248907Y0010273D01*
X0248728Y0010202D01*
X0248547Y0010134D01*
X0248364Y0010071D01*
X0248180Y0010013D01*
X0247994Y0009959D01*
X0247807Y0009910D01*
X0247619Y0009865D01*
X0247430Y0009825D01*
X0247240Y0009790D01*
X0247049Y0009759D01*
X0246858Y0009733D01*
X0246666Y0009712D01*
X0246473Y0009695D01*
X0246280Y0009683D01*
X0246087Y0009676D01*
X0245894Y0009674D01*
X0245701Y0009676D01*
X0245508Y0009683D01*
X0245315Y0009695D01*
X0245122Y0009712D01*
X0244930Y0009733D01*
X0244739Y0009759D01*
X0244548Y0009790D01*
X0244358Y0009825D01*
X0244169Y0009865D01*
X0243981Y0009910D01*
X0243794Y0009959D01*
X0243608Y0010013D01*
X0243424Y0010071D01*
X0243241Y0010134D01*
X0243060Y0010202D01*
X0242881Y0010273D01*
X0242703Y0010350D01*
X0242527Y0010430D01*
X0242354Y0010515D01*
X0242182Y0010604D01*
X0242013Y0010697D01*
X0241846Y0010794D01*
X0241681Y0010896D01*
X0241519Y0011001D01*
X0241360Y0011110D01*
X0241203Y0011224D01*
X0241050Y0011341D01*
X0240899Y0011461D01*
X0240751Y0011586D01*
X0240606Y0011714D01*
X0240465Y0011845D01*
X0240326Y0011980D01*
X0240191Y0012119D01*
X0240060Y0012260D01*
X0239932Y0012405D01*
X0239807Y0012553D01*
X0239687Y0012704D01*
X0239570Y0012857D01*
X0239456Y0013014D01*
X0239347Y0013173D01*
X0239242Y0013335D01*
X0239140Y0013500D01*
X0239043Y0013667D01*
X0238950Y0013836D01*
X0238861Y0014008D01*
X0238776Y0014181D01*
X0238696Y0014357D01*
X0238619Y0014535D01*
X0238548Y0014714D01*
X0238480Y0014895D01*
X0238417Y0015078D01*
X0238359Y0015262D01*
X0238305Y0015448D01*
X0238256Y0015635D01*
X0238211Y0015823D01*
X0238171Y0016012D01*
X0238136Y0016202D01*
X0238105Y0016393D01*
X0238079Y0016584D01*
X0238058Y0016776D01*
X0238041Y0016969D01*
X0238029Y0017162D01*
X0238022Y0017355D01*
X0238020Y0017548D01*
D14*
X0224556Y0203375D03*
X0214556Y0203375D03*
X0204556Y0203375D03*
X0194556Y0203375D03*
X0184556Y0203375D03*
X0174556Y0203375D03*
X0164556Y0203375D03*
X0154556Y0203375D03*
X0144556Y0203375D03*
X0134556Y0203375D03*
X0124556Y0203375D03*
X0114556Y0203375D03*
X0104556Y0203375D03*
X0094556Y0203375D03*
X0084556Y0203375D03*
X0074556Y0203375D03*
X0064556Y0203375D03*
X0054556Y0203375D03*
X0044556Y0203375D03*
X0034556Y0203375D03*
X0034556Y0213375D03*
X0044556Y0213375D03*
X0054556Y0213375D03*
X0064556Y0213375D03*
X0074556Y0213375D03*
X0084556Y0213375D03*
X0094556Y0213375D03*
X0104556Y0213375D03*
X0114556Y0213375D03*
X0124556Y0213375D03*
X0134556Y0213375D03*
X0144556Y0213375D03*
X0154556Y0213375D03*
X0164556Y0213375D03*
X0174556Y0213375D03*
X0184556Y0213375D03*
X0194556Y0213375D03*
X0204556Y0213375D03*
X0214556Y0213375D03*
X0224556Y0213375D03*
D15*
X0129556Y0188099D03*
X0124556Y0188099D03*
X0119556Y0188099D03*
X0114556Y0188099D03*
X0109556Y0188099D03*
X0104556Y0188099D03*
X0099556Y0188099D03*
X0094556Y0188099D03*
X0089556Y0188099D03*
X0084556Y0188099D03*
X0079556Y0188099D03*
X0074556Y0188099D03*
X0069556Y0188099D03*
X0064556Y0188099D03*
X0059556Y0188099D03*
X0054556Y0188099D03*
X0049556Y0188099D03*
X0044556Y0188099D03*
X0039556Y0188099D03*
X0034556Y0188099D03*
X0034556Y0118099D03*
X0039556Y0118099D03*
X0044556Y0118099D03*
X0049556Y0118099D03*
X0054556Y0118099D03*
X0059556Y0118099D03*
X0064556Y0118099D03*
X0069556Y0118099D03*
X0074556Y0118099D03*
X0079556Y0118099D03*
X0084556Y0118099D03*
X0089556Y0118099D03*
X0094556Y0118099D03*
X0099556Y0118099D03*
X0104556Y0118099D03*
X0109556Y0118099D03*
X0114556Y0118099D03*
X0119556Y0118099D03*
X0124556Y0118099D03*
X0129556Y0118099D03*
D16*
X0029556Y0138099D03*
X0029556Y0143099D03*
X0029556Y0148099D03*
X0029556Y0153099D03*
X0029556Y0158099D03*
X0029556Y0163099D03*
X0029556Y0168099D03*
D17*
X0018493Y0077863D03*
X0018493Y0067863D03*
X0018650Y0051682D03*
X0018650Y0041682D03*
D18*
X0051209Y0069398D03*
X0055107Y0059359D03*
X0067706Y0059162D03*
X0079713Y0058847D03*
X0092745Y0058729D03*
X0091839Y0069398D03*
X0081209Y0069398D03*
X0106091Y0058729D03*
X0118493Y0058690D03*
X0121839Y0069398D03*
X0152863Y0068454D03*
X0162863Y0068454D03*
X0163060Y0084162D03*
X0153060Y0084162D03*
X0152666Y0045737D03*
X0162666Y0045737D03*
X0118493Y0028690D03*
X0106091Y0028729D03*
X0092745Y0028729D03*
X0079713Y0028847D03*
X0067706Y0029162D03*
X0055107Y0029359D03*
D19*
X0215186Y0039220D03*
X0225186Y0039220D03*
X0235186Y0039220D03*
X0245186Y0039220D03*
D20*
X0201131Y0054202D03*
X0201131Y0064202D03*
X0201131Y0074202D03*
X0201131Y0084202D03*
X0171131Y0084202D03*
X0171131Y0074202D03*
X0171131Y0064202D03*
X0171131Y0054202D03*
D21*
X0171328Y0029556D03*
X0171328Y0019556D03*
D22*
X0137471Y0024713D02*
X0132271Y0024713D01*
X0132271Y0034713D02*
X0137471Y0034713D01*
X0137471Y0044713D02*
X0132271Y0044713D01*
X0132271Y0054713D02*
X0137471Y0054713D01*
X0137471Y0064713D02*
X0132271Y0064713D01*
X0041802Y0065501D02*
X0036602Y0065501D01*
X0036602Y0055501D02*
X0041802Y0055501D01*
X0041802Y0045501D02*
X0036602Y0045501D01*
X0036602Y0035501D02*
X0041802Y0035501D01*
X0041802Y0025501D02*
X0036602Y0025501D01*
X0147154Y0184239D02*
X0147154Y0189439D01*
X0157154Y0189439D02*
X0157154Y0184239D01*
X0167154Y0184239D02*
X0167154Y0189439D01*
X0177154Y0189439D02*
X0177154Y0184239D01*
X0187154Y0184239D02*
X0187154Y0189439D01*
D23*
X0183600Y0192000D02*
X0194400Y0202800D01*
X0194556Y0203375D01*
X0198600Y0205200D02*
X0196200Y0207600D01*
X0183000Y0207600D01*
X0178800Y0203400D01*
X0174600Y0203400D01*
X0174556Y0203375D01*
X0170400Y0201600D02*
X0170400Y0205200D01*
X0174000Y0208800D01*
X0196800Y0208800D01*
X0199800Y0205800D01*
X0199800Y0178800D01*
X0095400Y0074400D01*
X0040200Y0074400D01*
X0029400Y0063600D01*
X0025800Y0060600D02*
X0018600Y0067800D01*
X0018493Y0067863D01*
X0025800Y0060600D02*
X0043200Y0060600D01*
X0046800Y0064200D01*
X0046800Y0064800D01*
X0051000Y0069000D01*
X0051209Y0069398D01*
X0076200Y0062400D02*
X0055800Y0042000D01*
X0019200Y0042000D01*
X0018650Y0041682D01*
X0034800Y0045600D02*
X0006600Y0073800D01*
X0006600Y0168000D01*
X0041400Y0202800D01*
X0044400Y0202800D01*
X0044556Y0203375D01*
X0046200Y0199200D02*
X0042600Y0199200D01*
X0034800Y0191400D01*
X0034800Y0188400D01*
X0034556Y0188099D01*
X0034200Y0187800D01*
X0034200Y0172800D01*
X0030000Y0168600D01*
X0029556Y0168099D01*
X0029400Y0168000D01*
X0029400Y0163200D01*
X0029556Y0163099D01*
X0030000Y0162600D01*
X0033000Y0162600D01*
X0035400Y0160200D01*
X0035400Y0156000D01*
X0033000Y0153600D01*
X0029556Y0153099D01*
X0030000Y0153600D01*
X0033000Y0153600D01*
X0035400Y0151200D01*
X0035400Y0145800D01*
X0033000Y0143400D01*
X0030000Y0143400D01*
X0029556Y0143099D01*
X0029400Y0142800D01*
X0029400Y0138600D01*
X0029556Y0138099D01*
X0034556Y0118099D02*
X0034800Y0117600D01*
X0034800Y0114600D01*
X0037200Y0112200D01*
X0037200Y0111000D01*
X0037200Y0112200D02*
X0056400Y0112200D01*
X0059400Y0115200D01*
X0059556Y0118099D01*
X0059400Y0117600D01*
X0059400Y0115200D01*
X0062400Y0112200D01*
X0096600Y0112200D01*
X0099600Y0115200D01*
X0099556Y0118099D01*
X0099600Y0117600D01*
X0099600Y0115200D01*
X0102600Y0112200D01*
X0126600Y0112200D01*
X0129000Y0114600D01*
X0129000Y0117600D01*
X0129556Y0118099D01*
X0151800Y0088200D02*
X0159000Y0088200D01*
X0162600Y0084600D01*
X0163060Y0084162D01*
X0171000Y0084000D02*
X0171000Y0081600D01*
X0156600Y0067200D01*
X0156600Y0044400D01*
X0137400Y0025200D01*
X0135000Y0025200D01*
X0134871Y0024713D01*
X0134400Y0025200D01*
X0121800Y0025200D01*
X0118800Y0028200D01*
X0118493Y0028690D01*
X0108600Y0024000D02*
X0125400Y0040800D01*
X0147600Y0040800D01*
X0152400Y0045600D01*
X0152666Y0045737D01*
X0165600Y0037200D02*
X0207000Y0037200D01*
X0210600Y0033600D01*
X0219600Y0033600D01*
X0225000Y0039000D01*
X0225186Y0039220D01*
X0225000Y0039600D01*
X0225000Y0066627D01*
X0210600Y0081027D01*
X0210600Y0206353D01*
X0210169Y0207769D01*
X0210169Y0207600D01*
X0198600Y0205200D02*
X0198600Y0179400D01*
X0097200Y0078000D01*
X0018600Y0078000D01*
X0018493Y0077863D01*
X0034800Y0045600D02*
X0039000Y0045600D01*
X0039202Y0045501D01*
X0053400Y0033000D02*
X0051600Y0031200D01*
X0051600Y0027600D01*
X0058200Y0021000D01*
X0149400Y0021000D01*
X0165600Y0037200D01*
X0139200Y0061200D02*
X0153000Y0075000D01*
X0153000Y0084000D01*
X0153060Y0084162D01*
X0151800Y0088200D02*
X0133200Y0069600D01*
X0122400Y0069600D01*
X0121839Y0069398D01*
X0121800Y0069000D01*
X0103200Y0069000D01*
X0100200Y0066000D01*
X0093000Y0073200D01*
X0085200Y0073200D01*
X0081600Y0069600D01*
X0081209Y0069398D01*
X0085800Y0069000D02*
X0079200Y0062400D01*
X0076200Y0062400D01*
X0085800Y0069000D02*
X0091800Y0069000D01*
X0091839Y0069398D01*
X0100200Y0066000D02*
X0093000Y0058800D01*
X0092745Y0058729D01*
X0092400Y0058200D01*
X0079800Y0045600D01*
X0079800Y0029400D01*
X0079713Y0028847D01*
X0081600Y0025200D02*
X0076800Y0025200D01*
X0069000Y0033000D01*
X0053400Y0033000D01*
X0055107Y0029359D02*
X0055200Y0029400D01*
X0067200Y0029400D01*
X0067706Y0029162D01*
X0067800Y0028800D01*
X0071400Y0028800D01*
X0076200Y0024000D01*
X0108600Y0024000D01*
X0106091Y0028729D02*
X0106200Y0028800D01*
X0106200Y0033600D01*
X0133800Y0061200D01*
X0139200Y0061200D01*
X0118493Y0058690D02*
X0118200Y0058800D01*
X0106200Y0058800D01*
X0106091Y0058729D01*
X0092745Y0028729D02*
X0092400Y0028200D01*
X0084600Y0028200D01*
X0081600Y0025200D01*
X0171000Y0084000D02*
X0171131Y0084202D01*
X0064800Y0118200D02*
X0064556Y0118099D01*
X0064800Y0118200D02*
X0064800Y0125400D01*
X0054600Y0121200D02*
X0054600Y0118200D01*
X0054556Y0118099D01*
X0054600Y0121200D02*
X0111000Y0177600D01*
X0175800Y0177600D01*
X0183600Y0185400D01*
X0183600Y0192000D01*
X0177000Y0187200D02*
X0175200Y0187200D01*
X0159000Y0203400D01*
X0159000Y0204600D01*
X0154200Y0209400D01*
X0093000Y0209400D01*
X0088800Y0213600D01*
X0088800Y0214800D01*
X0085800Y0217800D01*
X0063000Y0217800D01*
X0060600Y0215400D01*
X0060600Y0207000D01*
X0064200Y0203400D01*
X0064556Y0203375D01*
X0063000Y0199200D02*
X0058800Y0203400D01*
X0058800Y0214800D01*
X0055800Y0217800D01*
X0053400Y0217800D01*
X0048600Y0213000D01*
X0048600Y0211800D01*
X0044400Y0207600D01*
X0039000Y0207600D01*
X0034800Y0203400D01*
X0034556Y0203375D01*
X0046200Y0199200D02*
X0050400Y0203400D01*
X0050400Y0209400D01*
X0054000Y0213000D01*
X0054556Y0213375D01*
X0064556Y0213375D02*
X0064800Y0213000D01*
X0068400Y0209400D01*
X0074400Y0209400D01*
X0078600Y0205200D01*
X0078600Y0203400D01*
X0082800Y0199200D01*
X0091200Y0199200D01*
X0099000Y0191400D01*
X0099000Y0188400D01*
X0099556Y0188099D01*
X0104400Y0188400D02*
X0104400Y0191400D01*
X0096600Y0199200D01*
X0093000Y0199200D01*
X0088800Y0203400D01*
X0088800Y0205200D01*
X0084600Y0209400D01*
X0078600Y0209400D01*
X0075000Y0213000D01*
X0074556Y0213375D01*
X0074556Y0203375D02*
X0075000Y0202800D01*
X0079200Y0198600D01*
X0079200Y0193800D01*
X0091800Y0193800D01*
X0094200Y0191400D01*
X0094200Y0188400D01*
X0094556Y0188099D01*
X0094800Y0187800D01*
X0094800Y0184800D01*
X0097200Y0182400D01*
X0126600Y0182400D01*
X0129000Y0184800D01*
X0129000Y0187800D01*
X0129556Y0188099D01*
X0136200Y0186600D02*
X0130800Y0181200D01*
X0078600Y0181200D01*
X0075000Y0184800D01*
X0075000Y0187800D01*
X0074556Y0188099D01*
X0074400Y0188400D01*
X0074400Y0191400D01*
X0066600Y0199200D01*
X0063000Y0199200D01*
X0079200Y0193800D02*
X0079200Y0188400D01*
X0079556Y0188099D01*
X0104400Y0188400D02*
X0104556Y0188099D01*
X0136200Y0186600D02*
X0147000Y0186600D01*
X0147154Y0186839D01*
X0170400Y0201600D02*
X0172800Y0199200D01*
X0176400Y0199200D01*
X0180000Y0202800D01*
X0184200Y0202800D01*
X0184556Y0203375D01*
X0177000Y0187200D02*
X0177154Y0186839D01*
D24*
X0210169Y0207600D03*
X0064800Y0125400D03*
X0037200Y0111000D03*
X0029400Y0063600D03*
D25*
X0034280Y0117942D02*
X0034280Y0132706D01*
X0029359Y0137627D01*
X0029359Y0138611D01*
M02*
