G75*
%MOIN*%
%OFA0B0*%
%FSLAX25Y25*%
%IPPOS*%
%LPD*%
%AMOC8*
5,1,8,0,0,1.08239X$1,22.5*
%
%ADD10C,0.00600*%
%ADD11C,0.00800*%
%ADD12C,0.00100*%
%ADD13R,0.01500X0.02000*%
%ADD14C,0.00500*%
%ADD15C,0.01000*%
%ADD16R,0.02000X0.01500*%
%ADD17R,0.01575X0.02165*%
%ADD18C,0.01200*%
D10*
X0034202Y0020501D02*
X0034202Y0029501D01*
X0035202Y0030501D01*
X0034202Y0031501D01*
X0034202Y0039501D01*
X0035202Y0040501D01*
X0034202Y0041501D01*
X0034202Y0049501D01*
X0035202Y0050501D01*
X0034202Y0051501D01*
X0034202Y0059501D01*
X0035202Y0060501D01*
X0034202Y0061501D01*
X0034202Y0070501D01*
X0044202Y0070501D01*
X0044202Y0061501D01*
X0043202Y0060501D01*
X0044202Y0059501D01*
X0044202Y0051501D01*
X0043202Y0050501D01*
X0044202Y0049501D01*
X0044202Y0041501D01*
X0043202Y0040501D01*
X0044202Y0039501D01*
X0044202Y0031501D01*
X0043202Y0030501D01*
X0044202Y0029501D01*
X0044202Y0020501D01*
X0034202Y0020501D01*
X0049344Y0022285D02*
X0049344Y0015880D01*
X0049344Y0018015D02*
X0052547Y0018015D01*
X0053614Y0019082D01*
X0053614Y0021217D01*
X0052547Y0022285D01*
X0049344Y0022285D01*
X0051479Y0018015D02*
X0053614Y0015880D01*
X0055790Y0015880D02*
X0060060Y0015880D01*
X0061155Y0015880D02*
X0061155Y0022285D01*
X0064358Y0022285D01*
X0065425Y0021217D01*
X0065425Y0019082D01*
X0064358Y0018015D01*
X0061155Y0018015D01*
X0063290Y0018015D02*
X0065425Y0015880D01*
X0067601Y0015880D02*
X0071871Y0020150D01*
X0071871Y0021217D01*
X0070803Y0022285D01*
X0068668Y0022285D01*
X0067601Y0021217D01*
X0067601Y0015880D02*
X0071871Y0015880D01*
X0074935Y0015880D02*
X0074935Y0022285D01*
X0078137Y0022285D01*
X0079205Y0021217D01*
X0079205Y0019082D01*
X0078137Y0018015D01*
X0074935Y0018015D01*
X0077070Y0018015D02*
X0079205Y0015880D01*
X0081380Y0016947D02*
X0082448Y0015880D01*
X0084583Y0015880D01*
X0085650Y0016947D01*
X0085650Y0018015D01*
X0084583Y0019082D01*
X0083515Y0019082D01*
X0084583Y0019082D02*
X0085650Y0020150D01*
X0085650Y0021217D01*
X0084583Y0022285D01*
X0082448Y0022285D01*
X0081380Y0021217D01*
X0086746Y0022285D02*
X0089948Y0022285D01*
X0091016Y0021217D01*
X0091016Y0019082D01*
X0089948Y0018015D01*
X0086746Y0018015D01*
X0088881Y0018015D02*
X0091016Y0015880D01*
X0093191Y0019082D02*
X0097461Y0019082D01*
X0100525Y0018015D02*
X0103728Y0018015D01*
X0104796Y0019082D01*
X0104796Y0021217D01*
X0103728Y0022285D01*
X0100525Y0022285D01*
X0100525Y0015880D01*
X0102660Y0018015D02*
X0104796Y0015880D01*
X0106971Y0016947D02*
X0108038Y0015880D01*
X0110173Y0015880D01*
X0111241Y0016947D01*
X0111241Y0019082D01*
X0110173Y0020150D01*
X0109106Y0020150D01*
X0106971Y0019082D01*
X0106971Y0022285D01*
X0111241Y0022285D01*
X0114305Y0022285D02*
X0117507Y0022285D01*
X0118575Y0021217D01*
X0118575Y0019082D01*
X0117507Y0018015D01*
X0114305Y0018015D01*
X0116440Y0018015D02*
X0118575Y0015880D01*
X0120750Y0016947D02*
X0121818Y0015880D01*
X0123953Y0015880D01*
X0125021Y0016947D01*
X0125021Y0018015D01*
X0123953Y0019082D01*
X0120750Y0019082D01*
X0120750Y0016947D01*
X0120750Y0019082D02*
X0122885Y0021217D01*
X0125021Y0022285D01*
X0129871Y0019713D02*
X0129871Y0028713D01*
X0130871Y0029713D01*
X0129871Y0030713D01*
X0129871Y0038713D01*
X0130871Y0039713D01*
X0129871Y0040713D01*
X0129871Y0048713D01*
X0130871Y0049713D01*
X0129871Y0050713D01*
X0129871Y0058713D01*
X0130871Y0059713D01*
X0129871Y0060713D01*
X0129871Y0069713D01*
X0139871Y0069713D01*
X0139871Y0060713D01*
X0138871Y0059713D01*
X0139871Y0058713D01*
X0139871Y0050713D01*
X0138871Y0049713D01*
X0139871Y0048713D01*
X0139871Y0040713D01*
X0138871Y0039713D01*
X0139871Y0038713D01*
X0139871Y0030713D01*
X0138871Y0029713D01*
X0139871Y0028713D01*
X0139871Y0019713D01*
X0129871Y0019713D01*
X0114305Y0022285D02*
X0114305Y0015880D01*
X0096394Y0015880D02*
X0096394Y0022285D01*
X0093191Y0019082D01*
X0086746Y0015880D02*
X0086746Y0022285D01*
X0089745Y0033729D02*
X0095745Y0033729D01*
X0095805Y0033731D01*
X0095866Y0033736D01*
X0095925Y0033745D01*
X0095984Y0033758D01*
X0096043Y0033774D01*
X0096100Y0033794D01*
X0096155Y0033817D01*
X0096210Y0033844D01*
X0096262Y0033873D01*
X0096313Y0033906D01*
X0096362Y0033942D01*
X0096408Y0033980D01*
X0096452Y0034022D01*
X0096494Y0034066D01*
X0096532Y0034112D01*
X0096568Y0034161D01*
X0096601Y0034212D01*
X0096630Y0034264D01*
X0096657Y0034319D01*
X0096680Y0034374D01*
X0096700Y0034431D01*
X0096716Y0034490D01*
X0096729Y0034549D01*
X0096738Y0034608D01*
X0096743Y0034669D01*
X0096745Y0034729D01*
X0096745Y0036229D01*
X0096245Y0036729D01*
X0096245Y0050729D01*
X0096745Y0051229D01*
X0096745Y0052729D01*
X0096743Y0052789D01*
X0096738Y0052850D01*
X0096729Y0052909D01*
X0096716Y0052968D01*
X0096700Y0053027D01*
X0096680Y0053084D01*
X0096657Y0053139D01*
X0096630Y0053194D01*
X0096601Y0053246D01*
X0096568Y0053297D01*
X0096532Y0053346D01*
X0096494Y0053392D01*
X0096452Y0053436D01*
X0096408Y0053478D01*
X0096362Y0053516D01*
X0096313Y0053552D01*
X0096262Y0053585D01*
X0096210Y0053614D01*
X0096155Y0053641D01*
X0096100Y0053664D01*
X0096043Y0053684D01*
X0095984Y0053700D01*
X0095925Y0053713D01*
X0095866Y0053722D01*
X0095805Y0053727D01*
X0095745Y0053729D01*
X0089745Y0053729D01*
X0089685Y0053727D01*
X0089624Y0053722D01*
X0089565Y0053713D01*
X0089506Y0053700D01*
X0089447Y0053684D01*
X0089390Y0053664D01*
X0089335Y0053641D01*
X0089280Y0053614D01*
X0089228Y0053585D01*
X0089177Y0053552D01*
X0089128Y0053516D01*
X0089082Y0053478D01*
X0089038Y0053436D01*
X0088996Y0053392D01*
X0088958Y0053346D01*
X0088922Y0053297D01*
X0088889Y0053246D01*
X0088860Y0053194D01*
X0088833Y0053139D01*
X0088810Y0053084D01*
X0088790Y0053027D01*
X0088774Y0052968D01*
X0088761Y0052909D01*
X0088752Y0052850D01*
X0088747Y0052789D01*
X0088745Y0052729D01*
X0088745Y0051229D01*
X0089245Y0050729D01*
X0089245Y0036729D01*
X0088745Y0036229D01*
X0088745Y0034729D01*
X0088747Y0034669D01*
X0088752Y0034608D01*
X0088761Y0034549D01*
X0088774Y0034490D01*
X0088790Y0034431D01*
X0088810Y0034374D01*
X0088833Y0034319D01*
X0088860Y0034264D01*
X0088889Y0034212D01*
X0088922Y0034161D01*
X0088958Y0034112D01*
X0088996Y0034066D01*
X0089038Y0034022D01*
X0089082Y0033980D01*
X0089128Y0033942D01*
X0089177Y0033906D01*
X0089228Y0033873D01*
X0089280Y0033844D01*
X0089335Y0033817D01*
X0089390Y0033794D01*
X0089447Y0033774D01*
X0089506Y0033758D01*
X0089565Y0033745D01*
X0089624Y0033736D01*
X0089685Y0033731D01*
X0089745Y0033729D01*
X0083713Y0034847D02*
X0083713Y0036347D01*
X0083213Y0036847D01*
X0083213Y0050847D01*
X0083713Y0051347D01*
X0083713Y0052847D01*
X0083711Y0052907D01*
X0083706Y0052968D01*
X0083697Y0053027D01*
X0083684Y0053086D01*
X0083668Y0053145D01*
X0083648Y0053202D01*
X0083625Y0053257D01*
X0083598Y0053312D01*
X0083569Y0053364D01*
X0083536Y0053415D01*
X0083500Y0053464D01*
X0083462Y0053510D01*
X0083420Y0053554D01*
X0083376Y0053596D01*
X0083330Y0053634D01*
X0083281Y0053670D01*
X0083230Y0053703D01*
X0083178Y0053732D01*
X0083123Y0053759D01*
X0083068Y0053782D01*
X0083011Y0053802D01*
X0082952Y0053818D01*
X0082893Y0053831D01*
X0082834Y0053840D01*
X0082773Y0053845D01*
X0082713Y0053847D01*
X0076713Y0053847D01*
X0076653Y0053845D01*
X0076592Y0053840D01*
X0076533Y0053831D01*
X0076474Y0053818D01*
X0076415Y0053802D01*
X0076358Y0053782D01*
X0076303Y0053759D01*
X0076248Y0053732D01*
X0076196Y0053703D01*
X0076145Y0053670D01*
X0076096Y0053634D01*
X0076050Y0053596D01*
X0076006Y0053554D01*
X0075964Y0053510D01*
X0075926Y0053464D01*
X0075890Y0053415D01*
X0075857Y0053364D01*
X0075828Y0053312D01*
X0075801Y0053257D01*
X0075778Y0053202D01*
X0075758Y0053145D01*
X0075742Y0053086D01*
X0075729Y0053027D01*
X0075720Y0052968D01*
X0075715Y0052907D01*
X0075713Y0052847D01*
X0075713Y0051347D01*
X0076213Y0050847D01*
X0076213Y0036847D01*
X0075713Y0036347D01*
X0075713Y0034847D01*
X0075715Y0034787D01*
X0075720Y0034726D01*
X0075729Y0034667D01*
X0075742Y0034608D01*
X0075758Y0034549D01*
X0075778Y0034492D01*
X0075801Y0034437D01*
X0075828Y0034382D01*
X0075857Y0034330D01*
X0075890Y0034279D01*
X0075926Y0034230D01*
X0075964Y0034184D01*
X0076006Y0034140D01*
X0076050Y0034098D01*
X0076096Y0034060D01*
X0076145Y0034024D01*
X0076196Y0033991D01*
X0076248Y0033962D01*
X0076303Y0033935D01*
X0076358Y0033912D01*
X0076415Y0033892D01*
X0076474Y0033876D01*
X0076533Y0033863D01*
X0076592Y0033854D01*
X0076653Y0033849D01*
X0076713Y0033847D01*
X0082713Y0033847D01*
X0082773Y0033849D01*
X0082834Y0033854D01*
X0082893Y0033863D01*
X0082952Y0033876D01*
X0083011Y0033892D01*
X0083068Y0033912D01*
X0083123Y0033935D01*
X0083178Y0033962D01*
X0083230Y0033991D01*
X0083281Y0034024D01*
X0083330Y0034060D01*
X0083376Y0034098D01*
X0083420Y0034140D01*
X0083462Y0034184D01*
X0083500Y0034230D01*
X0083536Y0034279D01*
X0083569Y0034330D01*
X0083598Y0034382D01*
X0083625Y0034437D01*
X0083648Y0034492D01*
X0083668Y0034549D01*
X0083684Y0034608D01*
X0083697Y0034667D01*
X0083706Y0034726D01*
X0083711Y0034787D01*
X0083713Y0034847D01*
X0071706Y0035162D02*
X0071706Y0036662D01*
X0071206Y0037162D01*
X0071206Y0051162D01*
X0071706Y0051662D01*
X0071706Y0053162D01*
X0071704Y0053222D01*
X0071699Y0053283D01*
X0071690Y0053342D01*
X0071677Y0053401D01*
X0071661Y0053460D01*
X0071641Y0053517D01*
X0071618Y0053572D01*
X0071591Y0053627D01*
X0071562Y0053679D01*
X0071529Y0053730D01*
X0071493Y0053779D01*
X0071455Y0053825D01*
X0071413Y0053869D01*
X0071369Y0053911D01*
X0071323Y0053949D01*
X0071274Y0053985D01*
X0071223Y0054018D01*
X0071171Y0054047D01*
X0071116Y0054074D01*
X0071061Y0054097D01*
X0071004Y0054117D01*
X0070945Y0054133D01*
X0070886Y0054146D01*
X0070827Y0054155D01*
X0070766Y0054160D01*
X0070706Y0054162D01*
X0064706Y0054162D01*
X0064646Y0054160D01*
X0064585Y0054155D01*
X0064526Y0054146D01*
X0064467Y0054133D01*
X0064408Y0054117D01*
X0064351Y0054097D01*
X0064296Y0054074D01*
X0064241Y0054047D01*
X0064189Y0054018D01*
X0064138Y0053985D01*
X0064089Y0053949D01*
X0064043Y0053911D01*
X0063999Y0053869D01*
X0063957Y0053825D01*
X0063919Y0053779D01*
X0063883Y0053730D01*
X0063850Y0053679D01*
X0063821Y0053627D01*
X0063794Y0053572D01*
X0063771Y0053517D01*
X0063751Y0053460D01*
X0063735Y0053401D01*
X0063722Y0053342D01*
X0063713Y0053283D01*
X0063708Y0053222D01*
X0063706Y0053162D01*
X0063706Y0051662D01*
X0064206Y0051162D01*
X0064206Y0037162D01*
X0063706Y0036662D01*
X0063706Y0035162D01*
X0063708Y0035102D01*
X0063713Y0035041D01*
X0063722Y0034982D01*
X0063735Y0034923D01*
X0063751Y0034864D01*
X0063771Y0034807D01*
X0063794Y0034752D01*
X0063821Y0034697D01*
X0063850Y0034645D01*
X0063883Y0034594D01*
X0063919Y0034545D01*
X0063957Y0034499D01*
X0063999Y0034455D01*
X0064043Y0034413D01*
X0064089Y0034375D01*
X0064138Y0034339D01*
X0064189Y0034306D01*
X0064241Y0034277D01*
X0064296Y0034250D01*
X0064351Y0034227D01*
X0064408Y0034207D01*
X0064467Y0034191D01*
X0064526Y0034178D01*
X0064585Y0034169D01*
X0064646Y0034164D01*
X0064706Y0034162D01*
X0070706Y0034162D01*
X0070766Y0034164D01*
X0070827Y0034169D01*
X0070886Y0034178D01*
X0070945Y0034191D01*
X0071004Y0034207D01*
X0071061Y0034227D01*
X0071116Y0034250D01*
X0071171Y0034277D01*
X0071223Y0034306D01*
X0071274Y0034339D01*
X0071323Y0034375D01*
X0071369Y0034413D01*
X0071413Y0034455D01*
X0071455Y0034499D01*
X0071493Y0034545D01*
X0071529Y0034594D01*
X0071562Y0034645D01*
X0071591Y0034697D01*
X0071618Y0034752D01*
X0071641Y0034807D01*
X0071661Y0034864D01*
X0071677Y0034923D01*
X0071690Y0034982D01*
X0071699Y0035041D01*
X0071704Y0035102D01*
X0071706Y0035162D01*
X0059107Y0035359D02*
X0059107Y0036859D01*
X0058607Y0037359D01*
X0058607Y0051359D01*
X0059107Y0051859D01*
X0059107Y0053359D01*
X0059105Y0053419D01*
X0059100Y0053480D01*
X0059091Y0053539D01*
X0059078Y0053598D01*
X0059062Y0053657D01*
X0059042Y0053714D01*
X0059019Y0053769D01*
X0058992Y0053824D01*
X0058963Y0053876D01*
X0058930Y0053927D01*
X0058894Y0053976D01*
X0058856Y0054022D01*
X0058814Y0054066D01*
X0058770Y0054108D01*
X0058724Y0054146D01*
X0058675Y0054182D01*
X0058624Y0054215D01*
X0058572Y0054244D01*
X0058517Y0054271D01*
X0058462Y0054294D01*
X0058405Y0054314D01*
X0058346Y0054330D01*
X0058287Y0054343D01*
X0058228Y0054352D01*
X0058167Y0054357D01*
X0058107Y0054359D01*
X0052107Y0054359D01*
X0052047Y0054357D01*
X0051986Y0054352D01*
X0051927Y0054343D01*
X0051868Y0054330D01*
X0051809Y0054314D01*
X0051752Y0054294D01*
X0051697Y0054271D01*
X0051642Y0054244D01*
X0051590Y0054215D01*
X0051539Y0054182D01*
X0051490Y0054146D01*
X0051444Y0054108D01*
X0051400Y0054066D01*
X0051358Y0054022D01*
X0051320Y0053976D01*
X0051284Y0053927D01*
X0051251Y0053876D01*
X0051222Y0053824D01*
X0051195Y0053769D01*
X0051172Y0053714D01*
X0051152Y0053657D01*
X0051136Y0053598D01*
X0051123Y0053539D01*
X0051114Y0053480D01*
X0051109Y0053419D01*
X0051107Y0053359D01*
X0051107Y0051859D01*
X0051607Y0051359D01*
X0051607Y0037359D01*
X0051107Y0036859D01*
X0051107Y0035359D01*
X0051109Y0035299D01*
X0051114Y0035238D01*
X0051123Y0035179D01*
X0051136Y0035120D01*
X0051152Y0035061D01*
X0051172Y0035004D01*
X0051195Y0034949D01*
X0051222Y0034894D01*
X0051251Y0034842D01*
X0051284Y0034791D01*
X0051320Y0034742D01*
X0051358Y0034696D01*
X0051400Y0034652D01*
X0051444Y0034610D01*
X0051490Y0034572D01*
X0051539Y0034536D01*
X0051590Y0034503D01*
X0051642Y0034474D01*
X0051697Y0034447D01*
X0051752Y0034424D01*
X0051809Y0034404D01*
X0051868Y0034388D01*
X0051927Y0034375D01*
X0051986Y0034366D01*
X0052047Y0034361D01*
X0052107Y0034359D01*
X0058107Y0034359D01*
X0058167Y0034361D01*
X0058228Y0034366D01*
X0058287Y0034375D01*
X0058346Y0034388D01*
X0058405Y0034404D01*
X0058462Y0034424D01*
X0058517Y0034447D01*
X0058572Y0034474D01*
X0058624Y0034503D01*
X0058675Y0034536D01*
X0058724Y0034572D01*
X0058770Y0034610D01*
X0058814Y0034652D01*
X0058856Y0034696D01*
X0058894Y0034742D01*
X0058930Y0034791D01*
X0058963Y0034842D01*
X0058992Y0034894D01*
X0059019Y0034949D01*
X0059042Y0035004D01*
X0059062Y0035061D01*
X0059078Y0035120D01*
X0059091Y0035179D01*
X0059100Y0035238D01*
X0059105Y0035299D01*
X0059107Y0035359D01*
X0057925Y0022285D02*
X0057925Y0015880D01*
X0055790Y0020150D02*
X0057925Y0022285D01*
X0008650Y0046682D02*
X0008653Y0046927D01*
X0008662Y0047173D01*
X0008677Y0047418D01*
X0008698Y0047662D01*
X0008725Y0047906D01*
X0008758Y0048149D01*
X0008797Y0048392D01*
X0008842Y0048633D01*
X0008893Y0048873D01*
X0008950Y0049112D01*
X0009012Y0049349D01*
X0009081Y0049585D01*
X0009155Y0049819D01*
X0009235Y0050051D01*
X0009320Y0050281D01*
X0009411Y0050509D01*
X0009508Y0050734D01*
X0009610Y0050958D01*
X0009718Y0051178D01*
X0009831Y0051396D01*
X0009949Y0051611D01*
X0010073Y0051823D01*
X0010201Y0052032D01*
X0010335Y0052238D01*
X0010474Y0052440D01*
X0010618Y0052639D01*
X0010767Y0052834D01*
X0010920Y0053026D01*
X0011078Y0053214D01*
X0011240Y0053398D01*
X0011408Y0053577D01*
X0011579Y0053753D01*
X0011755Y0053924D01*
X0011934Y0054092D01*
X0012118Y0054254D01*
X0012306Y0054412D01*
X0012498Y0054565D01*
X0012693Y0054714D01*
X0012892Y0054858D01*
X0013094Y0054997D01*
X0013300Y0055131D01*
X0013509Y0055259D01*
X0013721Y0055383D01*
X0013936Y0055501D01*
X0014154Y0055614D01*
X0014374Y0055722D01*
X0014598Y0055824D01*
X0014823Y0055921D01*
X0015051Y0056012D01*
X0015281Y0056097D01*
X0015513Y0056177D01*
X0015747Y0056251D01*
X0015983Y0056320D01*
X0016220Y0056382D01*
X0016459Y0056439D01*
X0016699Y0056490D01*
X0016940Y0056535D01*
X0017183Y0056574D01*
X0017426Y0056607D01*
X0017670Y0056634D01*
X0017914Y0056655D01*
X0018159Y0056670D01*
X0018405Y0056679D01*
X0018650Y0056682D01*
X0018895Y0056679D01*
X0019141Y0056670D01*
X0019386Y0056655D01*
X0019630Y0056634D01*
X0019874Y0056607D01*
X0020117Y0056574D01*
X0020360Y0056535D01*
X0020601Y0056490D01*
X0020841Y0056439D01*
X0021080Y0056382D01*
X0021317Y0056320D01*
X0021553Y0056251D01*
X0021787Y0056177D01*
X0022019Y0056097D01*
X0022249Y0056012D01*
X0022477Y0055921D01*
X0022702Y0055824D01*
X0022926Y0055722D01*
X0023146Y0055614D01*
X0023364Y0055501D01*
X0023579Y0055383D01*
X0023791Y0055259D01*
X0024000Y0055131D01*
X0024206Y0054997D01*
X0024408Y0054858D01*
X0024607Y0054714D01*
X0024802Y0054565D01*
X0024994Y0054412D01*
X0025182Y0054254D01*
X0025366Y0054092D01*
X0025545Y0053924D01*
X0025721Y0053753D01*
X0025892Y0053577D01*
X0026060Y0053398D01*
X0026222Y0053214D01*
X0026380Y0053026D01*
X0026533Y0052834D01*
X0026682Y0052639D01*
X0026826Y0052440D01*
X0026965Y0052238D01*
X0027099Y0052032D01*
X0027227Y0051823D01*
X0027351Y0051611D01*
X0027469Y0051396D01*
X0027582Y0051178D01*
X0027690Y0050958D01*
X0027792Y0050734D01*
X0027889Y0050509D01*
X0027980Y0050281D01*
X0028065Y0050051D01*
X0028145Y0049819D01*
X0028219Y0049585D01*
X0028288Y0049349D01*
X0028350Y0049112D01*
X0028407Y0048873D01*
X0028458Y0048633D01*
X0028503Y0048392D01*
X0028542Y0048149D01*
X0028575Y0047906D01*
X0028602Y0047662D01*
X0028623Y0047418D01*
X0028638Y0047173D01*
X0028647Y0046927D01*
X0028650Y0046682D01*
X0028647Y0046437D01*
X0028638Y0046191D01*
X0028623Y0045946D01*
X0028602Y0045702D01*
X0028575Y0045458D01*
X0028542Y0045215D01*
X0028503Y0044972D01*
X0028458Y0044731D01*
X0028407Y0044491D01*
X0028350Y0044252D01*
X0028288Y0044015D01*
X0028219Y0043779D01*
X0028145Y0043545D01*
X0028065Y0043313D01*
X0027980Y0043083D01*
X0027889Y0042855D01*
X0027792Y0042630D01*
X0027690Y0042406D01*
X0027582Y0042186D01*
X0027469Y0041968D01*
X0027351Y0041753D01*
X0027227Y0041541D01*
X0027099Y0041332D01*
X0026965Y0041126D01*
X0026826Y0040924D01*
X0026682Y0040725D01*
X0026533Y0040530D01*
X0026380Y0040338D01*
X0026222Y0040150D01*
X0026060Y0039966D01*
X0025892Y0039787D01*
X0025721Y0039611D01*
X0025545Y0039440D01*
X0025366Y0039272D01*
X0025182Y0039110D01*
X0024994Y0038952D01*
X0024802Y0038799D01*
X0024607Y0038650D01*
X0024408Y0038506D01*
X0024206Y0038367D01*
X0024000Y0038233D01*
X0023791Y0038105D01*
X0023579Y0037981D01*
X0023364Y0037863D01*
X0023146Y0037750D01*
X0022926Y0037642D01*
X0022702Y0037540D01*
X0022477Y0037443D01*
X0022249Y0037352D01*
X0022019Y0037267D01*
X0021787Y0037187D01*
X0021553Y0037113D01*
X0021317Y0037044D01*
X0021080Y0036982D01*
X0020841Y0036925D01*
X0020601Y0036874D01*
X0020360Y0036829D01*
X0020117Y0036790D01*
X0019874Y0036757D01*
X0019630Y0036730D01*
X0019386Y0036709D01*
X0019141Y0036694D01*
X0018895Y0036685D01*
X0018650Y0036682D01*
X0018405Y0036685D01*
X0018159Y0036694D01*
X0017914Y0036709D01*
X0017670Y0036730D01*
X0017426Y0036757D01*
X0017183Y0036790D01*
X0016940Y0036829D01*
X0016699Y0036874D01*
X0016459Y0036925D01*
X0016220Y0036982D01*
X0015983Y0037044D01*
X0015747Y0037113D01*
X0015513Y0037187D01*
X0015281Y0037267D01*
X0015051Y0037352D01*
X0014823Y0037443D01*
X0014598Y0037540D01*
X0014374Y0037642D01*
X0014154Y0037750D01*
X0013936Y0037863D01*
X0013721Y0037981D01*
X0013509Y0038105D01*
X0013300Y0038233D01*
X0013094Y0038367D01*
X0012892Y0038506D01*
X0012693Y0038650D01*
X0012498Y0038799D01*
X0012306Y0038952D01*
X0012118Y0039110D01*
X0011934Y0039272D01*
X0011755Y0039440D01*
X0011579Y0039611D01*
X0011408Y0039787D01*
X0011240Y0039966D01*
X0011078Y0040150D01*
X0010920Y0040338D01*
X0010767Y0040530D01*
X0010618Y0040725D01*
X0010474Y0040924D01*
X0010335Y0041126D01*
X0010201Y0041332D01*
X0010073Y0041541D01*
X0009949Y0041753D01*
X0009831Y0041968D01*
X0009718Y0042186D01*
X0009610Y0042406D01*
X0009508Y0042630D01*
X0009411Y0042855D01*
X0009320Y0043083D01*
X0009235Y0043313D01*
X0009155Y0043545D01*
X0009081Y0043779D01*
X0009012Y0044015D01*
X0008950Y0044252D01*
X0008893Y0044491D01*
X0008842Y0044731D01*
X0008797Y0044972D01*
X0008758Y0045215D01*
X0008725Y0045458D01*
X0008698Y0045702D01*
X0008677Y0045946D01*
X0008662Y0046191D01*
X0008653Y0046437D01*
X0008650Y0046682D01*
X0008493Y0072863D02*
X0008496Y0073108D01*
X0008505Y0073354D01*
X0008520Y0073599D01*
X0008541Y0073843D01*
X0008568Y0074087D01*
X0008601Y0074330D01*
X0008640Y0074573D01*
X0008685Y0074814D01*
X0008736Y0075054D01*
X0008793Y0075293D01*
X0008855Y0075530D01*
X0008924Y0075766D01*
X0008998Y0076000D01*
X0009078Y0076232D01*
X0009163Y0076462D01*
X0009254Y0076690D01*
X0009351Y0076915D01*
X0009453Y0077139D01*
X0009561Y0077359D01*
X0009674Y0077577D01*
X0009792Y0077792D01*
X0009916Y0078004D01*
X0010044Y0078213D01*
X0010178Y0078419D01*
X0010317Y0078621D01*
X0010461Y0078820D01*
X0010610Y0079015D01*
X0010763Y0079207D01*
X0010921Y0079395D01*
X0011083Y0079579D01*
X0011251Y0079758D01*
X0011422Y0079934D01*
X0011598Y0080105D01*
X0011777Y0080273D01*
X0011961Y0080435D01*
X0012149Y0080593D01*
X0012341Y0080746D01*
X0012536Y0080895D01*
X0012735Y0081039D01*
X0012937Y0081178D01*
X0013143Y0081312D01*
X0013352Y0081440D01*
X0013564Y0081564D01*
X0013779Y0081682D01*
X0013997Y0081795D01*
X0014217Y0081903D01*
X0014441Y0082005D01*
X0014666Y0082102D01*
X0014894Y0082193D01*
X0015124Y0082278D01*
X0015356Y0082358D01*
X0015590Y0082432D01*
X0015826Y0082501D01*
X0016063Y0082563D01*
X0016302Y0082620D01*
X0016542Y0082671D01*
X0016783Y0082716D01*
X0017026Y0082755D01*
X0017269Y0082788D01*
X0017513Y0082815D01*
X0017757Y0082836D01*
X0018002Y0082851D01*
X0018248Y0082860D01*
X0018493Y0082863D01*
X0018738Y0082860D01*
X0018984Y0082851D01*
X0019229Y0082836D01*
X0019473Y0082815D01*
X0019717Y0082788D01*
X0019960Y0082755D01*
X0020203Y0082716D01*
X0020444Y0082671D01*
X0020684Y0082620D01*
X0020923Y0082563D01*
X0021160Y0082501D01*
X0021396Y0082432D01*
X0021630Y0082358D01*
X0021862Y0082278D01*
X0022092Y0082193D01*
X0022320Y0082102D01*
X0022545Y0082005D01*
X0022769Y0081903D01*
X0022989Y0081795D01*
X0023207Y0081682D01*
X0023422Y0081564D01*
X0023634Y0081440D01*
X0023843Y0081312D01*
X0024049Y0081178D01*
X0024251Y0081039D01*
X0024450Y0080895D01*
X0024645Y0080746D01*
X0024837Y0080593D01*
X0025025Y0080435D01*
X0025209Y0080273D01*
X0025388Y0080105D01*
X0025564Y0079934D01*
X0025735Y0079758D01*
X0025903Y0079579D01*
X0026065Y0079395D01*
X0026223Y0079207D01*
X0026376Y0079015D01*
X0026525Y0078820D01*
X0026669Y0078621D01*
X0026808Y0078419D01*
X0026942Y0078213D01*
X0027070Y0078004D01*
X0027194Y0077792D01*
X0027312Y0077577D01*
X0027425Y0077359D01*
X0027533Y0077139D01*
X0027635Y0076915D01*
X0027732Y0076690D01*
X0027823Y0076462D01*
X0027908Y0076232D01*
X0027988Y0076000D01*
X0028062Y0075766D01*
X0028131Y0075530D01*
X0028193Y0075293D01*
X0028250Y0075054D01*
X0028301Y0074814D01*
X0028346Y0074573D01*
X0028385Y0074330D01*
X0028418Y0074087D01*
X0028445Y0073843D01*
X0028466Y0073599D01*
X0028481Y0073354D01*
X0028490Y0073108D01*
X0028493Y0072863D01*
X0028490Y0072618D01*
X0028481Y0072372D01*
X0028466Y0072127D01*
X0028445Y0071883D01*
X0028418Y0071639D01*
X0028385Y0071396D01*
X0028346Y0071153D01*
X0028301Y0070912D01*
X0028250Y0070672D01*
X0028193Y0070433D01*
X0028131Y0070196D01*
X0028062Y0069960D01*
X0027988Y0069726D01*
X0027908Y0069494D01*
X0027823Y0069264D01*
X0027732Y0069036D01*
X0027635Y0068811D01*
X0027533Y0068587D01*
X0027425Y0068367D01*
X0027312Y0068149D01*
X0027194Y0067934D01*
X0027070Y0067722D01*
X0026942Y0067513D01*
X0026808Y0067307D01*
X0026669Y0067105D01*
X0026525Y0066906D01*
X0026376Y0066711D01*
X0026223Y0066519D01*
X0026065Y0066331D01*
X0025903Y0066147D01*
X0025735Y0065968D01*
X0025564Y0065792D01*
X0025388Y0065621D01*
X0025209Y0065453D01*
X0025025Y0065291D01*
X0024837Y0065133D01*
X0024645Y0064980D01*
X0024450Y0064831D01*
X0024251Y0064687D01*
X0024049Y0064548D01*
X0023843Y0064414D01*
X0023634Y0064286D01*
X0023422Y0064162D01*
X0023207Y0064044D01*
X0022989Y0063931D01*
X0022769Y0063823D01*
X0022545Y0063721D01*
X0022320Y0063624D01*
X0022092Y0063533D01*
X0021862Y0063448D01*
X0021630Y0063368D01*
X0021396Y0063294D01*
X0021160Y0063225D01*
X0020923Y0063163D01*
X0020684Y0063106D01*
X0020444Y0063055D01*
X0020203Y0063010D01*
X0019960Y0062971D01*
X0019717Y0062938D01*
X0019473Y0062911D01*
X0019229Y0062890D01*
X0018984Y0062875D01*
X0018738Y0062866D01*
X0018493Y0062863D01*
X0018248Y0062866D01*
X0018002Y0062875D01*
X0017757Y0062890D01*
X0017513Y0062911D01*
X0017269Y0062938D01*
X0017026Y0062971D01*
X0016783Y0063010D01*
X0016542Y0063055D01*
X0016302Y0063106D01*
X0016063Y0063163D01*
X0015826Y0063225D01*
X0015590Y0063294D01*
X0015356Y0063368D01*
X0015124Y0063448D01*
X0014894Y0063533D01*
X0014666Y0063624D01*
X0014441Y0063721D01*
X0014217Y0063823D01*
X0013997Y0063931D01*
X0013779Y0064044D01*
X0013564Y0064162D01*
X0013352Y0064286D01*
X0013143Y0064414D01*
X0012937Y0064548D01*
X0012735Y0064687D01*
X0012536Y0064831D01*
X0012341Y0064980D01*
X0012149Y0065133D01*
X0011961Y0065291D01*
X0011777Y0065453D01*
X0011598Y0065621D01*
X0011422Y0065792D01*
X0011251Y0065968D01*
X0011083Y0066147D01*
X0010921Y0066331D01*
X0010763Y0066519D01*
X0010610Y0066711D01*
X0010461Y0066906D01*
X0010317Y0067105D01*
X0010178Y0067307D01*
X0010044Y0067513D01*
X0009916Y0067722D01*
X0009792Y0067934D01*
X0009674Y0068149D01*
X0009561Y0068367D01*
X0009453Y0068587D01*
X0009351Y0068811D01*
X0009254Y0069036D01*
X0009163Y0069264D01*
X0009078Y0069494D01*
X0008998Y0069726D01*
X0008924Y0069960D01*
X0008855Y0070196D01*
X0008793Y0070433D01*
X0008736Y0070672D01*
X0008685Y0070912D01*
X0008640Y0071153D01*
X0008601Y0071396D01*
X0008568Y0071639D01*
X0008541Y0071883D01*
X0008520Y0072127D01*
X0008505Y0072372D01*
X0008496Y0072618D01*
X0008493Y0072863D01*
X0009974Y0084777D02*
X0014244Y0084777D01*
X0016420Y0084777D02*
X0020690Y0084777D01*
X0022865Y0084777D02*
X0026068Y0084777D01*
X0027135Y0085845D01*
X0027135Y0090115D01*
X0026068Y0091183D01*
X0022865Y0091183D01*
X0022865Y0084777D01*
X0018555Y0087980D02*
X0016420Y0087980D01*
X0016420Y0091183D02*
X0016420Y0084777D01*
X0016420Y0091183D02*
X0020690Y0091183D01*
X0009974Y0091183D02*
X0009974Y0084777D01*
X0049344Y0084777D02*
X0049344Y0091183D01*
X0052547Y0091183D01*
X0053614Y0090115D01*
X0053614Y0087980D01*
X0052547Y0086912D01*
X0049344Y0086912D01*
X0055790Y0085845D02*
X0056857Y0084777D01*
X0058992Y0084777D01*
X0060060Y0085845D01*
X0062235Y0084777D02*
X0062235Y0091183D01*
X0066505Y0091183D01*
X0068681Y0090115D02*
X0068681Y0089047D01*
X0069748Y0087980D01*
X0071883Y0087980D01*
X0072951Y0086912D01*
X0072951Y0085845D01*
X0071883Y0084777D01*
X0069748Y0084777D01*
X0068681Y0085845D01*
X0068681Y0086912D01*
X0069748Y0087980D01*
X0071883Y0087980D02*
X0072951Y0089047D01*
X0072951Y0090115D01*
X0071883Y0091183D01*
X0069748Y0091183D01*
X0068681Y0090115D01*
X0064370Y0087980D02*
X0062235Y0087980D01*
X0060060Y0090115D02*
X0058992Y0091183D01*
X0056857Y0091183D01*
X0055790Y0090115D01*
X0055790Y0085845D01*
X0063124Y0081340D02*
X0066326Y0081340D01*
X0067394Y0080273D01*
X0067394Y0078137D01*
X0066326Y0077070D01*
X0063124Y0077070D01*
X0065259Y0077070D02*
X0067394Y0074935D01*
X0069569Y0074935D02*
X0069569Y0076002D01*
X0073839Y0080273D01*
X0073839Y0081340D01*
X0069569Y0081340D01*
X0063124Y0081340D02*
X0063124Y0074935D01*
X0059209Y0072898D02*
X0073209Y0072898D01*
X0073709Y0073398D01*
X0075209Y0073398D01*
X0075269Y0073396D01*
X0075330Y0073391D01*
X0075389Y0073382D01*
X0075448Y0073369D01*
X0075507Y0073353D01*
X0075564Y0073333D01*
X0075619Y0073310D01*
X0075674Y0073283D01*
X0075726Y0073254D01*
X0075777Y0073221D01*
X0075826Y0073185D01*
X0075872Y0073147D01*
X0075916Y0073105D01*
X0075958Y0073061D01*
X0075996Y0073015D01*
X0076032Y0072966D01*
X0076065Y0072915D01*
X0076094Y0072863D01*
X0076121Y0072808D01*
X0076144Y0072753D01*
X0076164Y0072696D01*
X0076180Y0072637D01*
X0076193Y0072578D01*
X0076202Y0072519D01*
X0076207Y0072458D01*
X0076209Y0072398D01*
X0076209Y0066398D01*
X0076207Y0066338D01*
X0076202Y0066277D01*
X0076193Y0066218D01*
X0076180Y0066159D01*
X0076164Y0066100D01*
X0076144Y0066043D01*
X0076121Y0065988D01*
X0076094Y0065933D01*
X0076065Y0065881D01*
X0076032Y0065830D01*
X0075996Y0065781D01*
X0075958Y0065735D01*
X0075916Y0065691D01*
X0075872Y0065649D01*
X0075826Y0065611D01*
X0075777Y0065575D01*
X0075726Y0065542D01*
X0075674Y0065513D01*
X0075619Y0065486D01*
X0075564Y0065463D01*
X0075507Y0065443D01*
X0075448Y0065427D01*
X0075389Y0065414D01*
X0075330Y0065405D01*
X0075269Y0065400D01*
X0075209Y0065398D01*
X0073709Y0065398D01*
X0073209Y0065898D01*
X0059209Y0065898D01*
X0058709Y0065398D01*
X0057209Y0065398D01*
X0057149Y0065400D01*
X0057088Y0065405D01*
X0057029Y0065414D01*
X0056970Y0065427D01*
X0056911Y0065443D01*
X0056854Y0065463D01*
X0056799Y0065486D01*
X0056744Y0065513D01*
X0056692Y0065542D01*
X0056641Y0065575D01*
X0056592Y0065611D01*
X0056546Y0065649D01*
X0056502Y0065691D01*
X0056460Y0065735D01*
X0056422Y0065781D01*
X0056386Y0065830D01*
X0056353Y0065881D01*
X0056324Y0065933D01*
X0056297Y0065988D01*
X0056274Y0066043D01*
X0056254Y0066100D01*
X0056238Y0066159D01*
X0056225Y0066218D01*
X0056216Y0066277D01*
X0056211Y0066338D01*
X0056209Y0066398D01*
X0056209Y0072398D01*
X0056211Y0072458D01*
X0056216Y0072519D01*
X0056225Y0072578D01*
X0056238Y0072637D01*
X0056254Y0072696D01*
X0056274Y0072753D01*
X0056297Y0072808D01*
X0056324Y0072863D01*
X0056353Y0072915D01*
X0056386Y0072966D01*
X0056422Y0073015D01*
X0056460Y0073061D01*
X0056502Y0073105D01*
X0056546Y0073147D01*
X0056592Y0073185D01*
X0056641Y0073221D01*
X0056692Y0073254D01*
X0056744Y0073283D01*
X0056799Y0073310D01*
X0056854Y0073333D01*
X0056911Y0073353D01*
X0056970Y0073369D01*
X0057029Y0073382D01*
X0057088Y0073391D01*
X0057149Y0073396D01*
X0057209Y0073398D01*
X0058709Y0073398D01*
X0059209Y0072898D01*
X0075126Y0085845D02*
X0076194Y0084777D01*
X0078329Y0084777D01*
X0079396Y0085845D01*
X0079396Y0087980D01*
X0078329Y0089047D01*
X0077261Y0089047D01*
X0075126Y0087980D01*
X0075126Y0091183D01*
X0079396Y0091183D01*
X0081572Y0090115D02*
X0081572Y0089047D01*
X0082639Y0087980D01*
X0085842Y0087980D01*
X0085842Y0090115D02*
X0084774Y0091183D01*
X0082639Y0091183D01*
X0081572Y0090115D01*
X0085842Y0090115D02*
X0085842Y0085845D01*
X0084774Y0084777D01*
X0082639Y0084777D01*
X0081572Y0085845D01*
X0088017Y0084777D02*
X0092287Y0084777D01*
X0090152Y0084777D02*
X0090152Y0091183D01*
X0088017Y0089047D01*
X0094463Y0091183D02*
X0098733Y0091183D01*
X0096598Y0091183D02*
X0096598Y0084777D01*
X0102494Y0081340D02*
X0105696Y0081340D01*
X0106764Y0080273D01*
X0106764Y0078137D01*
X0105696Y0077070D01*
X0102494Y0077070D01*
X0104629Y0077070D02*
X0106764Y0074935D01*
X0108939Y0076002D02*
X0108939Y0077070D01*
X0110007Y0078137D01*
X0112142Y0078137D01*
X0113210Y0077070D01*
X0113210Y0076002D01*
X0112142Y0074935D01*
X0110007Y0074935D01*
X0108939Y0076002D01*
X0110007Y0078137D02*
X0108939Y0079205D01*
X0108939Y0080273D01*
X0110007Y0081340D01*
X0112142Y0081340D01*
X0113210Y0080273D01*
X0113210Y0079205D01*
X0112142Y0078137D01*
X0114339Y0073398D02*
X0113839Y0072898D01*
X0099839Y0072898D01*
X0099339Y0073398D01*
X0097839Y0073398D01*
X0097779Y0073396D01*
X0097718Y0073391D01*
X0097659Y0073382D01*
X0097600Y0073369D01*
X0097541Y0073353D01*
X0097484Y0073333D01*
X0097429Y0073310D01*
X0097374Y0073283D01*
X0097322Y0073254D01*
X0097271Y0073221D01*
X0097222Y0073185D01*
X0097176Y0073147D01*
X0097132Y0073105D01*
X0097090Y0073061D01*
X0097052Y0073015D01*
X0097016Y0072966D01*
X0096983Y0072915D01*
X0096954Y0072863D01*
X0096927Y0072808D01*
X0096904Y0072753D01*
X0096884Y0072696D01*
X0096868Y0072637D01*
X0096855Y0072578D01*
X0096846Y0072519D01*
X0096841Y0072458D01*
X0096839Y0072398D01*
X0096839Y0066398D01*
X0096841Y0066338D01*
X0096846Y0066277D01*
X0096855Y0066218D01*
X0096868Y0066159D01*
X0096884Y0066100D01*
X0096904Y0066043D01*
X0096927Y0065988D01*
X0096954Y0065933D01*
X0096983Y0065881D01*
X0097016Y0065830D01*
X0097052Y0065781D01*
X0097090Y0065735D01*
X0097132Y0065691D01*
X0097176Y0065649D01*
X0097222Y0065611D01*
X0097271Y0065575D01*
X0097322Y0065542D01*
X0097374Y0065513D01*
X0097429Y0065486D01*
X0097484Y0065463D01*
X0097541Y0065443D01*
X0097600Y0065427D01*
X0097659Y0065414D01*
X0097718Y0065405D01*
X0097779Y0065400D01*
X0097839Y0065398D01*
X0099339Y0065398D01*
X0099839Y0065898D01*
X0113839Y0065898D01*
X0114339Y0065398D01*
X0115839Y0065398D01*
X0115899Y0065400D01*
X0115960Y0065405D01*
X0116019Y0065414D01*
X0116078Y0065427D01*
X0116137Y0065443D01*
X0116194Y0065463D01*
X0116249Y0065486D01*
X0116304Y0065513D01*
X0116356Y0065542D01*
X0116407Y0065575D01*
X0116456Y0065611D01*
X0116502Y0065649D01*
X0116546Y0065691D01*
X0116588Y0065735D01*
X0116626Y0065781D01*
X0116662Y0065830D01*
X0116695Y0065881D01*
X0116724Y0065933D01*
X0116751Y0065988D01*
X0116774Y0066043D01*
X0116794Y0066100D01*
X0116810Y0066159D01*
X0116823Y0066218D01*
X0116832Y0066277D01*
X0116837Y0066338D01*
X0116839Y0066398D01*
X0116839Y0072398D01*
X0116837Y0072458D01*
X0116832Y0072519D01*
X0116823Y0072578D01*
X0116810Y0072637D01*
X0116794Y0072696D01*
X0116774Y0072753D01*
X0116751Y0072808D01*
X0116724Y0072863D01*
X0116695Y0072915D01*
X0116662Y0072966D01*
X0116626Y0073015D01*
X0116588Y0073061D01*
X0116546Y0073105D01*
X0116502Y0073147D01*
X0116456Y0073185D01*
X0116407Y0073221D01*
X0116356Y0073254D01*
X0116304Y0073283D01*
X0116249Y0073310D01*
X0116194Y0073333D01*
X0116137Y0073353D01*
X0116078Y0073369D01*
X0116019Y0073382D01*
X0115960Y0073391D01*
X0115899Y0073396D01*
X0115839Y0073398D01*
X0114339Y0073398D01*
X0102494Y0074935D02*
X0102494Y0081340D01*
X0107354Y0084777D02*
X0107354Y0091183D01*
X0109489Y0089047D01*
X0111624Y0091183D01*
X0111624Y0084777D01*
X0113799Y0085845D02*
X0113799Y0087980D01*
X0114867Y0089047D01*
X0117002Y0089047D01*
X0118069Y0087980D01*
X0118069Y0085845D01*
X0117002Y0084777D01*
X0114867Y0084777D01*
X0113799Y0085845D01*
X0120245Y0085845D02*
X0120245Y0087980D01*
X0121312Y0089047D01*
X0124515Y0089047D01*
X0124515Y0091183D02*
X0124515Y0084777D01*
X0121312Y0084777D01*
X0120245Y0085845D01*
X0126690Y0085845D02*
X0127758Y0084777D01*
X0130960Y0084777D01*
X0130960Y0089047D01*
X0133136Y0091183D02*
X0134203Y0091183D01*
X0134203Y0084777D01*
X0133136Y0084777D02*
X0135271Y0084777D01*
X0137433Y0085845D02*
X0137433Y0087980D01*
X0138500Y0089047D01*
X0140635Y0089047D01*
X0141703Y0087980D01*
X0141703Y0086912D01*
X0137433Y0086912D01*
X0137433Y0085845D02*
X0138500Y0084777D01*
X0140635Y0084777D01*
X0149560Y0086662D02*
X0149560Y0081662D01*
X0149562Y0081575D01*
X0149568Y0081488D01*
X0149577Y0081401D01*
X0149590Y0081315D01*
X0149607Y0081229D01*
X0149628Y0081144D01*
X0149653Y0081061D01*
X0149681Y0080978D01*
X0149712Y0080897D01*
X0149747Y0080817D01*
X0149786Y0080739D01*
X0149828Y0080662D01*
X0149873Y0080587D01*
X0149922Y0080515D01*
X0149973Y0080444D01*
X0150028Y0080376D01*
X0150085Y0080311D01*
X0150146Y0080248D01*
X0150209Y0080187D01*
X0150274Y0080130D01*
X0150342Y0080075D01*
X0150413Y0080024D01*
X0150485Y0079975D01*
X0150560Y0079930D01*
X0150637Y0079888D01*
X0150715Y0079849D01*
X0150795Y0079814D01*
X0150876Y0079783D01*
X0150959Y0079755D01*
X0151042Y0079730D01*
X0151127Y0079709D01*
X0151213Y0079692D01*
X0151299Y0079679D01*
X0151386Y0079670D01*
X0151473Y0079664D01*
X0151560Y0079662D01*
X0164560Y0079662D01*
X0164647Y0079664D01*
X0164734Y0079670D01*
X0164821Y0079679D01*
X0164907Y0079692D01*
X0164993Y0079709D01*
X0165078Y0079730D01*
X0165161Y0079755D01*
X0165244Y0079783D01*
X0165325Y0079814D01*
X0165405Y0079849D01*
X0165483Y0079888D01*
X0165560Y0079930D01*
X0165635Y0079975D01*
X0165707Y0080024D01*
X0165778Y0080075D01*
X0165846Y0080130D01*
X0165911Y0080187D01*
X0165974Y0080248D01*
X0166035Y0080311D01*
X0166092Y0080376D01*
X0166147Y0080444D01*
X0166198Y0080515D01*
X0166247Y0080587D01*
X0166292Y0080662D01*
X0166334Y0080739D01*
X0166373Y0080817D01*
X0166408Y0080897D01*
X0166439Y0080978D01*
X0166467Y0081061D01*
X0166492Y0081144D01*
X0166513Y0081229D01*
X0166530Y0081315D01*
X0166543Y0081401D01*
X0166552Y0081488D01*
X0166558Y0081575D01*
X0166560Y0081662D01*
X0166560Y0086662D01*
X0166558Y0086749D01*
X0166552Y0086836D01*
X0166543Y0086923D01*
X0166530Y0087009D01*
X0166513Y0087095D01*
X0166492Y0087180D01*
X0166467Y0087263D01*
X0166439Y0087346D01*
X0166408Y0087427D01*
X0166373Y0087507D01*
X0166334Y0087585D01*
X0166292Y0087662D01*
X0166247Y0087737D01*
X0166198Y0087809D01*
X0166147Y0087880D01*
X0166092Y0087948D01*
X0166035Y0088013D01*
X0165974Y0088076D01*
X0165911Y0088137D01*
X0165846Y0088194D01*
X0165778Y0088249D01*
X0165707Y0088300D01*
X0165635Y0088349D01*
X0165560Y0088394D01*
X0165483Y0088436D01*
X0165405Y0088475D01*
X0165325Y0088510D01*
X0165244Y0088541D01*
X0165161Y0088569D01*
X0165078Y0088594D01*
X0164993Y0088615D01*
X0164907Y0088632D01*
X0164821Y0088645D01*
X0164734Y0088654D01*
X0164647Y0088660D01*
X0164560Y0088662D01*
X0151560Y0088662D01*
X0151473Y0088660D01*
X0151386Y0088654D01*
X0151299Y0088645D01*
X0151213Y0088632D01*
X0151127Y0088615D01*
X0151042Y0088594D01*
X0150959Y0088569D01*
X0150876Y0088541D01*
X0150795Y0088510D01*
X0150715Y0088475D01*
X0150637Y0088436D01*
X0150560Y0088394D01*
X0150485Y0088349D01*
X0150413Y0088300D01*
X0150342Y0088249D01*
X0150274Y0088194D01*
X0150209Y0088137D01*
X0150146Y0088076D01*
X0150085Y0088013D01*
X0150028Y0087948D01*
X0149973Y0087880D01*
X0149922Y0087809D01*
X0149873Y0087737D01*
X0149828Y0087662D01*
X0149786Y0087585D01*
X0149747Y0087507D01*
X0149712Y0087427D01*
X0149681Y0087346D01*
X0149653Y0087263D01*
X0149628Y0087180D01*
X0149607Y0087095D01*
X0149590Y0087009D01*
X0149577Y0086923D01*
X0149568Y0086836D01*
X0149562Y0086749D01*
X0149560Y0086662D01*
X0152774Y0090683D02*
X0154909Y0090683D01*
X0155977Y0091750D01*
X0158152Y0090683D02*
X0162422Y0094953D01*
X0162422Y0096021D01*
X0161355Y0097088D01*
X0159219Y0097088D01*
X0158152Y0096021D01*
X0155977Y0096021D02*
X0154909Y0097088D01*
X0152774Y0097088D01*
X0151706Y0096021D01*
X0151706Y0091750D01*
X0152774Y0090683D01*
X0158152Y0090683D02*
X0162422Y0090683D01*
X0167454Y0088714D02*
X0167454Y0095120D01*
X0173900Y0095120D02*
X0176035Y0092984D01*
X0178170Y0095120D01*
X0178170Y0088714D01*
X0180345Y0089782D02*
X0181413Y0088714D01*
X0183548Y0088714D01*
X0184616Y0089782D01*
X0184616Y0090849D01*
X0183548Y0091917D01*
X0182480Y0091917D01*
X0183548Y0091917D02*
X0184616Y0092984D01*
X0184616Y0094052D01*
X0183548Y0095120D01*
X0181413Y0095120D01*
X0180345Y0094052D01*
X0173900Y0095120D02*
X0173900Y0088714D01*
X0171725Y0088714D02*
X0167454Y0088714D01*
X0164363Y0072954D02*
X0151363Y0072954D01*
X0151276Y0072952D01*
X0151189Y0072946D01*
X0151102Y0072937D01*
X0151016Y0072924D01*
X0150930Y0072907D01*
X0150845Y0072886D01*
X0150762Y0072861D01*
X0150679Y0072833D01*
X0150598Y0072802D01*
X0150518Y0072767D01*
X0150440Y0072728D01*
X0150363Y0072686D01*
X0150288Y0072641D01*
X0150216Y0072592D01*
X0150145Y0072541D01*
X0150077Y0072486D01*
X0150012Y0072429D01*
X0149949Y0072368D01*
X0149888Y0072305D01*
X0149831Y0072240D01*
X0149776Y0072172D01*
X0149725Y0072101D01*
X0149676Y0072029D01*
X0149631Y0071954D01*
X0149589Y0071877D01*
X0149550Y0071799D01*
X0149515Y0071719D01*
X0149484Y0071638D01*
X0149456Y0071555D01*
X0149431Y0071472D01*
X0149410Y0071387D01*
X0149393Y0071301D01*
X0149380Y0071215D01*
X0149371Y0071128D01*
X0149365Y0071041D01*
X0149363Y0070954D01*
X0149363Y0065954D01*
X0149365Y0065867D01*
X0149371Y0065780D01*
X0149380Y0065693D01*
X0149393Y0065607D01*
X0149410Y0065521D01*
X0149431Y0065436D01*
X0149456Y0065353D01*
X0149484Y0065270D01*
X0149515Y0065189D01*
X0149550Y0065109D01*
X0149589Y0065031D01*
X0149631Y0064954D01*
X0149676Y0064879D01*
X0149725Y0064807D01*
X0149776Y0064736D01*
X0149831Y0064668D01*
X0149888Y0064603D01*
X0149949Y0064540D01*
X0150012Y0064479D01*
X0150077Y0064422D01*
X0150145Y0064367D01*
X0150216Y0064316D01*
X0150288Y0064267D01*
X0150363Y0064222D01*
X0150440Y0064180D01*
X0150518Y0064141D01*
X0150598Y0064106D01*
X0150679Y0064075D01*
X0150762Y0064047D01*
X0150845Y0064022D01*
X0150930Y0064001D01*
X0151016Y0063984D01*
X0151102Y0063971D01*
X0151189Y0063962D01*
X0151276Y0063956D01*
X0151363Y0063954D01*
X0164363Y0063954D01*
X0164450Y0063956D01*
X0164537Y0063962D01*
X0164624Y0063971D01*
X0164710Y0063984D01*
X0164796Y0064001D01*
X0164881Y0064022D01*
X0164964Y0064047D01*
X0165047Y0064075D01*
X0165128Y0064106D01*
X0165208Y0064141D01*
X0165286Y0064180D01*
X0165363Y0064222D01*
X0165438Y0064267D01*
X0165510Y0064316D01*
X0165581Y0064367D01*
X0165649Y0064422D01*
X0165714Y0064479D01*
X0165777Y0064540D01*
X0165838Y0064603D01*
X0165895Y0064668D01*
X0165950Y0064736D01*
X0166001Y0064807D01*
X0166050Y0064879D01*
X0166095Y0064954D01*
X0166137Y0065031D01*
X0166176Y0065109D01*
X0166211Y0065189D01*
X0166242Y0065270D01*
X0166270Y0065353D01*
X0166295Y0065436D01*
X0166316Y0065521D01*
X0166333Y0065607D01*
X0166346Y0065693D01*
X0166355Y0065780D01*
X0166361Y0065867D01*
X0166363Y0065954D01*
X0166363Y0070954D01*
X0166361Y0071041D01*
X0166355Y0071128D01*
X0166346Y0071215D01*
X0166333Y0071301D01*
X0166316Y0071387D01*
X0166295Y0071472D01*
X0166270Y0071555D01*
X0166242Y0071638D01*
X0166211Y0071719D01*
X0166176Y0071799D01*
X0166137Y0071877D01*
X0166095Y0071954D01*
X0166050Y0072029D01*
X0166001Y0072101D01*
X0165950Y0072172D01*
X0165895Y0072240D01*
X0165838Y0072305D01*
X0165777Y0072368D01*
X0165714Y0072429D01*
X0165649Y0072486D01*
X0165581Y0072541D01*
X0165510Y0072592D01*
X0165438Y0072641D01*
X0165363Y0072686D01*
X0165286Y0072728D01*
X0165208Y0072767D01*
X0165128Y0072802D01*
X0165047Y0072833D01*
X0164964Y0072861D01*
X0164881Y0072886D01*
X0164796Y0072907D01*
X0164710Y0072924D01*
X0164624Y0072937D01*
X0164537Y0072946D01*
X0164450Y0072952D01*
X0164363Y0072954D01*
X0160287Y0061655D02*
X0158152Y0059520D01*
X0155977Y0060587D02*
X0154909Y0061655D01*
X0152774Y0061655D01*
X0151706Y0060587D01*
X0151706Y0056317D01*
X0152774Y0055250D01*
X0154909Y0055250D01*
X0155977Y0056317D01*
X0158152Y0055250D02*
X0162422Y0055250D01*
X0160287Y0055250D02*
X0160287Y0061655D01*
X0164166Y0050237D02*
X0151166Y0050237D01*
X0151079Y0050235D01*
X0150992Y0050229D01*
X0150905Y0050220D01*
X0150819Y0050207D01*
X0150733Y0050190D01*
X0150648Y0050169D01*
X0150565Y0050144D01*
X0150482Y0050116D01*
X0150401Y0050085D01*
X0150321Y0050050D01*
X0150243Y0050011D01*
X0150166Y0049969D01*
X0150091Y0049924D01*
X0150019Y0049875D01*
X0149948Y0049824D01*
X0149880Y0049769D01*
X0149815Y0049712D01*
X0149752Y0049651D01*
X0149691Y0049588D01*
X0149634Y0049523D01*
X0149579Y0049455D01*
X0149528Y0049384D01*
X0149479Y0049312D01*
X0149434Y0049237D01*
X0149392Y0049160D01*
X0149353Y0049082D01*
X0149318Y0049002D01*
X0149287Y0048921D01*
X0149259Y0048838D01*
X0149234Y0048755D01*
X0149213Y0048670D01*
X0149196Y0048584D01*
X0149183Y0048498D01*
X0149174Y0048411D01*
X0149168Y0048324D01*
X0149166Y0048237D01*
X0149166Y0043237D01*
X0149168Y0043150D01*
X0149174Y0043063D01*
X0149183Y0042976D01*
X0149196Y0042890D01*
X0149213Y0042804D01*
X0149234Y0042719D01*
X0149259Y0042636D01*
X0149287Y0042553D01*
X0149318Y0042472D01*
X0149353Y0042392D01*
X0149392Y0042314D01*
X0149434Y0042237D01*
X0149479Y0042162D01*
X0149528Y0042090D01*
X0149579Y0042019D01*
X0149634Y0041951D01*
X0149691Y0041886D01*
X0149752Y0041823D01*
X0149815Y0041762D01*
X0149880Y0041705D01*
X0149948Y0041650D01*
X0150019Y0041599D01*
X0150091Y0041550D01*
X0150166Y0041505D01*
X0150243Y0041463D01*
X0150321Y0041424D01*
X0150401Y0041389D01*
X0150482Y0041358D01*
X0150565Y0041330D01*
X0150648Y0041305D01*
X0150733Y0041284D01*
X0150819Y0041267D01*
X0150905Y0041254D01*
X0150992Y0041245D01*
X0151079Y0041239D01*
X0151166Y0041237D01*
X0164166Y0041237D01*
X0164253Y0041239D01*
X0164340Y0041245D01*
X0164427Y0041254D01*
X0164513Y0041267D01*
X0164599Y0041284D01*
X0164684Y0041305D01*
X0164767Y0041330D01*
X0164850Y0041358D01*
X0164931Y0041389D01*
X0165011Y0041424D01*
X0165089Y0041463D01*
X0165166Y0041505D01*
X0165241Y0041550D01*
X0165313Y0041599D01*
X0165384Y0041650D01*
X0165452Y0041705D01*
X0165517Y0041762D01*
X0165580Y0041823D01*
X0165641Y0041886D01*
X0165698Y0041951D01*
X0165753Y0042019D01*
X0165804Y0042090D01*
X0165853Y0042162D01*
X0165898Y0042237D01*
X0165940Y0042314D01*
X0165979Y0042392D01*
X0166014Y0042472D01*
X0166045Y0042553D01*
X0166073Y0042636D01*
X0166098Y0042719D01*
X0166119Y0042804D01*
X0166136Y0042890D01*
X0166149Y0042976D01*
X0166158Y0043063D01*
X0166164Y0043150D01*
X0166166Y0043237D01*
X0166166Y0048237D01*
X0166164Y0048324D01*
X0166158Y0048411D01*
X0166149Y0048498D01*
X0166136Y0048584D01*
X0166119Y0048670D01*
X0166098Y0048755D01*
X0166073Y0048838D01*
X0166045Y0048921D01*
X0166014Y0049002D01*
X0165979Y0049082D01*
X0165940Y0049160D01*
X0165898Y0049237D01*
X0165853Y0049312D01*
X0165804Y0049384D01*
X0165753Y0049455D01*
X0165698Y0049523D01*
X0165641Y0049588D01*
X0165580Y0049651D01*
X0165517Y0049712D01*
X0165452Y0049769D01*
X0165384Y0049824D01*
X0165313Y0049875D01*
X0165241Y0049924D01*
X0165166Y0049969D01*
X0165089Y0050011D01*
X0165011Y0050050D01*
X0164931Y0050085D01*
X0164850Y0050116D01*
X0164767Y0050144D01*
X0164684Y0050169D01*
X0164599Y0050190D01*
X0164513Y0050207D01*
X0164427Y0050220D01*
X0164340Y0050229D01*
X0164253Y0050235D01*
X0164166Y0050237D01*
X0161355Y0040002D02*
X0159219Y0040002D01*
X0158152Y0038934D01*
X0155977Y0038934D02*
X0154909Y0040002D01*
X0152774Y0040002D01*
X0151706Y0038934D01*
X0151706Y0034664D01*
X0152774Y0033596D01*
X0154909Y0033596D01*
X0155977Y0034664D01*
X0158152Y0034664D02*
X0159219Y0033596D01*
X0161355Y0033596D01*
X0162422Y0034664D01*
X0162422Y0035731D01*
X0161355Y0036799D01*
X0160287Y0036799D01*
X0161355Y0036799D02*
X0162422Y0037866D01*
X0162422Y0038934D01*
X0161355Y0040002D01*
X0183202Y0028191D02*
X0185338Y0026055D01*
X0187473Y0028191D01*
X0187473Y0021785D01*
X0189648Y0021785D02*
X0191783Y0021785D01*
X0190715Y0021785D02*
X0190715Y0028191D01*
X0189648Y0028191D02*
X0191783Y0028191D01*
X0193945Y0027123D02*
X0193945Y0022853D01*
X0195012Y0021785D01*
X0197148Y0021785D01*
X0198215Y0022853D01*
X0198215Y0027123D02*
X0197148Y0028191D01*
X0195012Y0028191D01*
X0193945Y0027123D01*
X0183202Y0028191D02*
X0183202Y0021785D01*
X0216667Y0051313D02*
X0219870Y0051313D01*
X0220937Y0052380D01*
X0220937Y0056650D01*
X0219870Y0057718D01*
X0216667Y0057718D01*
X0216667Y0051313D01*
X0223112Y0051313D02*
X0223112Y0057718D01*
X0223112Y0054515D02*
X0227383Y0054515D01*
X0227383Y0051313D02*
X0227383Y0057718D01*
X0229558Y0057718D02*
X0233828Y0057718D01*
X0231693Y0057718D02*
X0231693Y0051313D01*
X0236003Y0051313D02*
X0240274Y0051313D01*
X0238139Y0051313D02*
X0238139Y0057718D01*
X0236003Y0055583D01*
X0242449Y0055583D02*
X0244584Y0057718D01*
X0244584Y0051313D01*
X0242449Y0051313D02*
X0246719Y0051313D01*
X0203952Y0091917D02*
X0202885Y0090849D01*
X0199682Y0090849D01*
X0199682Y0088714D02*
X0199682Y0095120D01*
X0202885Y0095120D01*
X0203952Y0094052D01*
X0203952Y0091917D01*
X0197507Y0092984D02*
X0196439Y0091917D01*
X0194304Y0091917D01*
X0193236Y0092984D01*
X0193236Y0094052D01*
X0194304Y0095120D01*
X0196439Y0095120D01*
X0197507Y0094052D01*
X0197507Y0092984D01*
X0196439Y0091917D02*
X0197507Y0090849D01*
X0197507Y0089782D01*
X0196439Y0088714D01*
X0194304Y0088714D01*
X0193236Y0089782D01*
X0193236Y0090849D01*
X0194304Y0091917D01*
X0191061Y0091917D02*
X0191061Y0089782D01*
X0189994Y0088714D01*
X0187858Y0088714D01*
X0186791Y0089782D01*
X0186791Y0091917D02*
X0188926Y0092984D01*
X0189994Y0092984D01*
X0191061Y0091917D01*
X0191061Y0095120D02*
X0186791Y0095120D01*
X0186791Y0091917D01*
X0126690Y0089047D02*
X0126690Y0085845D01*
X0121493Y0053690D02*
X0115493Y0053690D01*
X0115433Y0053688D01*
X0115372Y0053683D01*
X0115313Y0053674D01*
X0115254Y0053661D01*
X0115195Y0053645D01*
X0115138Y0053625D01*
X0115083Y0053602D01*
X0115028Y0053575D01*
X0114976Y0053546D01*
X0114925Y0053513D01*
X0114876Y0053477D01*
X0114830Y0053439D01*
X0114786Y0053397D01*
X0114744Y0053353D01*
X0114706Y0053307D01*
X0114670Y0053258D01*
X0114637Y0053207D01*
X0114608Y0053155D01*
X0114581Y0053100D01*
X0114558Y0053045D01*
X0114538Y0052988D01*
X0114522Y0052929D01*
X0114509Y0052870D01*
X0114500Y0052811D01*
X0114495Y0052750D01*
X0114493Y0052690D01*
X0114493Y0051190D01*
X0114993Y0050690D01*
X0114993Y0036690D01*
X0114493Y0036190D01*
X0114493Y0034690D01*
X0114495Y0034630D01*
X0114500Y0034569D01*
X0114509Y0034510D01*
X0114522Y0034451D01*
X0114538Y0034392D01*
X0114558Y0034335D01*
X0114581Y0034280D01*
X0114608Y0034225D01*
X0114637Y0034173D01*
X0114670Y0034122D01*
X0114706Y0034073D01*
X0114744Y0034027D01*
X0114786Y0033983D01*
X0114830Y0033941D01*
X0114876Y0033903D01*
X0114925Y0033867D01*
X0114976Y0033834D01*
X0115028Y0033805D01*
X0115083Y0033778D01*
X0115138Y0033755D01*
X0115195Y0033735D01*
X0115254Y0033719D01*
X0115313Y0033706D01*
X0115372Y0033697D01*
X0115433Y0033692D01*
X0115493Y0033690D01*
X0121493Y0033690D01*
X0121553Y0033692D01*
X0121614Y0033697D01*
X0121673Y0033706D01*
X0121732Y0033719D01*
X0121791Y0033735D01*
X0121848Y0033755D01*
X0121903Y0033778D01*
X0121958Y0033805D01*
X0122010Y0033834D01*
X0122061Y0033867D01*
X0122110Y0033903D01*
X0122156Y0033941D01*
X0122200Y0033983D01*
X0122242Y0034027D01*
X0122280Y0034073D01*
X0122316Y0034122D01*
X0122349Y0034173D01*
X0122378Y0034225D01*
X0122405Y0034280D01*
X0122428Y0034335D01*
X0122448Y0034392D01*
X0122464Y0034451D01*
X0122477Y0034510D01*
X0122486Y0034569D01*
X0122491Y0034630D01*
X0122493Y0034690D01*
X0122493Y0036190D01*
X0121993Y0036690D01*
X0121993Y0050690D01*
X0122493Y0051190D01*
X0122493Y0052690D01*
X0122491Y0052750D01*
X0122486Y0052811D01*
X0122477Y0052870D01*
X0122464Y0052929D01*
X0122448Y0052988D01*
X0122428Y0053045D01*
X0122405Y0053100D01*
X0122378Y0053155D01*
X0122349Y0053207D01*
X0122316Y0053258D01*
X0122280Y0053307D01*
X0122242Y0053353D01*
X0122200Y0053397D01*
X0122156Y0053439D01*
X0122110Y0053477D01*
X0122061Y0053513D01*
X0122010Y0053546D01*
X0121958Y0053575D01*
X0121903Y0053602D01*
X0121848Y0053625D01*
X0121791Y0053645D01*
X0121732Y0053661D01*
X0121673Y0053674D01*
X0121614Y0053683D01*
X0121553Y0053688D01*
X0121493Y0053690D01*
X0110091Y0052729D02*
X0110091Y0051229D01*
X0109591Y0050729D01*
X0109591Y0036729D01*
X0110091Y0036229D01*
X0110091Y0034729D01*
X0110089Y0034669D01*
X0110084Y0034608D01*
X0110075Y0034549D01*
X0110062Y0034490D01*
X0110046Y0034431D01*
X0110026Y0034374D01*
X0110003Y0034319D01*
X0109976Y0034264D01*
X0109947Y0034212D01*
X0109914Y0034161D01*
X0109878Y0034112D01*
X0109840Y0034066D01*
X0109798Y0034022D01*
X0109754Y0033980D01*
X0109708Y0033942D01*
X0109659Y0033906D01*
X0109608Y0033873D01*
X0109556Y0033844D01*
X0109501Y0033817D01*
X0109446Y0033794D01*
X0109389Y0033774D01*
X0109330Y0033758D01*
X0109271Y0033745D01*
X0109212Y0033736D01*
X0109151Y0033731D01*
X0109091Y0033729D01*
X0103091Y0033729D01*
X0103031Y0033731D01*
X0102970Y0033736D01*
X0102911Y0033745D01*
X0102852Y0033758D01*
X0102793Y0033774D01*
X0102736Y0033794D01*
X0102681Y0033817D01*
X0102626Y0033844D01*
X0102574Y0033873D01*
X0102523Y0033906D01*
X0102474Y0033942D01*
X0102428Y0033980D01*
X0102384Y0034022D01*
X0102342Y0034066D01*
X0102304Y0034112D01*
X0102268Y0034161D01*
X0102235Y0034212D01*
X0102206Y0034264D01*
X0102179Y0034319D01*
X0102156Y0034374D01*
X0102136Y0034431D01*
X0102120Y0034490D01*
X0102107Y0034549D01*
X0102098Y0034608D01*
X0102093Y0034669D01*
X0102091Y0034729D01*
X0102091Y0036229D01*
X0102591Y0036729D01*
X0102591Y0050729D01*
X0102091Y0051229D01*
X0102091Y0052729D01*
X0102093Y0052789D01*
X0102098Y0052850D01*
X0102107Y0052909D01*
X0102120Y0052968D01*
X0102136Y0053027D01*
X0102156Y0053084D01*
X0102179Y0053139D01*
X0102206Y0053194D01*
X0102235Y0053246D01*
X0102268Y0053297D01*
X0102304Y0053346D01*
X0102342Y0053392D01*
X0102384Y0053436D01*
X0102428Y0053478D01*
X0102474Y0053516D01*
X0102523Y0053552D01*
X0102574Y0053585D01*
X0102626Y0053614D01*
X0102681Y0053641D01*
X0102736Y0053664D01*
X0102793Y0053684D01*
X0102852Y0053700D01*
X0102911Y0053713D01*
X0102970Y0053722D01*
X0103031Y0053727D01*
X0103091Y0053729D01*
X0109091Y0053729D01*
X0109151Y0053727D01*
X0109212Y0053722D01*
X0109271Y0053713D01*
X0109330Y0053700D01*
X0109389Y0053684D01*
X0109446Y0053664D01*
X0109501Y0053641D01*
X0109556Y0053614D01*
X0109608Y0053585D01*
X0109659Y0053552D01*
X0109708Y0053516D01*
X0109754Y0053478D01*
X0109798Y0053436D01*
X0109840Y0053392D01*
X0109878Y0053346D01*
X0109914Y0053297D01*
X0109947Y0053246D01*
X0109976Y0053194D01*
X0110003Y0053139D01*
X0110026Y0053084D01*
X0110046Y0053027D01*
X0110062Y0052968D01*
X0110075Y0052909D01*
X0110084Y0052850D01*
X0110089Y0052789D01*
X0110091Y0052729D01*
X0087912Y0151793D02*
X0085777Y0151793D01*
X0084710Y0152860D01*
X0082534Y0152860D02*
X0081467Y0151793D01*
X0079332Y0151793D01*
X0078264Y0152860D01*
X0078264Y0153928D01*
X0079332Y0154996D01*
X0081467Y0154996D01*
X0082534Y0153928D01*
X0082534Y0152860D01*
X0081467Y0154996D02*
X0082534Y0156063D01*
X0082534Y0157131D01*
X0081467Y0158198D01*
X0079332Y0158198D01*
X0078264Y0157131D01*
X0078264Y0156063D01*
X0079332Y0154996D01*
X0084710Y0157131D02*
X0085777Y0158198D01*
X0087912Y0158198D01*
X0088980Y0157131D01*
X0088980Y0156063D01*
X0087912Y0154996D01*
X0088980Y0153928D01*
X0088980Y0152860D01*
X0087912Y0151793D01*
X0087912Y0154996D02*
X0086845Y0154996D01*
X0076089Y0154996D02*
X0071819Y0154996D01*
X0075021Y0158198D01*
X0075021Y0151793D01*
X0069643Y0151793D02*
X0065373Y0151793D01*
X0069643Y0156063D01*
X0069643Y0157131D01*
X0068576Y0158198D01*
X0066441Y0158198D01*
X0065373Y0157131D01*
X0063198Y0158198D02*
X0063198Y0151793D01*
X0058928Y0158198D01*
X0058928Y0151793D01*
X0056752Y0151793D02*
X0054617Y0153928D01*
X0055685Y0153928D02*
X0052482Y0153928D01*
X0052482Y0151793D02*
X0052482Y0158198D01*
X0055685Y0158198D01*
X0056752Y0157131D01*
X0056752Y0154996D01*
X0055685Y0153928D01*
X0057056Y0198375D02*
X0052056Y0198375D01*
X0049556Y0200875D01*
X0049556Y0215875D01*
X0052056Y0218375D01*
X0057056Y0218375D01*
X0059556Y0215875D01*
X0059556Y0200875D01*
X0062056Y0198375D01*
X0067056Y0198375D01*
X0069556Y0200875D01*
X0069556Y0215875D01*
X0072056Y0218375D01*
X0077056Y0218375D01*
X0079556Y0215875D01*
X0079556Y0200875D01*
X0082056Y0198375D01*
X0087056Y0198375D01*
X0089556Y0200875D01*
X0089556Y0215875D01*
X0092056Y0218375D01*
X0097056Y0218375D01*
X0099556Y0215875D01*
X0099556Y0200875D01*
X0097056Y0198375D01*
X0092056Y0198375D01*
X0089556Y0200875D01*
X0079556Y0200875D02*
X0077056Y0198375D01*
X0072056Y0198375D01*
X0069556Y0200875D01*
X0059556Y0200875D02*
X0057056Y0198375D01*
X0049556Y0200875D02*
X0047056Y0198375D01*
X0042056Y0198375D01*
X0039556Y0200875D01*
X0039556Y0215875D01*
X0042056Y0218375D01*
X0047056Y0218375D01*
X0049556Y0215875D01*
X0059556Y0215875D02*
X0062056Y0218375D01*
X0067056Y0218375D01*
X0069556Y0215875D01*
X0079556Y0215875D02*
X0082056Y0218375D01*
X0087056Y0218375D01*
X0089556Y0215875D01*
X0099556Y0215875D02*
X0102056Y0218375D01*
X0107056Y0218375D01*
X0109556Y0215875D01*
X0109556Y0200875D01*
X0107056Y0198375D01*
X0102056Y0198375D01*
X0099556Y0200875D01*
X0109556Y0200875D02*
X0112056Y0198375D01*
X0117056Y0198375D01*
X0119556Y0200875D01*
X0119556Y0215875D01*
X0122056Y0218375D01*
X0127056Y0218375D01*
X0129556Y0215875D01*
X0129556Y0200875D01*
X0127056Y0198375D01*
X0122056Y0198375D01*
X0119556Y0200875D01*
X0129556Y0200875D02*
X0132056Y0198375D01*
X0137056Y0198375D01*
X0139556Y0200875D01*
X0139556Y0215875D01*
X0142056Y0218375D01*
X0147056Y0218375D01*
X0149556Y0215875D01*
X0149556Y0200875D01*
X0147056Y0198375D01*
X0142056Y0198375D01*
X0139556Y0200875D01*
X0149556Y0200875D02*
X0152056Y0198375D01*
X0157056Y0198375D01*
X0159556Y0200875D01*
X0159556Y0215875D01*
X0162056Y0218375D01*
X0167056Y0218375D01*
X0169556Y0215875D01*
X0169556Y0200875D01*
X0167056Y0198375D01*
X0162056Y0198375D01*
X0159556Y0200875D01*
X0169556Y0200875D02*
X0172056Y0198375D01*
X0177056Y0198375D01*
X0179556Y0200875D01*
X0179556Y0215875D01*
X0182056Y0218375D01*
X0187056Y0218375D01*
X0189556Y0215875D01*
X0189556Y0200875D01*
X0187056Y0198375D01*
X0182056Y0198375D01*
X0179556Y0200875D01*
X0181154Y0191839D02*
X0173154Y0191839D01*
X0172154Y0190839D01*
X0171154Y0191839D01*
X0163154Y0191839D01*
X0162154Y0190839D01*
X0161154Y0191839D01*
X0153154Y0191839D01*
X0152154Y0190839D01*
X0151154Y0191839D01*
X0142154Y0191839D01*
X0142154Y0181839D01*
X0151154Y0181839D01*
X0152154Y0182839D01*
X0153154Y0181839D01*
X0161154Y0181839D01*
X0162154Y0182839D01*
X0163154Y0181839D01*
X0171154Y0181839D01*
X0172154Y0182839D01*
X0173154Y0181839D01*
X0181154Y0181839D01*
X0182154Y0182839D01*
X0183154Y0181839D01*
X0192154Y0181839D01*
X0192154Y0191839D01*
X0183154Y0191839D01*
X0182154Y0190839D01*
X0181154Y0191839D01*
X0189556Y0200875D02*
X0192056Y0198375D01*
X0197056Y0198375D01*
X0199556Y0200875D01*
X0199556Y0215875D01*
X0202056Y0218375D01*
X0207056Y0218375D01*
X0209556Y0215875D01*
X0209556Y0200875D01*
X0207056Y0198375D01*
X0202056Y0198375D01*
X0199556Y0200875D01*
X0209556Y0200875D02*
X0212056Y0198375D01*
X0217056Y0198375D01*
X0219556Y0200875D01*
X0222056Y0198375D01*
X0227056Y0198375D01*
X0229556Y0200875D01*
X0229556Y0215875D01*
X0227056Y0218375D01*
X0222056Y0218375D01*
X0219556Y0215875D01*
X0219556Y0200875D01*
X0219556Y0215875D02*
X0217056Y0218375D01*
X0212056Y0218375D01*
X0209556Y0215875D01*
X0199556Y0215875D02*
X0197056Y0218375D01*
X0192056Y0218375D01*
X0189556Y0215875D01*
X0179556Y0215875D02*
X0177056Y0218375D01*
X0172056Y0218375D01*
X0169556Y0215875D01*
X0159556Y0215875D02*
X0157056Y0218375D01*
X0152056Y0218375D01*
X0149556Y0215875D01*
X0139556Y0215875D02*
X0137056Y0218375D01*
X0132056Y0218375D01*
X0129556Y0215875D01*
X0119556Y0215875D02*
X0117056Y0218375D01*
X0112056Y0218375D01*
X0109556Y0215875D01*
X0153675Y0176729D02*
X0153675Y0172459D01*
X0154742Y0171391D01*
X0156878Y0171391D01*
X0157945Y0172459D01*
X0160120Y0171391D02*
X0164391Y0171391D01*
X0166566Y0172459D02*
X0167633Y0171391D01*
X0169769Y0171391D01*
X0170836Y0172459D01*
X0170836Y0176729D01*
X0169769Y0177797D01*
X0167633Y0177797D01*
X0166566Y0176729D01*
X0166566Y0172459D01*
X0160120Y0171391D02*
X0160120Y0177797D01*
X0157945Y0176729D02*
X0156878Y0177797D01*
X0154742Y0177797D01*
X0153675Y0176729D01*
X0173011Y0176729D02*
X0173011Y0172459D01*
X0174079Y0171391D01*
X0176214Y0171391D01*
X0177282Y0172459D01*
X0179457Y0173526D02*
X0183727Y0177797D01*
X0179457Y0177797D02*
X0179457Y0171391D01*
X0180524Y0174594D02*
X0183727Y0171391D01*
X0177282Y0176729D02*
X0176214Y0177797D01*
X0174079Y0177797D01*
X0173011Y0176729D01*
X0039556Y0200875D02*
X0037056Y0198375D01*
X0032056Y0198375D01*
X0029556Y0200875D01*
X0029556Y0215875D01*
X0032056Y0218375D01*
X0037056Y0218375D01*
X0039556Y0215875D01*
D11*
X0029556Y0188099D02*
X0029556Y0173099D01*
X0029556Y0133099D02*
X0029556Y0118099D01*
X0025993Y0082863D02*
X0010993Y0082863D01*
X0011150Y0056682D02*
X0026150Y0056682D01*
X0134556Y0118099D02*
X0134556Y0188099D01*
X0176131Y0089202D02*
X0180131Y0089202D01*
X0182131Y0089202D01*
X0180131Y0089202D02*
X0196131Y0089202D01*
X0196131Y0049202D01*
X0176131Y0049202D01*
X0176131Y0089202D01*
X0160008Y0024556D02*
X0160011Y0024834D01*
X0160022Y0025111D01*
X0160039Y0025389D01*
X0160063Y0025666D01*
X0160093Y0025942D01*
X0160131Y0026217D01*
X0160175Y0026491D01*
X0160226Y0026764D01*
X0160283Y0027036D01*
X0160347Y0027307D01*
X0160418Y0027575D01*
X0160495Y0027842D01*
X0160579Y0028107D01*
X0160670Y0028370D01*
X0160767Y0028630D01*
X0160870Y0028888D01*
X0160979Y0029143D01*
X0161095Y0029396D01*
X0161217Y0029646D01*
X0161345Y0029892D01*
X0161479Y0030136D01*
X0161619Y0030376D01*
X0161764Y0030612D01*
X0161916Y0030845D01*
X0162073Y0031074D01*
X0162236Y0031299D01*
X0162404Y0031520D01*
X0162578Y0031737D01*
X0162756Y0031950D01*
X0162940Y0032158D01*
X0163130Y0032362D01*
X0163324Y0032560D01*
X0163522Y0032754D01*
X0163726Y0032944D01*
X0163934Y0033128D01*
X0164147Y0033306D01*
X0164364Y0033480D01*
X0164585Y0033648D01*
X0164810Y0033811D01*
X0165039Y0033968D01*
X0165272Y0034120D01*
X0165508Y0034265D01*
X0165748Y0034405D01*
X0165992Y0034539D01*
X0166238Y0034667D01*
X0166488Y0034789D01*
X0166741Y0034905D01*
X0166996Y0035014D01*
X0167254Y0035117D01*
X0167514Y0035214D01*
X0167777Y0035305D01*
X0168042Y0035389D01*
X0168309Y0035466D01*
X0168577Y0035537D01*
X0168848Y0035601D01*
X0169120Y0035658D01*
X0169393Y0035709D01*
X0169667Y0035753D01*
X0169942Y0035791D01*
X0170218Y0035821D01*
X0170495Y0035845D01*
X0170773Y0035862D01*
X0171050Y0035873D01*
X0171328Y0035876D01*
X0171606Y0035873D01*
X0171883Y0035862D01*
X0172161Y0035845D01*
X0172438Y0035821D01*
X0172714Y0035791D01*
X0172989Y0035753D01*
X0173263Y0035709D01*
X0173536Y0035658D01*
X0173808Y0035601D01*
X0174079Y0035537D01*
X0174347Y0035466D01*
X0174614Y0035389D01*
X0174879Y0035305D01*
X0175142Y0035214D01*
X0175402Y0035117D01*
X0175660Y0035014D01*
X0175915Y0034905D01*
X0176168Y0034789D01*
X0176418Y0034667D01*
X0176664Y0034539D01*
X0176908Y0034405D01*
X0177148Y0034265D01*
X0177384Y0034120D01*
X0177617Y0033968D01*
X0177846Y0033811D01*
X0178071Y0033648D01*
X0178292Y0033480D01*
X0178509Y0033306D01*
X0178722Y0033128D01*
X0178930Y0032944D01*
X0179134Y0032754D01*
X0179332Y0032560D01*
X0179526Y0032362D01*
X0179716Y0032158D01*
X0179900Y0031950D01*
X0180078Y0031737D01*
X0180252Y0031520D01*
X0180420Y0031299D01*
X0180583Y0031074D01*
X0180740Y0030845D01*
X0180892Y0030612D01*
X0181037Y0030376D01*
X0181177Y0030136D01*
X0181311Y0029892D01*
X0181439Y0029646D01*
X0181561Y0029396D01*
X0181677Y0029143D01*
X0181786Y0028888D01*
X0181889Y0028630D01*
X0181986Y0028370D01*
X0182077Y0028107D01*
X0182161Y0027842D01*
X0182238Y0027575D01*
X0182309Y0027307D01*
X0182373Y0027036D01*
X0182430Y0026764D01*
X0182481Y0026491D01*
X0182525Y0026217D01*
X0182563Y0025942D01*
X0182593Y0025666D01*
X0182617Y0025389D01*
X0182634Y0025111D01*
X0182645Y0024834D01*
X0182648Y0024556D01*
X0182645Y0024278D01*
X0182634Y0024001D01*
X0182617Y0023723D01*
X0182593Y0023446D01*
X0182563Y0023170D01*
X0182525Y0022895D01*
X0182481Y0022621D01*
X0182430Y0022348D01*
X0182373Y0022076D01*
X0182309Y0021805D01*
X0182238Y0021537D01*
X0182161Y0021270D01*
X0182077Y0021005D01*
X0181986Y0020742D01*
X0181889Y0020482D01*
X0181786Y0020224D01*
X0181677Y0019969D01*
X0181561Y0019716D01*
X0181439Y0019466D01*
X0181311Y0019220D01*
X0181177Y0018976D01*
X0181037Y0018736D01*
X0180892Y0018500D01*
X0180740Y0018267D01*
X0180583Y0018038D01*
X0180420Y0017813D01*
X0180252Y0017592D01*
X0180078Y0017375D01*
X0179900Y0017162D01*
X0179716Y0016954D01*
X0179526Y0016750D01*
X0179332Y0016552D01*
X0179134Y0016358D01*
X0178930Y0016168D01*
X0178722Y0015984D01*
X0178509Y0015806D01*
X0178292Y0015632D01*
X0178071Y0015464D01*
X0177846Y0015301D01*
X0177617Y0015144D01*
X0177384Y0014992D01*
X0177148Y0014847D01*
X0176908Y0014707D01*
X0176664Y0014573D01*
X0176418Y0014445D01*
X0176168Y0014323D01*
X0175915Y0014207D01*
X0175660Y0014098D01*
X0175402Y0013995D01*
X0175142Y0013898D01*
X0174879Y0013807D01*
X0174614Y0013723D01*
X0174347Y0013646D01*
X0174079Y0013575D01*
X0173808Y0013511D01*
X0173536Y0013454D01*
X0173263Y0013403D01*
X0172989Y0013359D01*
X0172714Y0013321D01*
X0172438Y0013291D01*
X0172161Y0013267D01*
X0171883Y0013250D01*
X0171606Y0013239D01*
X0171328Y0013236D01*
X0171050Y0013239D01*
X0170773Y0013250D01*
X0170495Y0013267D01*
X0170218Y0013291D01*
X0169942Y0013321D01*
X0169667Y0013359D01*
X0169393Y0013403D01*
X0169120Y0013454D01*
X0168848Y0013511D01*
X0168577Y0013575D01*
X0168309Y0013646D01*
X0168042Y0013723D01*
X0167777Y0013807D01*
X0167514Y0013898D01*
X0167254Y0013995D01*
X0166996Y0014098D01*
X0166741Y0014207D01*
X0166488Y0014323D01*
X0166238Y0014445D01*
X0165992Y0014573D01*
X0165748Y0014707D01*
X0165508Y0014847D01*
X0165272Y0014992D01*
X0165039Y0015144D01*
X0164810Y0015301D01*
X0164585Y0015464D01*
X0164364Y0015632D01*
X0164147Y0015806D01*
X0163934Y0015984D01*
X0163726Y0016168D01*
X0163522Y0016358D01*
X0163324Y0016552D01*
X0163130Y0016750D01*
X0162940Y0016954D01*
X0162756Y0017162D01*
X0162578Y0017375D01*
X0162404Y0017592D01*
X0162236Y0017813D01*
X0162073Y0018038D01*
X0161916Y0018267D01*
X0161764Y0018500D01*
X0161619Y0018736D01*
X0161479Y0018976D01*
X0161345Y0019220D01*
X0161217Y0019466D01*
X0161095Y0019716D01*
X0160979Y0019969D01*
X0160870Y0020224D01*
X0160767Y0020482D01*
X0160670Y0020742D01*
X0160579Y0021005D01*
X0160495Y0021270D01*
X0160418Y0021537D01*
X0160347Y0021805D01*
X0160283Y0022076D01*
X0160226Y0022348D01*
X0160175Y0022621D01*
X0160131Y0022895D01*
X0160093Y0023170D01*
X0160063Y0023446D01*
X0160039Y0023723D01*
X0160022Y0024001D01*
X0160011Y0024278D01*
X0160008Y0024556D01*
D12*
X0010841Y0057011D02*
X0011381Y0056291D01*
X0011380Y0056292D02*
X0011147Y0056111D01*
X0010919Y0055925D01*
X0010695Y0055733D01*
X0010476Y0055536D01*
X0010262Y0055334D01*
X0010053Y0055126D01*
X0009850Y0054913D01*
X0009651Y0054696D01*
X0009458Y0054473D01*
X0009270Y0054246D01*
X0009088Y0054015D01*
X0008911Y0053779D01*
X0008741Y0053538D01*
X0008576Y0053294D01*
X0008418Y0053046D01*
X0008265Y0052794D01*
X0008119Y0052538D01*
X0007979Y0052279D01*
X0007845Y0052016D01*
X0007718Y0051751D01*
X0007597Y0051482D01*
X0007483Y0051210D01*
X0007376Y0050936D01*
X0007275Y0050659D01*
X0007181Y0050380D01*
X0007094Y0050098D01*
X0007014Y0049815D01*
X0006941Y0049529D01*
X0006875Y0049242D01*
X0006816Y0048953D01*
X0006764Y0048663D01*
X0006719Y0048372D01*
X0006681Y0048080D01*
X0006651Y0047787D01*
X0006627Y0047493D01*
X0006611Y0047199D01*
X0006602Y0046905D01*
X0006600Y0046610D01*
X0006606Y0046315D01*
X0006618Y0046021D01*
X0006638Y0045727D01*
X0006665Y0045434D01*
X0006699Y0045141D01*
X0006740Y0044849D01*
X0006789Y0044559D01*
X0006844Y0044269D01*
X0006906Y0043982D01*
X0006976Y0043695D01*
X0007053Y0043411D01*
X0007136Y0043128D01*
X0007226Y0042848D01*
X0007323Y0042570D01*
X0007427Y0042294D01*
X0007538Y0042021D01*
X0007655Y0041751D01*
X0007779Y0041483D01*
X0007909Y0041219D01*
X0008046Y0040958D01*
X0008189Y0040701D01*
X0008339Y0040447D01*
X0008494Y0040196D01*
X0008656Y0039950D01*
X0008823Y0039708D01*
X0008997Y0039470D01*
X0009176Y0039236D01*
X0009361Y0039006D01*
X0009551Y0038782D01*
X0009747Y0038561D01*
X0009948Y0038346D01*
X0010155Y0038136D01*
X0010366Y0037931D01*
X0010583Y0037731D01*
X0010804Y0037536D01*
X0011030Y0037347D01*
X0011260Y0037164D01*
X0011495Y0036986D01*
X0011735Y0036814D01*
X0011978Y0036648D01*
X0012225Y0036488D01*
X0012476Y0036334D01*
X0012731Y0036186D01*
X0012990Y0036044D01*
X0013251Y0035909D01*
X0013516Y0035780D01*
X0013784Y0035658D01*
X0014055Y0035542D01*
X0014329Y0035433D01*
X0014605Y0035331D01*
X0014884Y0035236D01*
X0015165Y0035147D01*
X0015448Y0035065D01*
X0015733Y0034990D01*
X0016020Y0034923D01*
X0016308Y0034862D01*
X0016598Y0034808D01*
X0016889Y0034761D01*
X0017181Y0034722D01*
X0017473Y0034690D01*
X0017767Y0034664D01*
X0018061Y0034646D01*
X0018355Y0034636D01*
X0018650Y0034632D01*
X0018945Y0034636D01*
X0019239Y0034646D01*
X0019533Y0034664D01*
X0019827Y0034690D01*
X0020119Y0034722D01*
X0020411Y0034761D01*
X0020702Y0034808D01*
X0020992Y0034862D01*
X0021280Y0034923D01*
X0021567Y0034990D01*
X0021852Y0035065D01*
X0022135Y0035147D01*
X0022416Y0035236D01*
X0022695Y0035331D01*
X0022971Y0035433D01*
X0023245Y0035542D01*
X0023516Y0035658D01*
X0023784Y0035780D01*
X0024049Y0035909D01*
X0024310Y0036044D01*
X0024569Y0036186D01*
X0024824Y0036334D01*
X0025075Y0036488D01*
X0025322Y0036648D01*
X0025565Y0036814D01*
X0025805Y0036986D01*
X0026040Y0037164D01*
X0026270Y0037347D01*
X0026496Y0037536D01*
X0026717Y0037731D01*
X0026934Y0037931D01*
X0027145Y0038136D01*
X0027352Y0038346D01*
X0027553Y0038561D01*
X0027749Y0038782D01*
X0027939Y0039006D01*
X0028124Y0039236D01*
X0028303Y0039470D01*
X0028477Y0039708D01*
X0028644Y0039950D01*
X0028806Y0040196D01*
X0028961Y0040447D01*
X0029111Y0040701D01*
X0029254Y0040958D01*
X0029391Y0041219D01*
X0029521Y0041483D01*
X0029645Y0041751D01*
X0029762Y0042021D01*
X0029873Y0042294D01*
X0029977Y0042570D01*
X0030074Y0042848D01*
X0030164Y0043128D01*
X0030247Y0043411D01*
X0030324Y0043695D01*
X0030394Y0043982D01*
X0030456Y0044269D01*
X0030511Y0044559D01*
X0030560Y0044849D01*
X0030601Y0045141D01*
X0030635Y0045434D01*
X0030662Y0045727D01*
X0030682Y0046021D01*
X0030694Y0046315D01*
X0030700Y0046610D01*
X0030698Y0046905D01*
X0030689Y0047199D01*
X0030673Y0047493D01*
X0030649Y0047787D01*
X0030619Y0048080D01*
X0030581Y0048372D01*
X0030536Y0048663D01*
X0030484Y0048953D01*
X0030425Y0049242D01*
X0030359Y0049529D01*
X0030286Y0049815D01*
X0030206Y0050098D01*
X0030119Y0050380D01*
X0030025Y0050659D01*
X0029924Y0050936D01*
X0029817Y0051210D01*
X0029703Y0051482D01*
X0029582Y0051751D01*
X0029455Y0052016D01*
X0029321Y0052279D01*
X0029181Y0052538D01*
X0029035Y0052794D01*
X0028882Y0053046D01*
X0028724Y0053294D01*
X0028559Y0053538D01*
X0028389Y0053779D01*
X0028212Y0054015D01*
X0028030Y0054246D01*
X0027842Y0054473D01*
X0027649Y0054696D01*
X0027450Y0054913D01*
X0027247Y0055126D01*
X0027038Y0055334D01*
X0026824Y0055536D01*
X0026605Y0055733D01*
X0026381Y0055925D01*
X0026153Y0056111D01*
X0025920Y0056292D01*
X0026459Y0057011D01*
X0026460Y0057012D01*
X0026710Y0056818D01*
X0026956Y0056618D01*
X0027196Y0056412D01*
X0027431Y0056200D01*
X0027661Y0055982D01*
X0027886Y0055759D01*
X0028105Y0055531D01*
X0028319Y0055297D01*
X0028527Y0055058D01*
X0028729Y0054814D01*
X0028924Y0054565D01*
X0029114Y0054311D01*
X0029297Y0054053D01*
X0029474Y0053791D01*
X0029645Y0053524D01*
X0029809Y0053253D01*
X0029966Y0052978D01*
X0030117Y0052700D01*
X0030261Y0052417D01*
X0030397Y0052132D01*
X0030527Y0051843D01*
X0030650Y0051551D01*
X0030765Y0051256D01*
X0030873Y0050959D01*
X0030974Y0050658D01*
X0031068Y0050356D01*
X0031154Y0050051D01*
X0031233Y0049744D01*
X0031304Y0049436D01*
X0031367Y0049126D01*
X0031423Y0048814D01*
X0031472Y0048501D01*
X0031512Y0048187D01*
X0031545Y0047872D01*
X0031570Y0047556D01*
X0031588Y0047240D01*
X0031598Y0046924D01*
X0031600Y0046607D01*
X0031594Y0046290D01*
X0031581Y0045974D01*
X0031559Y0045658D01*
X0031531Y0045343D01*
X0031494Y0045028D01*
X0031450Y0044715D01*
X0031398Y0044402D01*
X0031338Y0044091D01*
X0031271Y0043782D01*
X0031196Y0043474D01*
X0031114Y0043168D01*
X0031025Y0042865D01*
X0030928Y0042563D01*
X0030823Y0042264D01*
X0030711Y0041968D01*
X0030593Y0041674D01*
X0030467Y0041384D01*
X0030334Y0041097D01*
X0030193Y0040812D01*
X0030046Y0040532D01*
X0029893Y0040255D01*
X0029732Y0039982D01*
X0029565Y0039713D01*
X0029391Y0039448D01*
X0029211Y0039188D01*
X0029025Y0038932D01*
X0028832Y0038681D01*
X0028634Y0038434D01*
X0028429Y0038192D01*
X0028219Y0037956D01*
X0028002Y0037724D01*
X0027780Y0037499D01*
X0027553Y0037278D01*
X0027321Y0037063D01*
X0027083Y0036854D01*
X0026840Y0036651D01*
X0026592Y0036453D01*
X0026340Y0036262D01*
X0026083Y0036077D01*
X0025821Y0035899D01*
X0025555Y0035727D01*
X0025286Y0035561D01*
X0025012Y0035402D01*
X0024734Y0035250D01*
X0024453Y0035105D01*
X0024168Y0034966D01*
X0023880Y0034835D01*
X0023588Y0034711D01*
X0023294Y0034593D01*
X0022997Y0034483D01*
X0022698Y0034381D01*
X0022396Y0034286D01*
X0022092Y0034198D01*
X0021785Y0034117D01*
X0021477Y0034044D01*
X0021167Y0033979D01*
X0020856Y0033921D01*
X0020543Y0033871D01*
X0020229Y0033829D01*
X0019915Y0033794D01*
X0019599Y0033767D01*
X0019283Y0033747D01*
X0018967Y0033736D01*
X0018650Y0033732D01*
X0018333Y0033736D01*
X0018017Y0033747D01*
X0017701Y0033767D01*
X0017385Y0033794D01*
X0017071Y0033829D01*
X0016757Y0033871D01*
X0016444Y0033921D01*
X0016133Y0033979D01*
X0015823Y0034044D01*
X0015515Y0034117D01*
X0015208Y0034198D01*
X0014904Y0034286D01*
X0014602Y0034381D01*
X0014303Y0034483D01*
X0014006Y0034593D01*
X0013712Y0034711D01*
X0013420Y0034835D01*
X0013132Y0034966D01*
X0012847Y0035105D01*
X0012566Y0035250D01*
X0012288Y0035402D01*
X0012014Y0035561D01*
X0011745Y0035727D01*
X0011479Y0035899D01*
X0011217Y0036077D01*
X0010960Y0036262D01*
X0010708Y0036453D01*
X0010460Y0036651D01*
X0010217Y0036854D01*
X0009979Y0037063D01*
X0009747Y0037278D01*
X0009520Y0037499D01*
X0009298Y0037724D01*
X0009081Y0037956D01*
X0008871Y0038192D01*
X0008666Y0038434D01*
X0008468Y0038681D01*
X0008275Y0038932D01*
X0008089Y0039188D01*
X0007909Y0039448D01*
X0007735Y0039713D01*
X0007568Y0039982D01*
X0007407Y0040255D01*
X0007254Y0040532D01*
X0007107Y0040812D01*
X0006966Y0041097D01*
X0006833Y0041384D01*
X0006707Y0041674D01*
X0006589Y0041968D01*
X0006477Y0042264D01*
X0006372Y0042563D01*
X0006275Y0042865D01*
X0006186Y0043168D01*
X0006104Y0043474D01*
X0006029Y0043782D01*
X0005962Y0044091D01*
X0005902Y0044402D01*
X0005850Y0044715D01*
X0005806Y0045028D01*
X0005769Y0045343D01*
X0005741Y0045658D01*
X0005719Y0045974D01*
X0005706Y0046290D01*
X0005700Y0046607D01*
X0005702Y0046924D01*
X0005712Y0047240D01*
X0005730Y0047556D01*
X0005755Y0047872D01*
X0005788Y0048187D01*
X0005828Y0048501D01*
X0005877Y0048814D01*
X0005933Y0049126D01*
X0005996Y0049436D01*
X0006067Y0049744D01*
X0006146Y0050051D01*
X0006232Y0050356D01*
X0006326Y0050658D01*
X0006427Y0050959D01*
X0006535Y0051256D01*
X0006650Y0051551D01*
X0006773Y0051843D01*
X0006903Y0052132D01*
X0007039Y0052417D01*
X0007183Y0052700D01*
X0007334Y0052978D01*
X0007491Y0053253D01*
X0007655Y0053524D01*
X0007826Y0053791D01*
X0008003Y0054053D01*
X0008186Y0054311D01*
X0008376Y0054565D01*
X0008571Y0054814D01*
X0008773Y0055058D01*
X0008981Y0055297D01*
X0009195Y0055531D01*
X0009414Y0055759D01*
X0009639Y0055982D01*
X0009869Y0056200D01*
X0010104Y0056412D01*
X0010344Y0056618D01*
X0010590Y0056818D01*
X0010840Y0057012D01*
X0010896Y0056937D01*
X0010648Y0056744D01*
X0010404Y0056545D01*
X0010166Y0056341D01*
X0009932Y0056131D01*
X0009704Y0055915D01*
X0009481Y0055693D01*
X0009263Y0055466D01*
X0009051Y0055234D01*
X0008845Y0054997D01*
X0008644Y0054755D01*
X0008450Y0054507D01*
X0008262Y0054256D01*
X0008080Y0053999D01*
X0007904Y0053739D01*
X0007735Y0053474D01*
X0007572Y0053205D01*
X0007416Y0052932D01*
X0007266Y0052656D01*
X0007124Y0052376D01*
X0006988Y0052092D01*
X0006859Y0051805D01*
X0006737Y0051515D01*
X0006623Y0051223D01*
X0006515Y0050927D01*
X0006415Y0050629D01*
X0006322Y0050329D01*
X0006237Y0050026D01*
X0006159Y0049722D01*
X0006088Y0049416D01*
X0006025Y0049108D01*
X0005969Y0048798D01*
X0005921Y0048488D01*
X0005881Y0048176D01*
X0005848Y0047863D01*
X0005823Y0047550D01*
X0005806Y0047236D01*
X0005796Y0046922D01*
X0005794Y0046607D01*
X0005800Y0046293D01*
X0005813Y0045979D01*
X0005834Y0045665D01*
X0005863Y0045352D01*
X0005899Y0045040D01*
X0005943Y0044729D01*
X0005995Y0044419D01*
X0006054Y0044110D01*
X0006121Y0043803D01*
X0006195Y0043497D01*
X0006276Y0043194D01*
X0006365Y0042892D01*
X0006462Y0042593D01*
X0006565Y0042296D01*
X0006676Y0042002D01*
X0006794Y0041711D01*
X0006919Y0041422D01*
X0007051Y0041137D01*
X0007190Y0040855D01*
X0007336Y0040577D01*
X0007489Y0040302D01*
X0007648Y0040031D01*
X0007814Y0039764D01*
X0007987Y0039501D01*
X0008165Y0039242D01*
X0008350Y0038988D01*
X0008542Y0038739D01*
X0008739Y0038494D01*
X0008942Y0038254D01*
X0009151Y0038019D01*
X0009366Y0037789D01*
X0009586Y0037565D01*
X0009811Y0037346D01*
X0010042Y0037133D01*
X0010278Y0036925D01*
X0010520Y0036723D01*
X0010765Y0036528D01*
X0011016Y0036338D01*
X0011271Y0036154D01*
X0011531Y0035977D01*
X0011795Y0035806D01*
X0012063Y0035642D01*
X0012335Y0035484D01*
X0012610Y0035333D01*
X0012890Y0035189D01*
X0013172Y0035051D01*
X0013458Y0034921D01*
X0013747Y0034797D01*
X0014040Y0034681D01*
X0014334Y0034572D01*
X0014632Y0034470D01*
X0014931Y0034376D01*
X0015234Y0034288D01*
X0015538Y0034208D01*
X0015843Y0034136D01*
X0016151Y0034071D01*
X0016460Y0034014D01*
X0016771Y0033964D01*
X0017082Y0033922D01*
X0017395Y0033887D01*
X0017708Y0033861D01*
X0018022Y0033841D01*
X0018336Y0033830D01*
X0018650Y0033826D01*
X0018964Y0033830D01*
X0019278Y0033841D01*
X0019592Y0033861D01*
X0019905Y0033887D01*
X0020218Y0033922D01*
X0020529Y0033964D01*
X0020840Y0034014D01*
X0021149Y0034071D01*
X0021457Y0034136D01*
X0021762Y0034208D01*
X0022066Y0034288D01*
X0022369Y0034376D01*
X0022668Y0034470D01*
X0022966Y0034572D01*
X0023260Y0034681D01*
X0023553Y0034797D01*
X0023842Y0034921D01*
X0024128Y0035051D01*
X0024410Y0035189D01*
X0024690Y0035333D01*
X0024965Y0035484D01*
X0025237Y0035642D01*
X0025505Y0035806D01*
X0025769Y0035977D01*
X0026029Y0036154D01*
X0026284Y0036338D01*
X0026535Y0036528D01*
X0026780Y0036723D01*
X0027022Y0036925D01*
X0027258Y0037133D01*
X0027489Y0037346D01*
X0027714Y0037565D01*
X0027934Y0037789D01*
X0028149Y0038019D01*
X0028358Y0038254D01*
X0028561Y0038494D01*
X0028758Y0038739D01*
X0028950Y0038988D01*
X0029135Y0039242D01*
X0029313Y0039501D01*
X0029486Y0039764D01*
X0029652Y0040031D01*
X0029811Y0040302D01*
X0029964Y0040577D01*
X0030110Y0040855D01*
X0030249Y0041137D01*
X0030381Y0041422D01*
X0030506Y0041711D01*
X0030624Y0042002D01*
X0030735Y0042296D01*
X0030838Y0042593D01*
X0030935Y0042892D01*
X0031024Y0043194D01*
X0031105Y0043497D01*
X0031179Y0043803D01*
X0031246Y0044110D01*
X0031305Y0044419D01*
X0031357Y0044729D01*
X0031401Y0045040D01*
X0031437Y0045352D01*
X0031466Y0045665D01*
X0031487Y0045979D01*
X0031500Y0046293D01*
X0031506Y0046607D01*
X0031504Y0046922D01*
X0031494Y0047236D01*
X0031477Y0047550D01*
X0031452Y0047863D01*
X0031419Y0048176D01*
X0031379Y0048488D01*
X0031331Y0048798D01*
X0031275Y0049108D01*
X0031212Y0049416D01*
X0031141Y0049722D01*
X0031063Y0050026D01*
X0030978Y0050329D01*
X0030885Y0050629D01*
X0030785Y0050927D01*
X0030677Y0051223D01*
X0030563Y0051515D01*
X0030441Y0051805D01*
X0030312Y0052092D01*
X0030176Y0052376D01*
X0030034Y0052656D01*
X0029884Y0052932D01*
X0029728Y0053205D01*
X0029565Y0053474D01*
X0029396Y0053739D01*
X0029220Y0053999D01*
X0029038Y0054256D01*
X0028850Y0054507D01*
X0028656Y0054755D01*
X0028455Y0054997D01*
X0028249Y0055234D01*
X0028037Y0055466D01*
X0027819Y0055693D01*
X0027596Y0055915D01*
X0027368Y0056131D01*
X0027134Y0056341D01*
X0026896Y0056545D01*
X0026652Y0056744D01*
X0026404Y0056937D01*
X0026347Y0056862D01*
X0026594Y0056670D01*
X0026836Y0056473D01*
X0027073Y0056270D01*
X0027304Y0056061D01*
X0027531Y0055847D01*
X0027753Y0055627D01*
X0027969Y0055402D01*
X0028179Y0055171D01*
X0028384Y0054936D01*
X0028583Y0054695D01*
X0028776Y0054450D01*
X0028962Y0054200D01*
X0029143Y0053946D01*
X0029318Y0053687D01*
X0029486Y0053424D01*
X0029647Y0053157D01*
X0029802Y0052886D01*
X0029951Y0052612D01*
X0030092Y0052334D01*
X0030227Y0052052D01*
X0030355Y0051768D01*
X0030476Y0051480D01*
X0030590Y0051189D01*
X0030696Y0050896D01*
X0030796Y0050600D01*
X0030888Y0050302D01*
X0030973Y0050002D01*
X0031050Y0049699D01*
X0031120Y0049395D01*
X0031183Y0049090D01*
X0031238Y0048783D01*
X0031286Y0048474D01*
X0031326Y0048165D01*
X0031358Y0047854D01*
X0031383Y0047543D01*
X0031400Y0047232D01*
X0031410Y0046920D01*
X0031412Y0046608D01*
X0031406Y0046296D01*
X0031393Y0045984D01*
X0031372Y0045673D01*
X0031344Y0045362D01*
X0031307Y0045052D01*
X0031264Y0044743D01*
X0031213Y0044435D01*
X0031154Y0044128D01*
X0031088Y0043824D01*
X0031014Y0043520D01*
X0030933Y0043219D01*
X0030845Y0042920D01*
X0030749Y0042623D01*
X0030646Y0042328D01*
X0030536Y0042036D01*
X0030419Y0041747D01*
X0030295Y0041460D01*
X0030164Y0041177D01*
X0030026Y0040897D01*
X0029881Y0040621D01*
X0029729Y0040348D01*
X0029571Y0040079D01*
X0029406Y0039814D01*
X0029235Y0039553D01*
X0029058Y0039297D01*
X0028874Y0039044D01*
X0028684Y0038797D01*
X0028489Y0038554D01*
X0028287Y0038315D01*
X0028079Y0038082D01*
X0027866Y0037854D01*
X0027648Y0037632D01*
X0027424Y0037414D01*
X0027195Y0037203D01*
X0026960Y0036997D01*
X0026721Y0036796D01*
X0026477Y0036602D01*
X0026228Y0036414D01*
X0025975Y0036231D01*
X0025717Y0036055D01*
X0025455Y0035886D01*
X0025189Y0035723D01*
X0024919Y0035566D01*
X0024645Y0035416D01*
X0024368Y0035273D01*
X0024088Y0035136D01*
X0023804Y0035007D01*
X0023517Y0034884D01*
X0023227Y0034769D01*
X0022934Y0034661D01*
X0022639Y0034559D01*
X0022341Y0034465D01*
X0022041Y0034379D01*
X0021740Y0034300D01*
X0021436Y0034228D01*
X0021131Y0034163D01*
X0020824Y0034106D01*
X0020516Y0034057D01*
X0020206Y0034015D01*
X0019896Y0033981D01*
X0019585Y0033954D01*
X0019274Y0033935D01*
X0018962Y0033924D01*
X0018650Y0033920D01*
X0018338Y0033924D01*
X0018026Y0033935D01*
X0017715Y0033954D01*
X0017404Y0033981D01*
X0017094Y0034015D01*
X0016784Y0034057D01*
X0016476Y0034106D01*
X0016169Y0034163D01*
X0015864Y0034228D01*
X0015560Y0034300D01*
X0015259Y0034379D01*
X0014959Y0034465D01*
X0014661Y0034559D01*
X0014366Y0034661D01*
X0014073Y0034769D01*
X0013783Y0034884D01*
X0013496Y0035007D01*
X0013212Y0035136D01*
X0012932Y0035273D01*
X0012655Y0035416D01*
X0012381Y0035566D01*
X0012111Y0035723D01*
X0011845Y0035886D01*
X0011583Y0036055D01*
X0011325Y0036231D01*
X0011072Y0036414D01*
X0010823Y0036602D01*
X0010579Y0036796D01*
X0010340Y0036997D01*
X0010105Y0037203D01*
X0009876Y0037414D01*
X0009652Y0037632D01*
X0009434Y0037854D01*
X0009221Y0038082D01*
X0009013Y0038315D01*
X0008811Y0038554D01*
X0008616Y0038797D01*
X0008426Y0039044D01*
X0008242Y0039297D01*
X0008065Y0039553D01*
X0007894Y0039814D01*
X0007729Y0040079D01*
X0007571Y0040348D01*
X0007419Y0040621D01*
X0007274Y0040897D01*
X0007136Y0041177D01*
X0007005Y0041460D01*
X0006881Y0041747D01*
X0006764Y0042036D01*
X0006654Y0042328D01*
X0006551Y0042623D01*
X0006455Y0042920D01*
X0006367Y0043219D01*
X0006286Y0043520D01*
X0006212Y0043824D01*
X0006146Y0044128D01*
X0006087Y0044435D01*
X0006036Y0044743D01*
X0005993Y0045052D01*
X0005956Y0045362D01*
X0005928Y0045673D01*
X0005907Y0045984D01*
X0005894Y0046296D01*
X0005888Y0046608D01*
X0005890Y0046920D01*
X0005900Y0047232D01*
X0005917Y0047543D01*
X0005942Y0047854D01*
X0005974Y0048165D01*
X0006014Y0048474D01*
X0006062Y0048783D01*
X0006117Y0049090D01*
X0006180Y0049395D01*
X0006250Y0049699D01*
X0006327Y0050002D01*
X0006412Y0050302D01*
X0006504Y0050600D01*
X0006604Y0050896D01*
X0006710Y0051189D01*
X0006824Y0051480D01*
X0006945Y0051768D01*
X0007073Y0052052D01*
X0007208Y0052334D01*
X0007349Y0052612D01*
X0007498Y0052886D01*
X0007653Y0053157D01*
X0007814Y0053424D01*
X0007982Y0053687D01*
X0008157Y0053946D01*
X0008338Y0054200D01*
X0008524Y0054450D01*
X0008717Y0054695D01*
X0008916Y0054936D01*
X0009121Y0055171D01*
X0009331Y0055402D01*
X0009547Y0055627D01*
X0009769Y0055847D01*
X0009996Y0056061D01*
X0010227Y0056270D01*
X0010464Y0056473D01*
X0010706Y0056670D01*
X0010953Y0056862D01*
X0011009Y0056786D01*
X0010764Y0056596D01*
X0010524Y0056401D01*
X0010289Y0056199D01*
X0010059Y0055992D01*
X0009834Y0055779D01*
X0009614Y0055561D01*
X0009400Y0055337D01*
X0009191Y0055108D01*
X0008988Y0054875D01*
X0008790Y0054636D01*
X0008599Y0054393D01*
X0008413Y0054144D01*
X0008234Y0053892D01*
X0008061Y0053635D01*
X0007894Y0053374D01*
X0007733Y0053109D01*
X0007580Y0052840D01*
X0007432Y0052568D01*
X0007292Y0052292D01*
X0007158Y0052012D01*
X0007031Y0051730D01*
X0006911Y0051444D01*
X0006798Y0051156D01*
X0006692Y0050865D01*
X0006594Y0050571D01*
X0006502Y0050275D01*
X0006418Y0049977D01*
X0006341Y0049677D01*
X0006272Y0049375D01*
X0006209Y0049072D01*
X0006155Y0048767D01*
X0006107Y0048461D01*
X0006068Y0048153D01*
X0006036Y0047845D01*
X0006011Y0047537D01*
X0005994Y0047227D01*
X0005984Y0046918D01*
X0005982Y0046608D01*
X0005988Y0046298D01*
X0006001Y0045989D01*
X0006022Y0045680D01*
X0006050Y0045371D01*
X0006086Y0045064D01*
X0006129Y0044757D01*
X0006180Y0044451D01*
X0006238Y0044147D01*
X0006304Y0043844D01*
X0006377Y0043543D01*
X0006457Y0043244D01*
X0006545Y0042947D01*
X0006640Y0042652D01*
X0006742Y0042360D01*
X0006851Y0042070D01*
X0006968Y0041783D01*
X0007091Y0041499D01*
X0007221Y0041218D01*
X0007358Y0040940D01*
X0007502Y0040666D01*
X0007652Y0040395D01*
X0007809Y0040128D01*
X0007973Y0039865D01*
X0008143Y0039606D01*
X0008319Y0039351D01*
X0008501Y0039100D01*
X0008690Y0038855D01*
X0008884Y0038613D01*
X0009084Y0038377D01*
X0009290Y0038146D01*
X0009502Y0037919D01*
X0009719Y0037698D01*
X0009941Y0037483D01*
X0010168Y0037272D01*
X0010401Y0037068D01*
X0010639Y0036869D01*
X0010881Y0036676D01*
X0011128Y0036489D01*
X0011379Y0036308D01*
X0011635Y0036134D01*
X0011895Y0035965D01*
X0012159Y0035803D01*
X0012427Y0035648D01*
X0012699Y0035499D01*
X0012974Y0035357D01*
X0013253Y0035221D01*
X0013534Y0035093D01*
X0013819Y0034971D01*
X0014107Y0034857D01*
X0014398Y0034749D01*
X0014691Y0034649D01*
X0014986Y0034555D01*
X0015284Y0034469D01*
X0015583Y0034391D01*
X0015885Y0034320D01*
X0016188Y0034256D01*
X0016492Y0034199D01*
X0016798Y0034150D01*
X0017105Y0034109D01*
X0017413Y0034075D01*
X0017722Y0034048D01*
X0018031Y0034029D01*
X0018340Y0034018D01*
X0018650Y0034014D01*
X0018960Y0034018D01*
X0019269Y0034029D01*
X0019578Y0034048D01*
X0019887Y0034075D01*
X0020195Y0034109D01*
X0020502Y0034150D01*
X0020808Y0034199D01*
X0021112Y0034256D01*
X0021415Y0034320D01*
X0021717Y0034391D01*
X0022016Y0034469D01*
X0022314Y0034555D01*
X0022609Y0034649D01*
X0022902Y0034749D01*
X0023193Y0034857D01*
X0023481Y0034971D01*
X0023766Y0035093D01*
X0024047Y0035221D01*
X0024326Y0035357D01*
X0024601Y0035499D01*
X0024873Y0035648D01*
X0025141Y0035803D01*
X0025405Y0035965D01*
X0025665Y0036134D01*
X0025921Y0036308D01*
X0026172Y0036489D01*
X0026419Y0036676D01*
X0026661Y0036869D01*
X0026899Y0037068D01*
X0027132Y0037272D01*
X0027359Y0037483D01*
X0027581Y0037698D01*
X0027798Y0037919D01*
X0028010Y0038146D01*
X0028216Y0038377D01*
X0028416Y0038613D01*
X0028610Y0038855D01*
X0028799Y0039100D01*
X0028981Y0039351D01*
X0029157Y0039606D01*
X0029327Y0039865D01*
X0029491Y0040128D01*
X0029648Y0040395D01*
X0029798Y0040666D01*
X0029942Y0040940D01*
X0030079Y0041218D01*
X0030209Y0041499D01*
X0030332Y0041783D01*
X0030449Y0042070D01*
X0030558Y0042360D01*
X0030660Y0042652D01*
X0030755Y0042947D01*
X0030843Y0043244D01*
X0030923Y0043543D01*
X0030996Y0043844D01*
X0031062Y0044147D01*
X0031120Y0044451D01*
X0031171Y0044757D01*
X0031214Y0045064D01*
X0031250Y0045371D01*
X0031278Y0045680D01*
X0031299Y0045989D01*
X0031312Y0046298D01*
X0031318Y0046608D01*
X0031316Y0046918D01*
X0031306Y0047227D01*
X0031289Y0047537D01*
X0031264Y0047845D01*
X0031232Y0048153D01*
X0031193Y0048461D01*
X0031145Y0048767D01*
X0031091Y0049072D01*
X0031028Y0049375D01*
X0030959Y0049677D01*
X0030882Y0049977D01*
X0030798Y0050275D01*
X0030706Y0050571D01*
X0030608Y0050865D01*
X0030502Y0051156D01*
X0030389Y0051444D01*
X0030269Y0051730D01*
X0030142Y0052012D01*
X0030008Y0052292D01*
X0029868Y0052568D01*
X0029720Y0052840D01*
X0029567Y0053109D01*
X0029406Y0053374D01*
X0029239Y0053635D01*
X0029066Y0053892D01*
X0028887Y0054144D01*
X0028701Y0054393D01*
X0028510Y0054636D01*
X0028312Y0054875D01*
X0028109Y0055108D01*
X0027900Y0055337D01*
X0027686Y0055561D01*
X0027466Y0055779D01*
X0027241Y0055992D01*
X0027011Y0056199D01*
X0026776Y0056401D01*
X0026536Y0056596D01*
X0026291Y0056786D01*
X0026234Y0056711D01*
X0026477Y0056523D01*
X0026716Y0056328D01*
X0026949Y0056128D01*
X0027177Y0055923D01*
X0027401Y0055711D01*
X0027619Y0055495D01*
X0027832Y0055273D01*
X0028039Y0055046D01*
X0028241Y0054814D01*
X0028437Y0054577D01*
X0028627Y0054335D01*
X0028811Y0054089D01*
X0028989Y0053838D01*
X0029161Y0053583D01*
X0029326Y0053324D01*
X0029486Y0053061D01*
X0029638Y0052794D01*
X0029785Y0052524D01*
X0029924Y0052250D01*
X0030057Y0051973D01*
X0030183Y0051692D01*
X0030302Y0051409D01*
X0030414Y0051122D01*
X0030519Y0050833D01*
X0030617Y0050542D01*
X0030708Y0050248D01*
X0030791Y0049952D01*
X0030868Y0049655D01*
X0030937Y0049355D01*
X0030998Y0049054D01*
X0031053Y0048751D01*
X0031099Y0048447D01*
X0031139Y0048142D01*
X0031171Y0047837D01*
X0031195Y0047530D01*
X0031212Y0047223D01*
X0031222Y0046916D01*
X0031224Y0046608D01*
X0031218Y0046301D01*
X0031205Y0045994D01*
X0031185Y0045687D01*
X0031156Y0045381D01*
X0031121Y0045075D01*
X0031078Y0044771D01*
X0031027Y0044468D01*
X0030970Y0044166D01*
X0030904Y0043865D01*
X0030832Y0043566D01*
X0030752Y0043270D01*
X0030665Y0042975D01*
X0030571Y0042682D01*
X0030469Y0042392D01*
X0030361Y0042104D01*
X0030246Y0041819D01*
X0030123Y0041537D01*
X0029994Y0041258D01*
X0029858Y0040982D01*
X0029715Y0040710D01*
X0029566Y0040441D01*
X0029410Y0040176D01*
X0029248Y0039915D01*
X0029079Y0039658D01*
X0028904Y0039405D01*
X0028723Y0039157D01*
X0028536Y0038913D01*
X0028343Y0038673D01*
X0028145Y0038439D01*
X0027940Y0038209D01*
X0027730Y0037984D01*
X0027515Y0037765D01*
X0027294Y0037551D01*
X0027069Y0037342D01*
X0026838Y0037139D01*
X0026602Y0036942D01*
X0026361Y0036750D01*
X0026116Y0036565D01*
X0025867Y0036385D01*
X0025613Y0036212D01*
X0025355Y0036045D01*
X0025093Y0035884D01*
X0024827Y0035730D01*
X0024557Y0035582D01*
X0024284Y0035441D01*
X0024007Y0035306D01*
X0023728Y0035179D01*
X0023445Y0035058D01*
X0023159Y0034944D01*
X0022871Y0034838D01*
X0022580Y0034738D01*
X0022287Y0034645D01*
X0021991Y0034560D01*
X0021694Y0034482D01*
X0021395Y0034411D01*
X0021094Y0034348D01*
X0020792Y0034292D01*
X0020488Y0034243D01*
X0020183Y0034202D01*
X0019878Y0034168D01*
X0019572Y0034142D01*
X0019265Y0034123D01*
X0018957Y0034112D01*
X0018650Y0034108D01*
X0018343Y0034112D01*
X0018035Y0034123D01*
X0017728Y0034142D01*
X0017422Y0034168D01*
X0017117Y0034202D01*
X0016812Y0034243D01*
X0016508Y0034292D01*
X0016206Y0034348D01*
X0015905Y0034411D01*
X0015606Y0034482D01*
X0015309Y0034560D01*
X0015013Y0034645D01*
X0014720Y0034738D01*
X0014429Y0034838D01*
X0014141Y0034944D01*
X0013855Y0035058D01*
X0013572Y0035179D01*
X0013293Y0035306D01*
X0013016Y0035441D01*
X0012743Y0035582D01*
X0012473Y0035730D01*
X0012207Y0035884D01*
X0011945Y0036045D01*
X0011687Y0036212D01*
X0011433Y0036385D01*
X0011184Y0036565D01*
X0010939Y0036750D01*
X0010698Y0036942D01*
X0010462Y0037139D01*
X0010231Y0037342D01*
X0010006Y0037551D01*
X0009785Y0037765D01*
X0009570Y0037984D01*
X0009360Y0038209D01*
X0009155Y0038439D01*
X0008957Y0038673D01*
X0008764Y0038913D01*
X0008577Y0039157D01*
X0008396Y0039405D01*
X0008221Y0039658D01*
X0008052Y0039915D01*
X0007890Y0040176D01*
X0007734Y0040441D01*
X0007585Y0040710D01*
X0007442Y0040982D01*
X0007306Y0041258D01*
X0007177Y0041537D01*
X0007054Y0041819D01*
X0006939Y0042104D01*
X0006831Y0042392D01*
X0006729Y0042682D01*
X0006635Y0042975D01*
X0006548Y0043270D01*
X0006468Y0043566D01*
X0006396Y0043865D01*
X0006330Y0044166D01*
X0006273Y0044468D01*
X0006222Y0044771D01*
X0006179Y0045075D01*
X0006144Y0045381D01*
X0006115Y0045687D01*
X0006095Y0045994D01*
X0006082Y0046301D01*
X0006076Y0046608D01*
X0006078Y0046916D01*
X0006088Y0047223D01*
X0006105Y0047530D01*
X0006129Y0047837D01*
X0006161Y0048142D01*
X0006201Y0048447D01*
X0006247Y0048751D01*
X0006302Y0049054D01*
X0006363Y0049355D01*
X0006432Y0049655D01*
X0006509Y0049952D01*
X0006592Y0050248D01*
X0006683Y0050542D01*
X0006781Y0050833D01*
X0006886Y0051122D01*
X0006998Y0051409D01*
X0007117Y0051692D01*
X0007243Y0051973D01*
X0007376Y0052250D01*
X0007515Y0052524D01*
X0007662Y0052794D01*
X0007814Y0053061D01*
X0007974Y0053324D01*
X0008139Y0053583D01*
X0008311Y0053838D01*
X0008489Y0054089D01*
X0008673Y0054335D01*
X0008863Y0054577D01*
X0009059Y0054814D01*
X0009261Y0055046D01*
X0009468Y0055273D01*
X0009681Y0055495D01*
X0009899Y0055711D01*
X0010123Y0055923D01*
X0010351Y0056128D01*
X0010584Y0056328D01*
X0010823Y0056523D01*
X0011066Y0056711D01*
X0011122Y0056636D01*
X0010881Y0056449D01*
X0010644Y0056256D01*
X0010413Y0056057D01*
X0010186Y0055853D01*
X0009964Y0055644D01*
X0009748Y0055429D01*
X0009537Y0055208D01*
X0009331Y0054983D01*
X0009131Y0054753D01*
X0008936Y0054517D01*
X0008748Y0054278D01*
X0008565Y0054033D01*
X0008388Y0053784D01*
X0008218Y0053531D01*
X0008053Y0053274D01*
X0007895Y0053013D01*
X0007744Y0052748D01*
X0007599Y0052480D01*
X0007460Y0052208D01*
X0007328Y0051933D01*
X0007203Y0051654D01*
X0007085Y0051373D01*
X0006974Y0051089D01*
X0006870Y0050802D01*
X0006772Y0050513D01*
X0006682Y0050221D01*
X0006599Y0049928D01*
X0006524Y0049632D01*
X0006455Y0049335D01*
X0006394Y0049036D01*
X0006340Y0048735D01*
X0006294Y0048434D01*
X0006254Y0048131D01*
X0006223Y0047828D01*
X0006198Y0047523D01*
X0006182Y0047219D01*
X0006172Y0046914D01*
X0006170Y0046609D01*
X0006176Y0046304D01*
X0006189Y0045999D01*
X0006209Y0045694D01*
X0006237Y0045390D01*
X0006272Y0045087D01*
X0006315Y0044785D01*
X0006365Y0044484D01*
X0006422Y0044184D01*
X0006487Y0043886D01*
X0006559Y0043590D01*
X0006638Y0043295D01*
X0006725Y0043002D01*
X0006818Y0042712D01*
X0006919Y0042424D01*
X0007027Y0042138D01*
X0007141Y0041855D01*
X0007263Y0041575D01*
X0007391Y0041298D01*
X0007526Y0041025D01*
X0007667Y0040755D01*
X0007816Y0040488D01*
X0007970Y0040225D01*
X0008131Y0039966D01*
X0008299Y0039710D01*
X0008472Y0039459D01*
X0008652Y0039213D01*
X0008838Y0038971D01*
X0009029Y0038733D01*
X0009226Y0038500D01*
X0009429Y0038272D01*
X0009638Y0038049D01*
X0009851Y0037831D01*
X0010070Y0037619D01*
X0010294Y0037412D01*
X0010524Y0037210D01*
X0010758Y0037014D01*
X0010996Y0036824D01*
X0011240Y0036640D01*
X0011487Y0036462D01*
X0011739Y0036290D01*
X0011996Y0036124D01*
X0012256Y0035965D01*
X0012520Y0035811D01*
X0012787Y0035665D01*
X0013058Y0035525D01*
X0013333Y0035391D01*
X0013610Y0035265D01*
X0013891Y0035145D01*
X0014175Y0035032D01*
X0014461Y0034926D01*
X0014749Y0034827D01*
X0015040Y0034735D01*
X0015334Y0034651D01*
X0015629Y0034573D01*
X0015926Y0034503D01*
X0016224Y0034440D01*
X0016524Y0034384D01*
X0016826Y0034336D01*
X0017128Y0034295D01*
X0017431Y0034262D01*
X0017735Y0034236D01*
X0018040Y0034217D01*
X0018345Y0034206D01*
X0018650Y0034202D01*
X0018955Y0034206D01*
X0019260Y0034217D01*
X0019565Y0034236D01*
X0019869Y0034262D01*
X0020172Y0034295D01*
X0020474Y0034336D01*
X0020776Y0034384D01*
X0021076Y0034440D01*
X0021374Y0034503D01*
X0021671Y0034573D01*
X0021966Y0034651D01*
X0022260Y0034735D01*
X0022551Y0034827D01*
X0022839Y0034926D01*
X0023125Y0035032D01*
X0023409Y0035145D01*
X0023690Y0035265D01*
X0023967Y0035391D01*
X0024242Y0035525D01*
X0024513Y0035665D01*
X0024780Y0035811D01*
X0025044Y0035965D01*
X0025304Y0036124D01*
X0025561Y0036290D01*
X0025813Y0036462D01*
X0026060Y0036640D01*
X0026304Y0036824D01*
X0026542Y0037014D01*
X0026776Y0037210D01*
X0027006Y0037412D01*
X0027230Y0037619D01*
X0027449Y0037831D01*
X0027662Y0038049D01*
X0027871Y0038272D01*
X0028074Y0038500D01*
X0028271Y0038733D01*
X0028462Y0038971D01*
X0028648Y0039213D01*
X0028828Y0039459D01*
X0029001Y0039710D01*
X0029169Y0039966D01*
X0029330Y0040225D01*
X0029484Y0040488D01*
X0029633Y0040755D01*
X0029774Y0041025D01*
X0029909Y0041298D01*
X0030037Y0041575D01*
X0030159Y0041855D01*
X0030273Y0042138D01*
X0030381Y0042424D01*
X0030482Y0042712D01*
X0030575Y0043002D01*
X0030662Y0043295D01*
X0030741Y0043590D01*
X0030813Y0043886D01*
X0030878Y0044184D01*
X0030935Y0044484D01*
X0030985Y0044785D01*
X0031028Y0045087D01*
X0031063Y0045390D01*
X0031091Y0045694D01*
X0031111Y0045999D01*
X0031124Y0046304D01*
X0031130Y0046609D01*
X0031128Y0046914D01*
X0031118Y0047219D01*
X0031102Y0047523D01*
X0031077Y0047828D01*
X0031046Y0048131D01*
X0031006Y0048434D01*
X0030960Y0048735D01*
X0030906Y0049036D01*
X0030845Y0049335D01*
X0030776Y0049632D01*
X0030701Y0049928D01*
X0030618Y0050221D01*
X0030528Y0050513D01*
X0030430Y0050802D01*
X0030326Y0051089D01*
X0030215Y0051373D01*
X0030097Y0051654D01*
X0029972Y0051933D01*
X0029840Y0052208D01*
X0029701Y0052480D01*
X0029556Y0052748D01*
X0029405Y0053013D01*
X0029247Y0053274D01*
X0029082Y0053531D01*
X0028912Y0053784D01*
X0028735Y0054033D01*
X0028552Y0054278D01*
X0028364Y0054517D01*
X0028169Y0054753D01*
X0027969Y0054983D01*
X0027763Y0055208D01*
X0027552Y0055429D01*
X0027336Y0055644D01*
X0027114Y0055853D01*
X0026887Y0056057D01*
X0026656Y0056256D01*
X0026419Y0056449D01*
X0026178Y0056636D01*
X0026122Y0056561D01*
X0026361Y0056375D01*
X0026596Y0056184D01*
X0026825Y0055987D01*
X0027050Y0055784D01*
X0027271Y0055576D01*
X0027485Y0055362D01*
X0027695Y0055144D01*
X0027899Y0054920D01*
X0028098Y0054692D01*
X0028291Y0054458D01*
X0028478Y0054220D01*
X0028659Y0053978D01*
X0028835Y0053731D01*
X0029004Y0053480D01*
X0029167Y0053224D01*
X0029324Y0052965D01*
X0029474Y0052702D01*
X0029618Y0052436D01*
X0029756Y0052166D01*
X0029887Y0051893D01*
X0030011Y0051617D01*
X0030128Y0051337D01*
X0030238Y0051055D01*
X0030342Y0050771D01*
X0030438Y0050484D01*
X0030528Y0050194D01*
X0030610Y0049903D01*
X0030685Y0049610D01*
X0030753Y0049314D01*
X0030814Y0049018D01*
X0030867Y0048720D01*
X0030913Y0048420D01*
X0030952Y0048120D01*
X0030984Y0047819D01*
X0031008Y0047517D01*
X0031025Y0047214D01*
X0031034Y0046912D01*
X0031036Y0046609D01*
X0031030Y0046306D01*
X0031017Y0046004D01*
X0030997Y0045701D01*
X0030969Y0045400D01*
X0030934Y0045099D01*
X0030892Y0044799D01*
X0030842Y0044500D01*
X0030785Y0044203D01*
X0030721Y0043907D01*
X0030650Y0043613D01*
X0030571Y0043320D01*
X0030485Y0043030D01*
X0030392Y0042741D01*
X0030293Y0042456D01*
X0030186Y0042172D01*
X0030072Y0041892D01*
X0029952Y0041614D01*
X0029824Y0041339D01*
X0029690Y0041067D01*
X0029550Y0040799D01*
X0029403Y0040534D01*
X0029249Y0040273D01*
X0029089Y0040016D01*
X0028923Y0039763D01*
X0028751Y0039514D01*
X0028573Y0039269D01*
X0028388Y0039028D01*
X0028198Y0038793D01*
X0028003Y0038562D01*
X0027801Y0038335D01*
X0027595Y0038114D01*
X0027382Y0037898D01*
X0027165Y0037687D01*
X0026943Y0037482D01*
X0026715Y0037282D01*
X0026483Y0037087D01*
X0026246Y0036899D01*
X0026004Y0036716D01*
X0025759Y0036539D01*
X0025508Y0036368D01*
X0025254Y0036204D01*
X0024996Y0036045D01*
X0024734Y0035893D01*
X0024469Y0035748D01*
X0024200Y0035609D01*
X0023927Y0035476D01*
X0023652Y0035351D01*
X0023373Y0035232D01*
X0023092Y0035120D01*
X0022808Y0035015D01*
X0022521Y0034916D01*
X0022232Y0034825D01*
X0021941Y0034741D01*
X0021648Y0034664D01*
X0021354Y0034595D01*
X0021057Y0034532D01*
X0020760Y0034477D01*
X0020461Y0034429D01*
X0020161Y0034388D01*
X0019859Y0034355D01*
X0019558Y0034329D01*
X0019255Y0034311D01*
X0018953Y0034300D01*
X0018650Y0034296D01*
X0018347Y0034300D01*
X0018045Y0034311D01*
X0017742Y0034329D01*
X0017441Y0034355D01*
X0017139Y0034388D01*
X0016839Y0034429D01*
X0016540Y0034477D01*
X0016243Y0034532D01*
X0015946Y0034595D01*
X0015652Y0034664D01*
X0015359Y0034741D01*
X0015068Y0034825D01*
X0014779Y0034916D01*
X0014492Y0035015D01*
X0014208Y0035120D01*
X0013927Y0035232D01*
X0013648Y0035351D01*
X0013373Y0035476D01*
X0013100Y0035609D01*
X0012831Y0035748D01*
X0012566Y0035893D01*
X0012304Y0036045D01*
X0012046Y0036204D01*
X0011792Y0036368D01*
X0011541Y0036539D01*
X0011296Y0036716D01*
X0011054Y0036899D01*
X0010817Y0037087D01*
X0010585Y0037282D01*
X0010357Y0037482D01*
X0010135Y0037687D01*
X0009918Y0037898D01*
X0009705Y0038114D01*
X0009499Y0038335D01*
X0009297Y0038562D01*
X0009102Y0038793D01*
X0008912Y0039028D01*
X0008727Y0039269D01*
X0008549Y0039514D01*
X0008377Y0039763D01*
X0008211Y0040016D01*
X0008051Y0040273D01*
X0007897Y0040534D01*
X0007750Y0040799D01*
X0007610Y0041067D01*
X0007476Y0041339D01*
X0007348Y0041614D01*
X0007228Y0041892D01*
X0007114Y0042172D01*
X0007007Y0042456D01*
X0006908Y0042741D01*
X0006815Y0043030D01*
X0006729Y0043320D01*
X0006650Y0043613D01*
X0006579Y0043907D01*
X0006515Y0044203D01*
X0006458Y0044500D01*
X0006408Y0044799D01*
X0006366Y0045099D01*
X0006331Y0045400D01*
X0006303Y0045701D01*
X0006283Y0046004D01*
X0006270Y0046306D01*
X0006264Y0046609D01*
X0006266Y0046912D01*
X0006275Y0047214D01*
X0006292Y0047517D01*
X0006316Y0047819D01*
X0006348Y0048120D01*
X0006387Y0048420D01*
X0006433Y0048720D01*
X0006486Y0049018D01*
X0006547Y0049314D01*
X0006615Y0049610D01*
X0006690Y0049903D01*
X0006772Y0050194D01*
X0006862Y0050484D01*
X0006958Y0050771D01*
X0007062Y0051055D01*
X0007172Y0051337D01*
X0007289Y0051617D01*
X0007413Y0051893D01*
X0007544Y0052166D01*
X0007682Y0052436D01*
X0007826Y0052702D01*
X0007976Y0052965D01*
X0008133Y0053224D01*
X0008296Y0053480D01*
X0008465Y0053731D01*
X0008641Y0053978D01*
X0008822Y0054220D01*
X0009009Y0054458D01*
X0009202Y0054692D01*
X0009401Y0054920D01*
X0009605Y0055144D01*
X0009815Y0055362D01*
X0010029Y0055576D01*
X0010250Y0055784D01*
X0010475Y0055987D01*
X0010704Y0056184D01*
X0010939Y0056375D01*
X0011178Y0056561D01*
X0011235Y0056486D01*
X0010997Y0056301D01*
X0010765Y0056111D01*
X0010536Y0055916D01*
X0010313Y0055715D01*
X0010095Y0055508D01*
X0009881Y0055296D01*
X0009673Y0055079D01*
X0009471Y0054857D01*
X0009274Y0054630D01*
X0009082Y0054399D01*
X0008896Y0054163D01*
X0008716Y0053922D01*
X0008542Y0053677D01*
X0008374Y0053428D01*
X0008212Y0053174D01*
X0008057Y0052917D01*
X0007908Y0052656D01*
X0007765Y0052392D01*
X0007628Y0052124D01*
X0007499Y0051853D01*
X0007376Y0051579D01*
X0007259Y0051302D01*
X0007150Y0051022D01*
X0007047Y0050739D01*
X0006951Y0050455D01*
X0006863Y0050167D01*
X0006781Y0049878D01*
X0006706Y0049587D01*
X0006639Y0049294D01*
X0006578Y0049000D01*
X0006525Y0048704D01*
X0006480Y0048407D01*
X0006441Y0048109D01*
X0006410Y0047810D01*
X0006386Y0047510D01*
X0006369Y0047210D01*
X0006360Y0046910D01*
X0006358Y0046609D01*
X0006364Y0046309D01*
X0006376Y0046008D01*
X0006397Y0045709D01*
X0006424Y0045409D01*
X0006459Y0045111D01*
X0006501Y0044813D01*
X0006550Y0044517D01*
X0006607Y0044222D01*
X0006671Y0043928D01*
X0006741Y0043636D01*
X0006819Y0043346D01*
X0006905Y0043057D01*
X0006997Y0042771D01*
X0007096Y0042487D01*
X0007202Y0042206D01*
X0007315Y0041928D01*
X0007434Y0041652D01*
X0007561Y0041379D01*
X0007694Y0041110D01*
X0007833Y0040844D01*
X0007979Y0040581D01*
X0008131Y0040322D01*
X0008290Y0040066D01*
X0008455Y0039815D01*
X0008626Y0039568D01*
X0008803Y0039325D01*
X0008986Y0039086D01*
X0009174Y0038852D01*
X0009368Y0038623D01*
X0009568Y0038399D01*
X0009773Y0038179D01*
X0009984Y0037965D01*
X0010200Y0037755D01*
X0010420Y0037551D01*
X0010646Y0037353D01*
X0010877Y0037160D01*
X0011112Y0036973D01*
X0011351Y0036791D01*
X0011595Y0036616D01*
X0011844Y0036446D01*
X0012096Y0036283D01*
X0012352Y0036126D01*
X0012612Y0035975D01*
X0012876Y0035831D01*
X0013143Y0035693D01*
X0013413Y0035561D01*
X0013686Y0035437D01*
X0013963Y0035319D01*
X0014242Y0035208D01*
X0014524Y0035103D01*
X0014808Y0035006D01*
X0015095Y0034915D01*
X0015384Y0034832D01*
X0015674Y0034756D01*
X0015967Y0034686D01*
X0016261Y0034624D01*
X0016556Y0034570D01*
X0016853Y0034522D01*
X0017151Y0034482D01*
X0017450Y0034449D01*
X0017749Y0034423D01*
X0018049Y0034405D01*
X0018349Y0034394D01*
X0018650Y0034390D01*
X0018951Y0034394D01*
X0019251Y0034405D01*
X0019551Y0034423D01*
X0019850Y0034449D01*
X0020149Y0034482D01*
X0020447Y0034522D01*
X0020744Y0034570D01*
X0021039Y0034624D01*
X0021333Y0034686D01*
X0021626Y0034756D01*
X0021916Y0034832D01*
X0022205Y0034915D01*
X0022492Y0035006D01*
X0022776Y0035103D01*
X0023058Y0035208D01*
X0023337Y0035319D01*
X0023614Y0035437D01*
X0023887Y0035561D01*
X0024157Y0035693D01*
X0024424Y0035831D01*
X0024688Y0035975D01*
X0024948Y0036126D01*
X0025204Y0036283D01*
X0025456Y0036446D01*
X0025705Y0036616D01*
X0025949Y0036791D01*
X0026188Y0036973D01*
X0026423Y0037160D01*
X0026654Y0037353D01*
X0026880Y0037551D01*
X0027100Y0037755D01*
X0027316Y0037965D01*
X0027527Y0038179D01*
X0027732Y0038399D01*
X0027932Y0038623D01*
X0028126Y0038852D01*
X0028314Y0039086D01*
X0028497Y0039325D01*
X0028674Y0039568D01*
X0028845Y0039815D01*
X0029010Y0040066D01*
X0029169Y0040322D01*
X0029321Y0040581D01*
X0029467Y0040844D01*
X0029606Y0041110D01*
X0029739Y0041379D01*
X0029866Y0041652D01*
X0029985Y0041928D01*
X0030098Y0042206D01*
X0030204Y0042487D01*
X0030303Y0042771D01*
X0030395Y0043057D01*
X0030481Y0043346D01*
X0030559Y0043636D01*
X0030629Y0043928D01*
X0030693Y0044222D01*
X0030750Y0044517D01*
X0030799Y0044813D01*
X0030841Y0045111D01*
X0030876Y0045409D01*
X0030903Y0045709D01*
X0030924Y0046008D01*
X0030936Y0046309D01*
X0030942Y0046609D01*
X0030940Y0046910D01*
X0030931Y0047210D01*
X0030914Y0047510D01*
X0030890Y0047810D01*
X0030859Y0048109D01*
X0030820Y0048407D01*
X0030775Y0048704D01*
X0030722Y0049000D01*
X0030661Y0049294D01*
X0030594Y0049587D01*
X0030519Y0049878D01*
X0030437Y0050167D01*
X0030349Y0050455D01*
X0030253Y0050739D01*
X0030150Y0051022D01*
X0030041Y0051302D01*
X0029924Y0051579D01*
X0029801Y0051853D01*
X0029672Y0052124D01*
X0029535Y0052392D01*
X0029392Y0052656D01*
X0029243Y0052917D01*
X0029088Y0053174D01*
X0028926Y0053428D01*
X0028758Y0053677D01*
X0028584Y0053922D01*
X0028404Y0054163D01*
X0028218Y0054399D01*
X0028026Y0054630D01*
X0027829Y0054857D01*
X0027627Y0055079D01*
X0027419Y0055296D01*
X0027205Y0055508D01*
X0026987Y0055715D01*
X0026764Y0055916D01*
X0026535Y0056111D01*
X0026303Y0056301D01*
X0026065Y0056486D01*
X0026009Y0056410D01*
X0026244Y0056228D01*
X0026475Y0056039D01*
X0026702Y0055845D01*
X0026924Y0055645D01*
X0027140Y0055440D01*
X0027352Y0055230D01*
X0027558Y0055015D01*
X0027759Y0054795D01*
X0027955Y0054569D01*
X0028145Y0054340D01*
X0028329Y0054105D01*
X0028508Y0053866D01*
X0028681Y0053623D01*
X0028847Y0053376D01*
X0029008Y0053124D01*
X0029162Y0052869D01*
X0029310Y0052610D01*
X0029452Y0052348D01*
X0029587Y0052082D01*
X0029716Y0051813D01*
X0029838Y0051541D01*
X0029954Y0051266D01*
X0030063Y0050988D01*
X0030164Y0050708D01*
X0030259Y0050425D01*
X0030347Y0050140D01*
X0030428Y0049853D01*
X0030503Y0049565D01*
X0030569Y0049274D01*
X0030629Y0048982D01*
X0030682Y0048688D01*
X0030727Y0048393D01*
X0030766Y0048098D01*
X0030797Y0047801D01*
X0030820Y0047504D01*
X0030837Y0047206D01*
X0030846Y0046908D01*
X0030848Y0046610D01*
X0030842Y0046311D01*
X0030830Y0046013D01*
X0030810Y0045716D01*
X0030782Y0045419D01*
X0030748Y0045123D01*
X0030706Y0044827D01*
X0030657Y0044533D01*
X0030601Y0044240D01*
X0030538Y0043949D01*
X0030467Y0043659D01*
X0030390Y0043371D01*
X0030306Y0043085D01*
X0030214Y0042801D01*
X0030116Y0042519D01*
X0030011Y0042240D01*
X0029899Y0041964D01*
X0029780Y0041690D01*
X0029655Y0041420D01*
X0029523Y0041152D01*
X0029384Y0040888D01*
X0029239Y0040627D01*
X0029088Y0040370D01*
X0028931Y0040117D01*
X0028767Y0039868D01*
X0028597Y0039622D01*
X0028422Y0039381D01*
X0028240Y0039144D01*
X0028053Y0038912D01*
X0027861Y0038685D01*
X0027662Y0038462D01*
X0027459Y0038244D01*
X0027250Y0038031D01*
X0027036Y0037823D01*
X0026816Y0037621D01*
X0026593Y0037424D01*
X0026364Y0037233D01*
X0026130Y0037047D01*
X0025893Y0036867D01*
X0025651Y0036693D01*
X0025404Y0036525D01*
X0025154Y0036363D01*
X0024900Y0036207D01*
X0024642Y0036057D01*
X0024380Y0035914D01*
X0024115Y0035777D01*
X0023847Y0035646D01*
X0023576Y0035523D01*
X0023301Y0035406D01*
X0023024Y0035295D01*
X0022744Y0035192D01*
X0022462Y0035095D01*
X0022178Y0035005D01*
X0021891Y0034923D01*
X0021603Y0034847D01*
X0021313Y0034778D01*
X0021021Y0034717D01*
X0020728Y0034662D01*
X0020433Y0034615D01*
X0020138Y0034575D01*
X0019841Y0034542D01*
X0019544Y0034517D01*
X0019246Y0034499D01*
X0018948Y0034488D01*
X0018650Y0034484D01*
X0018352Y0034488D01*
X0018054Y0034499D01*
X0017756Y0034517D01*
X0017459Y0034542D01*
X0017162Y0034575D01*
X0016867Y0034615D01*
X0016572Y0034662D01*
X0016279Y0034717D01*
X0015987Y0034778D01*
X0015697Y0034847D01*
X0015409Y0034923D01*
X0015122Y0035005D01*
X0014838Y0035095D01*
X0014556Y0035192D01*
X0014276Y0035295D01*
X0013999Y0035406D01*
X0013724Y0035523D01*
X0013453Y0035646D01*
X0013185Y0035777D01*
X0012920Y0035914D01*
X0012658Y0036057D01*
X0012400Y0036207D01*
X0012146Y0036363D01*
X0011896Y0036525D01*
X0011649Y0036693D01*
X0011407Y0036867D01*
X0011170Y0037047D01*
X0010936Y0037233D01*
X0010707Y0037424D01*
X0010484Y0037621D01*
X0010264Y0037823D01*
X0010050Y0038031D01*
X0009841Y0038244D01*
X0009638Y0038462D01*
X0009439Y0038685D01*
X0009247Y0038912D01*
X0009060Y0039144D01*
X0008878Y0039381D01*
X0008703Y0039622D01*
X0008533Y0039868D01*
X0008369Y0040117D01*
X0008212Y0040370D01*
X0008061Y0040627D01*
X0007916Y0040888D01*
X0007777Y0041152D01*
X0007645Y0041420D01*
X0007520Y0041690D01*
X0007401Y0041964D01*
X0007289Y0042240D01*
X0007184Y0042519D01*
X0007086Y0042801D01*
X0006994Y0043085D01*
X0006910Y0043371D01*
X0006833Y0043659D01*
X0006762Y0043949D01*
X0006699Y0044240D01*
X0006643Y0044533D01*
X0006594Y0044827D01*
X0006552Y0045123D01*
X0006518Y0045419D01*
X0006490Y0045716D01*
X0006470Y0046013D01*
X0006458Y0046311D01*
X0006452Y0046610D01*
X0006454Y0046908D01*
X0006463Y0047206D01*
X0006480Y0047504D01*
X0006503Y0047801D01*
X0006534Y0048098D01*
X0006573Y0048393D01*
X0006618Y0048688D01*
X0006671Y0048982D01*
X0006731Y0049274D01*
X0006797Y0049565D01*
X0006872Y0049853D01*
X0006953Y0050140D01*
X0007041Y0050425D01*
X0007136Y0050708D01*
X0007237Y0050988D01*
X0007346Y0051266D01*
X0007462Y0051541D01*
X0007584Y0051813D01*
X0007713Y0052082D01*
X0007848Y0052348D01*
X0007990Y0052610D01*
X0008138Y0052869D01*
X0008292Y0053124D01*
X0008453Y0053376D01*
X0008619Y0053623D01*
X0008792Y0053866D01*
X0008971Y0054105D01*
X0009155Y0054340D01*
X0009345Y0054569D01*
X0009541Y0054795D01*
X0009742Y0055015D01*
X0009948Y0055230D01*
X0010160Y0055440D01*
X0010376Y0055645D01*
X0010598Y0055845D01*
X0010825Y0056039D01*
X0011056Y0056228D01*
X0011291Y0056410D01*
X0011348Y0056335D01*
X0011114Y0056154D01*
X0010885Y0055967D01*
X0010660Y0055774D01*
X0010440Y0055576D01*
X0010225Y0055373D01*
X0010015Y0055164D01*
X0009810Y0054950D01*
X0009611Y0054732D01*
X0009417Y0054508D01*
X0009228Y0054280D01*
X0009045Y0054048D01*
X0008868Y0053811D01*
X0008697Y0053569D01*
X0008531Y0053324D01*
X0008372Y0053075D01*
X0008219Y0052821D01*
X0008072Y0052565D01*
X0007931Y0052304D01*
X0007797Y0052040D01*
X0007669Y0051773D01*
X0007548Y0051503D01*
X0007433Y0051231D01*
X0007325Y0050955D01*
X0007224Y0050677D01*
X0007130Y0050396D01*
X0007043Y0050114D01*
X0006962Y0049829D01*
X0006889Y0049542D01*
X0006822Y0049254D01*
X0006763Y0048964D01*
X0006711Y0048672D01*
X0006666Y0048380D01*
X0006628Y0048086D01*
X0006597Y0047792D01*
X0006573Y0047497D01*
X0006557Y0047202D01*
X0006548Y0046906D01*
X0006546Y0046610D01*
X0006552Y0046314D01*
X0006564Y0046018D01*
X0006584Y0045723D01*
X0006611Y0045428D01*
X0006645Y0045134D01*
X0006687Y0044841D01*
X0006735Y0044549D01*
X0006791Y0044259D01*
X0006854Y0043970D01*
X0006924Y0043682D01*
X0007001Y0043396D01*
X0007084Y0043112D01*
X0007175Y0042831D01*
X0007273Y0042551D01*
X0007377Y0042274D01*
X0007488Y0042000D01*
X0007606Y0041729D01*
X0007730Y0041460D01*
X0007861Y0041195D01*
X0007999Y0040933D01*
X0008142Y0040674D01*
X0008292Y0040419D01*
X0008449Y0040167D01*
X0008611Y0039920D01*
X0008779Y0039677D01*
X0008954Y0039437D01*
X0009134Y0039202D01*
X0009319Y0038972D01*
X0009511Y0038746D01*
X0009707Y0038525D01*
X0009909Y0038309D01*
X0010117Y0038098D01*
X0010329Y0037892D01*
X0010547Y0037691D01*
X0010769Y0037495D01*
X0010996Y0037305D01*
X0011227Y0037121D01*
X0011463Y0036943D01*
X0011703Y0036770D01*
X0011948Y0036603D01*
X0012196Y0036442D01*
X0012449Y0036287D01*
X0012705Y0036139D01*
X0012964Y0035997D01*
X0013227Y0035861D01*
X0013493Y0035731D01*
X0013762Y0035609D01*
X0014035Y0035492D01*
X0014310Y0035383D01*
X0014587Y0035280D01*
X0014867Y0035184D01*
X0015149Y0035095D01*
X0015434Y0035013D01*
X0015720Y0034938D01*
X0016008Y0034870D01*
X0016297Y0034809D01*
X0016588Y0034755D01*
X0016881Y0034708D01*
X0017174Y0034668D01*
X0017468Y0034636D01*
X0017763Y0034611D01*
X0018058Y0034592D01*
X0018354Y0034582D01*
X0018650Y0034578D01*
X0018946Y0034582D01*
X0019242Y0034592D01*
X0019537Y0034611D01*
X0019832Y0034636D01*
X0020126Y0034668D01*
X0020419Y0034708D01*
X0020712Y0034755D01*
X0021003Y0034809D01*
X0021292Y0034870D01*
X0021580Y0034938D01*
X0021866Y0035013D01*
X0022151Y0035095D01*
X0022433Y0035184D01*
X0022713Y0035280D01*
X0022990Y0035383D01*
X0023265Y0035492D01*
X0023538Y0035609D01*
X0023807Y0035731D01*
X0024073Y0035861D01*
X0024336Y0035997D01*
X0024595Y0036139D01*
X0024851Y0036287D01*
X0025104Y0036442D01*
X0025352Y0036603D01*
X0025597Y0036770D01*
X0025837Y0036943D01*
X0026073Y0037121D01*
X0026304Y0037305D01*
X0026531Y0037495D01*
X0026753Y0037691D01*
X0026971Y0037892D01*
X0027183Y0038098D01*
X0027391Y0038309D01*
X0027593Y0038525D01*
X0027789Y0038746D01*
X0027981Y0038972D01*
X0028166Y0039202D01*
X0028346Y0039437D01*
X0028521Y0039677D01*
X0028689Y0039920D01*
X0028851Y0040167D01*
X0029008Y0040419D01*
X0029158Y0040674D01*
X0029301Y0040933D01*
X0029439Y0041195D01*
X0029570Y0041460D01*
X0029694Y0041729D01*
X0029812Y0042000D01*
X0029923Y0042274D01*
X0030027Y0042551D01*
X0030125Y0042831D01*
X0030216Y0043112D01*
X0030299Y0043396D01*
X0030376Y0043682D01*
X0030446Y0043970D01*
X0030509Y0044259D01*
X0030565Y0044549D01*
X0030613Y0044841D01*
X0030655Y0045134D01*
X0030689Y0045428D01*
X0030716Y0045723D01*
X0030736Y0046018D01*
X0030748Y0046314D01*
X0030754Y0046610D01*
X0030752Y0046906D01*
X0030743Y0047202D01*
X0030727Y0047497D01*
X0030703Y0047792D01*
X0030672Y0048086D01*
X0030634Y0048380D01*
X0030589Y0048672D01*
X0030537Y0048964D01*
X0030478Y0049254D01*
X0030411Y0049542D01*
X0030338Y0049829D01*
X0030257Y0050114D01*
X0030170Y0050396D01*
X0030076Y0050677D01*
X0029975Y0050955D01*
X0029867Y0051231D01*
X0029752Y0051503D01*
X0029631Y0051773D01*
X0029503Y0052040D01*
X0029369Y0052304D01*
X0029228Y0052565D01*
X0029081Y0052821D01*
X0028928Y0053075D01*
X0028769Y0053324D01*
X0028603Y0053569D01*
X0028432Y0053811D01*
X0028255Y0054048D01*
X0028072Y0054280D01*
X0027883Y0054508D01*
X0027689Y0054732D01*
X0027490Y0054950D01*
X0027285Y0055164D01*
X0027075Y0055373D01*
X0026860Y0055576D01*
X0026640Y0055774D01*
X0026415Y0055967D01*
X0026186Y0056154D01*
X0025952Y0056335D01*
X0010684Y0083192D02*
X0011224Y0082472D01*
X0011223Y0082473D02*
X0010990Y0082292D01*
X0010762Y0082106D01*
X0010538Y0081914D01*
X0010319Y0081717D01*
X0010105Y0081515D01*
X0009896Y0081307D01*
X0009693Y0081094D01*
X0009494Y0080877D01*
X0009301Y0080654D01*
X0009113Y0080427D01*
X0008931Y0080196D01*
X0008754Y0079960D01*
X0008584Y0079719D01*
X0008419Y0079475D01*
X0008261Y0079227D01*
X0008108Y0078975D01*
X0007962Y0078719D01*
X0007822Y0078460D01*
X0007688Y0078197D01*
X0007561Y0077932D01*
X0007440Y0077663D01*
X0007326Y0077391D01*
X0007219Y0077117D01*
X0007118Y0076840D01*
X0007024Y0076561D01*
X0006937Y0076279D01*
X0006857Y0075996D01*
X0006784Y0075710D01*
X0006718Y0075423D01*
X0006659Y0075134D01*
X0006607Y0074844D01*
X0006562Y0074553D01*
X0006524Y0074261D01*
X0006494Y0073968D01*
X0006470Y0073674D01*
X0006454Y0073380D01*
X0006445Y0073086D01*
X0006443Y0072791D01*
X0006449Y0072496D01*
X0006461Y0072202D01*
X0006481Y0071908D01*
X0006508Y0071615D01*
X0006542Y0071322D01*
X0006583Y0071030D01*
X0006632Y0070740D01*
X0006687Y0070450D01*
X0006749Y0070163D01*
X0006819Y0069876D01*
X0006896Y0069592D01*
X0006979Y0069309D01*
X0007069Y0069029D01*
X0007166Y0068751D01*
X0007270Y0068475D01*
X0007381Y0068202D01*
X0007498Y0067932D01*
X0007622Y0067664D01*
X0007752Y0067400D01*
X0007889Y0067139D01*
X0008032Y0066882D01*
X0008182Y0066628D01*
X0008337Y0066377D01*
X0008499Y0066131D01*
X0008666Y0065889D01*
X0008840Y0065651D01*
X0009019Y0065417D01*
X0009204Y0065187D01*
X0009394Y0064963D01*
X0009590Y0064742D01*
X0009791Y0064527D01*
X0009998Y0064317D01*
X0010209Y0064112D01*
X0010426Y0063912D01*
X0010647Y0063717D01*
X0010873Y0063528D01*
X0011103Y0063345D01*
X0011338Y0063167D01*
X0011578Y0062995D01*
X0011821Y0062829D01*
X0012068Y0062669D01*
X0012319Y0062515D01*
X0012574Y0062367D01*
X0012833Y0062225D01*
X0013094Y0062090D01*
X0013359Y0061961D01*
X0013627Y0061839D01*
X0013898Y0061723D01*
X0014172Y0061614D01*
X0014448Y0061512D01*
X0014727Y0061417D01*
X0015008Y0061328D01*
X0015291Y0061246D01*
X0015576Y0061171D01*
X0015863Y0061104D01*
X0016151Y0061043D01*
X0016441Y0060989D01*
X0016732Y0060942D01*
X0017024Y0060903D01*
X0017316Y0060871D01*
X0017610Y0060845D01*
X0017904Y0060827D01*
X0018198Y0060817D01*
X0018493Y0060813D01*
X0018788Y0060817D01*
X0019082Y0060827D01*
X0019376Y0060845D01*
X0019670Y0060871D01*
X0019962Y0060903D01*
X0020254Y0060942D01*
X0020545Y0060989D01*
X0020835Y0061043D01*
X0021123Y0061104D01*
X0021410Y0061171D01*
X0021695Y0061246D01*
X0021978Y0061328D01*
X0022259Y0061417D01*
X0022538Y0061512D01*
X0022814Y0061614D01*
X0023088Y0061723D01*
X0023359Y0061839D01*
X0023627Y0061961D01*
X0023892Y0062090D01*
X0024153Y0062225D01*
X0024412Y0062367D01*
X0024667Y0062515D01*
X0024918Y0062669D01*
X0025165Y0062829D01*
X0025408Y0062995D01*
X0025648Y0063167D01*
X0025883Y0063345D01*
X0026113Y0063528D01*
X0026339Y0063717D01*
X0026560Y0063912D01*
X0026777Y0064112D01*
X0026988Y0064317D01*
X0027195Y0064527D01*
X0027396Y0064742D01*
X0027592Y0064963D01*
X0027782Y0065187D01*
X0027967Y0065417D01*
X0028146Y0065651D01*
X0028320Y0065889D01*
X0028487Y0066131D01*
X0028649Y0066377D01*
X0028804Y0066628D01*
X0028954Y0066882D01*
X0029097Y0067139D01*
X0029234Y0067400D01*
X0029364Y0067664D01*
X0029488Y0067932D01*
X0029605Y0068202D01*
X0029716Y0068475D01*
X0029820Y0068751D01*
X0029917Y0069029D01*
X0030007Y0069309D01*
X0030090Y0069592D01*
X0030167Y0069876D01*
X0030237Y0070163D01*
X0030299Y0070450D01*
X0030354Y0070740D01*
X0030403Y0071030D01*
X0030444Y0071322D01*
X0030478Y0071615D01*
X0030505Y0071908D01*
X0030525Y0072202D01*
X0030537Y0072496D01*
X0030543Y0072791D01*
X0030541Y0073086D01*
X0030532Y0073380D01*
X0030516Y0073674D01*
X0030492Y0073968D01*
X0030462Y0074261D01*
X0030424Y0074553D01*
X0030379Y0074844D01*
X0030327Y0075134D01*
X0030268Y0075423D01*
X0030202Y0075710D01*
X0030129Y0075996D01*
X0030049Y0076279D01*
X0029962Y0076561D01*
X0029868Y0076840D01*
X0029767Y0077117D01*
X0029660Y0077391D01*
X0029546Y0077663D01*
X0029425Y0077932D01*
X0029298Y0078197D01*
X0029164Y0078460D01*
X0029024Y0078719D01*
X0028878Y0078975D01*
X0028725Y0079227D01*
X0028567Y0079475D01*
X0028402Y0079719D01*
X0028232Y0079960D01*
X0028055Y0080196D01*
X0027873Y0080427D01*
X0027685Y0080654D01*
X0027492Y0080877D01*
X0027293Y0081094D01*
X0027090Y0081307D01*
X0026881Y0081515D01*
X0026667Y0081717D01*
X0026448Y0081914D01*
X0026224Y0082106D01*
X0025996Y0082292D01*
X0025763Y0082473D01*
X0026302Y0083192D01*
X0026303Y0083193D01*
X0026553Y0082999D01*
X0026799Y0082799D01*
X0027039Y0082593D01*
X0027274Y0082381D01*
X0027504Y0082163D01*
X0027729Y0081940D01*
X0027948Y0081712D01*
X0028162Y0081478D01*
X0028370Y0081239D01*
X0028572Y0080995D01*
X0028767Y0080746D01*
X0028957Y0080492D01*
X0029140Y0080234D01*
X0029317Y0079972D01*
X0029488Y0079705D01*
X0029652Y0079434D01*
X0029809Y0079159D01*
X0029960Y0078881D01*
X0030104Y0078598D01*
X0030240Y0078313D01*
X0030370Y0078024D01*
X0030493Y0077732D01*
X0030608Y0077437D01*
X0030716Y0077140D01*
X0030817Y0076839D01*
X0030911Y0076537D01*
X0030997Y0076232D01*
X0031076Y0075925D01*
X0031147Y0075617D01*
X0031210Y0075307D01*
X0031266Y0074995D01*
X0031315Y0074682D01*
X0031355Y0074368D01*
X0031388Y0074053D01*
X0031413Y0073737D01*
X0031431Y0073421D01*
X0031441Y0073105D01*
X0031443Y0072788D01*
X0031437Y0072471D01*
X0031424Y0072155D01*
X0031402Y0071839D01*
X0031374Y0071524D01*
X0031337Y0071209D01*
X0031293Y0070896D01*
X0031241Y0070583D01*
X0031181Y0070272D01*
X0031114Y0069963D01*
X0031039Y0069655D01*
X0030957Y0069349D01*
X0030868Y0069046D01*
X0030771Y0068744D01*
X0030666Y0068445D01*
X0030554Y0068149D01*
X0030436Y0067855D01*
X0030310Y0067565D01*
X0030177Y0067278D01*
X0030036Y0066993D01*
X0029889Y0066713D01*
X0029736Y0066436D01*
X0029575Y0066163D01*
X0029408Y0065894D01*
X0029234Y0065629D01*
X0029054Y0065369D01*
X0028868Y0065113D01*
X0028675Y0064862D01*
X0028477Y0064615D01*
X0028272Y0064373D01*
X0028062Y0064137D01*
X0027845Y0063905D01*
X0027623Y0063680D01*
X0027396Y0063459D01*
X0027164Y0063244D01*
X0026926Y0063035D01*
X0026683Y0062832D01*
X0026435Y0062634D01*
X0026183Y0062443D01*
X0025926Y0062258D01*
X0025664Y0062080D01*
X0025398Y0061908D01*
X0025129Y0061742D01*
X0024855Y0061583D01*
X0024577Y0061431D01*
X0024296Y0061286D01*
X0024011Y0061147D01*
X0023723Y0061016D01*
X0023431Y0060892D01*
X0023137Y0060774D01*
X0022840Y0060664D01*
X0022541Y0060562D01*
X0022239Y0060467D01*
X0021935Y0060379D01*
X0021628Y0060298D01*
X0021320Y0060225D01*
X0021010Y0060160D01*
X0020699Y0060102D01*
X0020386Y0060052D01*
X0020072Y0060010D01*
X0019758Y0059975D01*
X0019442Y0059948D01*
X0019126Y0059928D01*
X0018810Y0059917D01*
X0018493Y0059913D01*
X0018176Y0059917D01*
X0017860Y0059928D01*
X0017544Y0059948D01*
X0017228Y0059975D01*
X0016914Y0060010D01*
X0016600Y0060052D01*
X0016287Y0060102D01*
X0015976Y0060160D01*
X0015666Y0060225D01*
X0015358Y0060298D01*
X0015051Y0060379D01*
X0014747Y0060467D01*
X0014445Y0060562D01*
X0014146Y0060664D01*
X0013849Y0060774D01*
X0013555Y0060892D01*
X0013263Y0061016D01*
X0012975Y0061147D01*
X0012690Y0061286D01*
X0012409Y0061431D01*
X0012131Y0061583D01*
X0011857Y0061742D01*
X0011588Y0061908D01*
X0011322Y0062080D01*
X0011060Y0062258D01*
X0010803Y0062443D01*
X0010551Y0062634D01*
X0010303Y0062832D01*
X0010060Y0063035D01*
X0009822Y0063244D01*
X0009590Y0063459D01*
X0009363Y0063680D01*
X0009141Y0063905D01*
X0008924Y0064137D01*
X0008714Y0064373D01*
X0008509Y0064615D01*
X0008311Y0064862D01*
X0008118Y0065113D01*
X0007932Y0065369D01*
X0007752Y0065629D01*
X0007578Y0065894D01*
X0007411Y0066163D01*
X0007250Y0066436D01*
X0007097Y0066713D01*
X0006950Y0066993D01*
X0006809Y0067278D01*
X0006676Y0067565D01*
X0006550Y0067855D01*
X0006432Y0068149D01*
X0006320Y0068445D01*
X0006215Y0068744D01*
X0006118Y0069046D01*
X0006029Y0069349D01*
X0005947Y0069655D01*
X0005872Y0069963D01*
X0005805Y0070272D01*
X0005745Y0070583D01*
X0005693Y0070896D01*
X0005649Y0071209D01*
X0005612Y0071524D01*
X0005584Y0071839D01*
X0005562Y0072155D01*
X0005549Y0072471D01*
X0005543Y0072788D01*
X0005545Y0073105D01*
X0005555Y0073421D01*
X0005573Y0073737D01*
X0005598Y0074053D01*
X0005631Y0074368D01*
X0005671Y0074682D01*
X0005720Y0074995D01*
X0005776Y0075307D01*
X0005839Y0075617D01*
X0005910Y0075925D01*
X0005989Y0076232D01*
X0006075Y0076537D01*
X0006169Y0076839D01*
X0006270Y0077140D01*
X0006378Y0077437D01*
X0006493Y0077732D01*
X0006616Y0078024D01*
X0006746Y0078313D01*
X0006882Y0078598D01*
X0007026Y0078881D01*
X0007177Y0079159D01*
X0007334Y0079434D01*
X0007498Y0079705D01*
X0007669Y0079972D01*
X0007846Y0080234D01*
X0008029Y0080492D01*
X0008219Y0080746D01*
X0008414Y0080995D01*
X0008616Y0081239D01*
X0008824Y0081478D01*
X0009038Y0081712D01*
X0009257Y0081940D01*
X0009482Y0082163D01*
X0009712Y0082381D01*
X0009947Y0082593D01*
X0010187Y0082799D01*
X0010433Y0082999D01*
X0010683Y0083193D01*
X0010739Y0083118D01*
X0010491Y0082925D01*
X0010247Y0082726D01*
X0010009Y0082522D01*
X0009775Y0082312D01*
X0009547Y0082096D01*
X0009324Y0081874D01*
X0009106Y0081647D01*
X0008894Y0081415D01*
X0008688Y0081178D01*
X0008487Y0080936D01*
X0008293Y0080688D01*
X0008105Y0080437D01*
X0007923Y0080180D01*
X0007747Y0079920D01*
X0007578Y0079655D01*
X0007415Y0079386D01*
X0007259Y0079113D01*
X0007109Y0078837D01*
X0006967Y0078557D01*
X0006831Y0078273D01*
X0006702Y0077986D01*
X0006580Y0077696D01*
X0006466Y0077404D01*
X0006358Y0077108D01*
X0006258Y0076810D01*
X0006165Y0076510D01*
X0006080Y0076207D01*
X0006002Y0075903D01*
X0005931Y0075597D01*
X0005868Y0075289D01*
X0005812Y0074979D01*
X0005764Y0074669D01*
X0005724Y0074357D01*
X0005691Y0074044D01*
X0005666Y0073731D01*
X0005649Y0073417D01*
X0005639Y0073103D01*
X0005637Y0072788D01*
X0005643Y0072474D01*
X0005656Y0072160D01*
X0005677Y0071846D01*
X0005706Y0071533D01*
X0005742Y0071221D01*
X0005786Y0070910D01*
X0005838Y0070600D01*
X0005897Y0070291D01*
X0005964Y0069984D01*
X0006038Y0069678D01*
X0006119Y0069375D01*
X0006208Y0069073D01*
X0006305Y0068774D01*
X0006408Y0068477D01*
X0006519Y0068183D01*
X0006637Y0067892D01*
X0006762Y0067603D01*
X0006894Y0067318D01*
X0007033Y0067036D01*
X0007179Y0066758D01*
X0007332Y0066483D01*
X0007491Y0066212D01*
X0007657Y0065945D01*
X0007830Y0065682D01*
X0008008Y0065423D01*
X0008193Y0065169D01*
X0008385Y0064920D01*
X0008582Y0064675D01*
X0008785Y0064435D01*
X0008994Y0064200D01*
X0009209Y0063970D01*
X0009429Y0063746D01*
X0009654Y0063527D01*
X0009885Y0063314D01*
X0010121Y0063106D01*
X0010363Y0062904D01*
X0010608Y0062709D01*
X0010859Y0062519D01*
X0011114Y0062335D01*
X0011374Y0062158D01*
X0011638Y0061987D01*
X0011906Y0061823D01*
X0012178Y0061665D01*
X0012453Y0061514D01*
X0012733Y0061370D01*
X0013015Y0061232D01*
X0013301Y0061102D01*
X0013590Y0060978D01*
X0013883Y0060862D01*
X0014177Y0060753D01*
X0014475Y0060651D01*
X0014774Y0060557D01*
X0015077Y0060469D01*
X0015381Y0060389D01*
X0015686Y0060317D01*
X0015994Y0060252D01*
X0016303Y0060195D01*
X0016614Y0060145D01*
X0016925Y0060103D01*
X0017238Y0060068D01*
X0017551Y0060042D01*
X0017865Y0060022D01*
X0018179Y0060011D01*
X0018493Y0060007D01*
X0018807Y0060011D01*
X0019121Y0060022D01*
X0019435Y0060042D01*
X0019748Y0060068D01*
X0020061Y0060103D01*
X0020372Y0060145D01*
X0020683Y0060195D01*
X0020992Y0060252D01*
X0021300Y0060317D01*
X0021605Y0060389D01*
X0021909Y0060469D01*
X0022212Y0060557D01*
X0022511Y0060651D01*
X0022809Y0060753D01*
X0023103Y0060862D01*
X0023396Y0060978D01*
X0023685Y0061102D01*
X0023971Y0061232D01*
X0024253Y0061370D01*
X0024533Y0061514D01*
X0024808Y0061665D01*
X0025080Y0061823D01*
X0025348Y0061987D01*
X0025612Y0062158D01*
X0025872Y0062335D01*
X0026127Y0062519D01*
X0026378Y0062709D01*
X0026623Y0062904D01*
X0026865Y0063106D01*
X0027101Y0063314D01*
X0027332Y0063527D01*
X0027557Y0063746D01*
X0027777Y0063970D01*
X0027992Y0064200D01*
X0028201Y0064435D01*
X0028404Y0064675D01*
X0028601Y0064920D01*
X0028793Y0065169D01*
X0028978Y0065423D01*
X0029156Y0065682D01*
X0029329Y0065945D01*
X0029495Y0066212D01*
X0029654Y0066483D01*
X0029807Y0066758D01*
X0029953Y0067036D01*
X0030092Y0067318D01*
X0030224Y0067603D01*
X0030349Y0067892D01*
X0030467Y0068183D01*
X0030578Y0068477D01*
X0030681Y0068774D01*
X0030778Y0069073D01*
X0030867Y0069375D01*
X0030948Y0069678D01*
X0031022Y0069984D01*
X0031089Y0070291D01*
X0031148Y0070600D01*
X0031200Y0070910D01*
X0031244Y0071221D01*
X0031280Y0071533D01*
X0031309Y0071846D01*
X0031330Y0072160D01*
X0031343Y0072474D01*
X0031349Y0072788D01*
X0031347Y0073103D01*
X0031337Y0073417D01*
X0031320Y0073731D01*
X0031295Y0074044D01*
X0031262Y0074357D01*
X0031222Y0074669D01*
X0031174Y0074979D01*
X0031118Y0075289D01*
X0031055Y0075597D01*
X0030984Y0075903D01*
X0030906Y0076207D01*
X0030821Y0076510D01*
X0030728Y0076810D01*
X0030628Y0077108D01*
X0030520Y0077404D01*
X0030406Y0077696D01*
X0030284Y0077986D01*
X0030155Y0078273D01*
X0030019Y0078557D01*
X0029877Y0078837D01*
X0029727Y0079113D01*
X0029571Y0079386D01*
X0029408Y0079655D01*
X0029239Y0079920D01*
X0029063Y0080180D01*
X0028881Y0080437D01*
X0028693Y0080688D01*
X0028499Y0080936D01*
X0028298Y0081178D01*
X0028092Y0081415D01*
X0027880Y0081647D01*
X0027662Y0081874D01*
X0027439Y0082096D01*
X0027211Y0082312D01*
X0026977Y0082522D01*
X0026739Y0082726D01*
X0026495Y0082925D01*
X0026247Y0083118D01*
X0026190Y0083043D01*
X0026437Y0082851D01*
X0026679Y0082654D01*
X0026916Y0082451D01*
X0027147Y0082242D01*
X0027374Y0082028D01*
X0027596Y0081808D01*
X0027812Y0081583D01*
X0028022Y0081352D01*
X0028227Y0081117D01*
X0028426Y0080876D01*
X0028619Y0080631D01*
X0028805Y0080381D01*
X0028986Y0080127D01*
X0029161Y0079868D01*
X0029329Y0079605D01*
X0029490Y0079338D01*
X0029645Y0079067D01*
X0029794Y0078793D01*
X0029935Y0078515D01*
X0030070Y0078233D01*
X0030198Y0077949D01*
X0030319Y0077661D01*
X0030433Y0077370D01*
X0030539Y0077077D01*
X0030639Y0076781D01*
X0030731Y0076483D01*
X0030816Y0076183D01*
X0030893Y0075880D01*
X0030963Y0075576D01*
X0031026Y0075271D01*
X0031081Y0074964D01*
X0031129Y0074655D01*
X0031169Y0074346D01*
X0031201Y0074035D01*
X0031226Y0073724D01*
X0031243Y0073413D01*
X0031253Y0073101D01*
X0031255Y0072789D01*
X0031249Y0072477D01*
X0031236Y0072165D01*
X0031215Y0071854D01*
X0031187Y0071543D01*
X0031150Y0071233D01*
X0031107Y0070924D01*
X0031056Y0070616D01*
X0030997Y0070309D01*
X0030931Y0070005D01*
X0030857Y0069701D01*
X0030776Y0069400D01*
X0030688Y0069101D01*
X0030592Y0068804D01*
X0030489Y0068509D01*
X0030379Y0068217D01*
X0030262Y0067928D01*
X0030138Y0067641D01*
X0030007Y0067358D01*
X0029869Y0067078D01*
X0029724Y0066802D01*
X0029572Y0066529D01*
X0029414Y0066260D01*
X0029249Y0065995D01*
X0029078Y0065734D01*
X0028901Y0065478D01*
X0028717Y0065225D01*
X0028527Y0064978D01*
X0028332Y0064735D01*
X0028130Y0064496D01*
X0027922Y0064263D01*
X0027709Y0064035D01*
X0027491Y0063813D01*
X0027267Y0063595D01*
X0027038Y0063384D01*
X0026803Y0063178D01*
X0026564Y0062977D01*
X0026320Y0062783D01*
X0026071Y0062595D01*
X0025818Y0062412D01*
X0025560Y0062236D01*
X0025298Y0062067D01*
X0025032Y0061904D01*
X0024762Y0061747D01*
X0024488Y0061597D01*
X0024211Y0061454D01*
X0023931Y0061317D01*
X0023647Y0061188D01*
X0023360Y0061065D01*
X0023070Y0060950D01*
X0022777Y0060842D01*
X0022482Y0060740D01*
X0022184Y0060646D01*
X0021884Y0060560D01*
X0021583Y0060481D01*
X0021279Y0060409D01*
X0020974Y0060344D01*
X0020667Y0060287D01*
X0020359Y0060238D01*
X0020049Y0060196D01*
X0019739Y0060162D01*
X0019428Y0060135D01*
X0019117Y0060116D01*
X0018805Y0060105D01*
X0018493Y0060101D01*
X0018181Y0060105D01*
X0017869Y0060116D01*
X0017558Y0060135D01*
X0017247Y0060162D01*
X0016937Y0060196D01*
X0016627Y0060238D01*
X0016319Y0060287D01*
X0016012Y0060344D01*
X0015707Y0060409D01*
X0015403Y0060481D01*
X0015102Y0060560D01*
X0014802Y0060646D01*
X0014504Y0060740D01*
X0014209Y0060842D01*
X0013916Y0060950D01*
X0013626Y0061065D01*
X0013339Y0061188D01*
X0013055Y0061317D01*
X0012775Y0061454D01*
X0012498Y0061597D01*
X0012224Y0061747D01*
X0011954Y0061904D01*
X0011688Y0062067D01*
X0011426Y0062236D01*
X0011168Y0062412D01*
X0010915Y0062595D01*
X0010666Y0062783D01*
X0010422Y0062977D01*
X0010183Y0063178D01*
X0009948Y0063384D01*
X0009719Y0063595D01*
X0009495Y0063813D01*
X0009277Y0064035D01*
X0009064Y0064263D01*
X0008856Y0064496D01*
X0008654Y0064735D01*
X0008459Y0064978D01*
X0008269Y0065225D01*
X0008085Y0065478D01*
X0007908Y0065734D01*
X0007737Y0065995D01*
X0007572Y0066260D01*
X0007414Y0066529D01*
X0007262Y0066802D01*
X0007117Y0067078D01*
X0006979Y0067358D01*
X0006848Y0067641D01*
X0006724Y0067928D01*
X0006607Y0068217D01*
X0006497Y0068509D01*
X0006394Y0068804D01*
X0006298Y0069101D01*
X0006210Y0069400D01*
X0006129Y0069701D01*
X0006055Y0070005D01*
X0005989Y0070309D01*
X0005930Y0070616D01*
X0005879Y0070924D01*
X0005836Y0071233D01*
X0005799Y0071543D01*
X0005771Y0071854D01*
X0005750Y0072165D01*
X0005737Y0072477D01*
X0005731Y0072789D01*
X0005733Y0073101D01*
X0005743Y0073413D01*
X0005760Y0073724D01*
X0005785Y0074035D01*
X0005817Y0074346D01*
X0005857Y0074655D01*
X0005905Y0074964D01*
X0005960Y0075271D01*
X0006023Y0075576D01*
X0006093Y0075880D01*
X0006170Y0076183D01*
X0006255Y0076483D01*
X0006347Y0076781D01*
X0006447Y0077077D01*
X0006553Y0077370D01*
X0006667Y0077661D01*
X0006788Y0077949D01*
X0006916Y0078233D01*
X0007051Y0078515D01*
X0007192Y0078793D01*
X0007341Y0079067D01*
X0007496Y0079338D01*
X0007657Y0079605D01*
X0007825Y0079868D01*
X0008000Y0080127D01*
X0008181Y0080381D01*
X0008367Y0080631D01*
X0008560Y0080876D01*
X0008759Y0081117D01*
X0008964Y0081352D01*
X0009174Y0081583D01*
X0009390Y0081808D01*
X0009612Y0082028D01*
X0009839Y0082242D01*
X0010070Y0082451D01*
X0010307Y0082654D01*
X0010549Y0082851D01*
X0010796Y0083043D01*
X0010852Y0082967D01*
X0010607Y0082777D01*
X0010367Y0082582D01*
X0010132Y0082380D01*
X0009902Y0082173D01*
X0009677Y0081960D01*
X0009457Y0081742D01*
X0009243Y0081518D01*
X0009034Y0081289D01*
X0008831Y0081056D01*
X0008633Y0080817D01*
X0008442Y0080574D01*
X0008256Y0080325D01*
X0008077Y0080073D01*
X0007904Y0079816D01*
X0007737Y0079555D01*
X0007576Y0079290D01*
X0007423Y0079021D01*
X0007275Y0078749D01*
X0007135Y0078473D01*
X0007001Y0078193D01*
X0006874Y0077911D01*
X0006754Y0077625D01*
X0006641Y0077337D01*
X0006535Y0077046D01*
X0006437Y0076752D01*
X0006345Y0076456D01*
X0006261Y0076158D01*
X0006184Y0075858D01*
X0006115Y0075556D01*
X0006052Y0075253D01*
X0005998Y0074948D01*
X0005950Y0074642D01*
X0005911Y0074334D01*
X0005879Y0074026D01*
X0005854Y0073718D01*
X0005837Y0073408D01*
X0005827Y0073099D01*
X0005825Y0072789D01*
X0005831Y0072479D01*
X0005844Y0072170D01*
X0005865Y0071861D01*
X0005893Y0071552D01*
X0005929Y0071245D01*
X0005972Y0070938D01*
X0006023Y0070632D01*
X0006081Y0070328D01*
X0006147Y0070025D01*
X0006220Y0069724D01*
X0006300Y0069425D01*
X0006388Y0069128D01*
X0006483Y0068833D01*
X0006585Y0068541D01*
X0006694Y0068251D01*
X0006811Y0067964D01*
X0006934Y0067680D01*
X0007064Y0067399D01*
X0007201Y0067121D01*
X0007345Y0066847D01*
X0007495Y0066576D01*
X0007652Y0066309D01*
X0007816Y0066046D01*
X0007986Y0065787D01*
X0008162Y0065532D01*
X0008344Y0065281D01*
X0008533Y0065036D01*
X0008727Y0064794D01*
X0008927Y0064558D01*
X0009133Y0064327D01*
X0009345Y0064100D01*
X0009562Y0063879D01*
X0009784Y0063664D01*
X0010011Y0063453D01*
X0010244Y0063249D01*
X0010482Y0063050D01*
X0010724Y0062857D01*
X0010971Y0062670D01*
X0011222Y0062489D01*
X0011478Y0062315D01*
X0011738Y0062146D01*
X0012002Y0061984D01*
X0012270Y0061829D01*
X0012542Y0061680D01*
X0012817Y0061538D01*
X0013096Y0061402D01*
X0013377Y0061274D01*
X0013662Y0061152D01*
X0013950Y0061038D01*
X0014241Y0060930D01*
X0014534Y0060830D01*
X0014829Y0060736D01*
X0015127Y0060650D01*
X0015426Y0060572D01*
X0015728Y0060501D01*
X0016031Y0060437D01*
X0016335Y0060380D01*
X0016641Y0060331D01*
X0016948Y0060290D01*
X0017256Y0060256D01*
X0017565Y0060229D01*
X0017874Y0060210D01*
X0018183Y0060199D01*
X0018493Y0060195D01*
X0018803Y0060199D01*
X0019112Y0060210D01*
X0019421Y0060229D01*
X0019730Y0060256D01*
X0020038Y0060290D01*
X0020345Y0060331D01*
X0020651Y0060380D01*
X0020955Y0060437D01*
X0021258Y0060501D01*
X0021560Y0060572D01*
X0021859Y0060650D01*
X0022157Y0060736D01*
X0022452Y0060830D01*
X0022745Y0060930D01*
X0023036Y0061038D01*
X0023324Y0061152D01*
X0023609Y0061274D01*
X0023890Y0061402D01*
X0024169Y0061538D01*
X0024444Y0061680D01*
X0024716Y0061829D01*
X0024984Y0061984D01*
X0025248Y0062146D01*
X0025508Y0062315D01*
X0025764Y0062489D01*
X0026015Y0062670D01*
X0026262Y0062857D01*
X0026504Y0063050D01*
X0026742Y0063249D01*
X0026975Y0063453D01*
X0027202Y0063664D01*
X0027424Y0063879D01*
X0027641Y0064100D01*
X0027853Y0064327D01*
X0028059Y0064558D01*
X0028259Y0064794D01*
X0028453Y0065036D01*
X0028642Y0065281D01*
X0028824Y0065532D01*
X0029000Y0065787D01*
X0029170Y0066046D01*
X0029334Y0066309D01*
X0029491Y0066576D01*
X0029641Y0066847D01*
X0029785Y0067121D01*
X0029922Y0067399D01*
X0030052Y0067680D01*
X0030175Y0067964D01*
X0030292Y0068251D01*
X0030401Y0068541D01*
X0030503Y0068833D01*
X0030598Y0069128D01*
X0030686Y0069425D01*
X0030766Y0069724D01*
X0030839Y0070025D01*
X0030905Y0070328D01*
X0030963Y0070632D01*
X0031014Y0070938D01*
X0031057Y0071245D01*
X0031093Y0071552D01*
X0031121Y0071861D01*
X0031142Y0072170D01*
X0031155Y0072479D01*
X0031161Y0072789D01*
X0031159Y0073099D01*
X0031149Y0073408D01*
X0031132Y0073718D01*
X0031107Y0074026D01*
X0031075Y0074334D01*
X0031036Y0074642D01*
X0030988Y0074948D01*
X0030934Y0075253D01*
X0030871Y0075556D01*
X0030802Y0075858D01*
X0030725Y0076158D01*
X0030641Y0076456D01*
X0030549Y0076752D01*
X0030451Y0077046D01*
X0030345Y0077337D01*
X0030232Y0077625D01*
X0030112Y0077911D01*
X0029985Y0078193D01*
X0029851Y0078473D01*
X0029711Y0078749D01*
X0029563Y0079021D01*
X0029410Y0079290D01*
X0029249Y0079555D01*
X0029082Y0079816D01*
X0028909Y0080073D01*
X0028730Y0080325D01*
X0028544Y0080574D01*
X0028353Y0080817D01*
X0028155Y0081056D01*
X0027952Y0081289D01*
X0027743Y0081518D01*
X0027529Y0081742D01*
X0027309Y0081960D01*
X0027084Y0082173D01*
X0026854Y0082380D01*
X0026619Y0082582D01*
X0026379Y0082777D01*
X0026134Y0082967D01*
X0026077Y0082892D01*
X0026320Y0082704D01*
X0026559Y0082509D01*
X0026792Y0082309D01*
X0027020Y0082104D01*
X0027244Y0081892D01*
X0027462Y0081676D01*
X0027675Y0081454D01*
X0027882Y0081227D01*
X0028084Y0080995D01*
X0028280Y0080758D01*
X0028470Y0080516D01*
X0028654Y0080270D01*
X0028832Y0080019D01*
X0029004Y0079764D01*
X0029169Y0079505D01*
X0029329Y0079242D01*
X0029481Y0078975D01*
X0029628Y0078705D01*
X0029767Y0078431D01*
X0029900Y0078154D01*
X0030026Y0077873D01*
X0030145Y0077590D01*
X0030257Y0077303D01*
X0030362Y0077014D01*
X0030460Y0076723D01*
X0030551Y0076429D01*
X0030634Y0076133D01*
X0030711Y0075836D01*
X0030780Y0075536D01*
X0030841Y0075235D01*
X0030896Y0074932D01*
X0030942Y0074628D01*
X0030982Y0074323D01*
X0031014Y0074018D01*
X0031038Y0073711D01*
X0031055Y0073404D01*
X0031065Y0073097D01*
X0031067Y0072789D01*
X0031061Y0072482D01*
X0031048Y0072175D01*
X0031028Y0071868D01*
X0030999Y0071562D01*
X0030964Y0071256D01*
X0030921Y0070952D01*
X0030870Y0070649D01*
X0030813Y0070347D01*
X0030747Y0070046D01*
X0030675Y0069747D01*
X0030595Y0069451D01*
X0030508Y0069156D01*
X0030414Y0068863D01*
X0030312Y0068573D01*
X0030204Y0068285D01*
X0030089Y0068000D01*
X0029966Y0067718D01*
X0029837Y0067439D01*
X0029701Y0067163D01*
X0029558Y0066891D01*
X0029409Y0066622D01*
X0029253Y0066357D01*
X0029091Y0066096D01*
X0028922Y0065839D01*
X0028747Y0065586D01*
X0028566Y0065338D01*
X0028379Y0065094D01*
X0028186Y0064854D01*
X0027988Y0064620D01*
X0027783Y0064390D01*
X0027573Y0064165D01*
X0027358Y0063946D01*
X0027137Y0063732D01*
X0026912Y0063523D01*
X0026681Y0063320D01*
X0026445Y0063123D01*
X0026204Y0062931D01*
X0025959Y0062746D01*
X0025710Y0062566D01*
X0025456Y0062393D01*
X0025198Y0062226D01*
X0024936Y0062065D01*
X0024670Y0061911D01*
X0024400Y0061763D01*
X0024127Y0061622D01*
X0023850Y0061487D01*
X0023571Y0061360D01*
X0023288Y0061239D01*
X0023002Y0061125D01*
X0022714Y0061019D01*
X0022423Y0060919D01*
X0022130Y0060826D01*
X0021834Y0060741D01*
X0021537Y0060663D01*
X0021238Y0060592D01*
X0020937Y0060529D01*
X0020635Y0060473D01*
X0020331Y0060424D01*
X0020026Y0060383D01*
X0019721Y0060349D01*
X0019415Y0060323D01*
X0019108Y0060304D01*
X0018800Y0060293D01*
X0018493Y0060289D01*
X0018186Y0060293D01*
X0017878Y0060304D01*
X0017571Y0060323D01*
X0017265Y0060349D01*
X0016960Y0060383D01*
X0016655Y0060424D01*
X0016351Y0060473D01*
X0016049Y0060529D01*
X0015748Y0060592D01*
X0015449Y0060663D01*
X0015152Y0060741D01*
X0014856Y0060826D01*
X0014563Y0060919D01*
X0014272Y0061019D01*
X0013984Y0061125D01*
X0013698Y0061239D01*
X0013415Y0061360D01*
X0013136Y0061487D01*
X0012859Y0061622D01*
X0012586Y0061763D01*
X0012316Y0061911D01*
X0012050Y0062065D01*
X0011788Y0062226D01*
X0011530Y0062393D01*
X0011276Y0062566D01*
X0011027Y0062746D01*
X0010782Y0062931D01*
X0010541Y0063123D01*
X0010305Y0063320D01*
X0010074Y0063523D01*
X0009849Y0063732D01*
X0009628Y0063946D01*
X0009413Y0064165D01*
X0009203Y0064390D01*
X0008998Y0064620D01*
X0008800Y0064854D01*
X0008607Y0065094D01*
X0008420Y0065338D01*
X0008239Y0065586D01*
X0008064Y0065839D01*
X0007895Y0066096D01*
X0007733Y0066357D01*
X0007577Y0066622D01*
X0007428Y0066891D01*
X0007285Y0067163D01*
X0007149Y0067439D01*
X0007020Y0067718D01*
X0006897Y0068000D01*
X0006782Y0068285D01*
X0006674Y0068573D01*
X0006572Y0068863D01*
X0006478Y0069156D01*
X0006391Y0069451D01*
X0006311Y0069747D01*
X0006239Y0070046D01*
X0006173Y0070347D01*
X0006116Y0070649D01*
X0006065Y0070952D01*
X0006022Y0071256D01*
X0005987Y0071562D01*
X0005958Y0071868D01*
X0005938Y0072175D01*
X0005925Y0072482D01*
X0005919Y0072789D01*
X0005921Y0073097D01*
X0005931Y0073404D01*
X0005948Y0073711D01*
X0005972Y0074018D01*
X0006004Y0074323D01*
X0006044Y0074628D01*
X0006090Y0074932D01*
X0006145Y0075235D01*
X0006206Y0075536D01*
X0006275Y0075836D01*
X0006352Y0076133D01*
X0006435Y0076429D01*
X0006526Y0076723D01*
X0006624Y0077014D01*
X0006729Y0077303D01*
X0006841Y0077590D01*
X0006960Y0077873D01*
X0007086Y0078154D01*
X0007219Y0078431D01*
X0007358Y0078705D01*
X0007505Y0078975D01*
X0007657Y0079242D01*
X0007817Y0079505D01*
X0007982Y0079764D01*
X0008154Y0080019D01*
X0008332Y0080270D01*
X0008516Y0080516D01*
X0008706Y0080758D01*
X0008902Y0080995D01*
X0009104Y0081227D01*
X0009311Y0081454D01*
X0009524Y0081676D01*
X0009742Y0081892D01*
X0009966Y0082104D01*
X0010194Y0082309D01*
X0010427Y0082509D01*
X0010666Y0082704D01*
X0010909Y0082892D01*
X0010965Y0082817D01*
X0010724Y0082630D01*
X0010487Y0082437D01*
X0010256Y0082238D01*
X0010029Y0082034D01*
X0009807Y0081825D01*
X0009591Y0081610D01*
X0009380Y0081389D01*
X0009174Y0081164D01*
X0008974Y0080934D01*
X0008779Y0080698D01*
X0008591Y0080459D01*
X0008408Y0080214D01*
X0008231Y0079965D01*
X0008061Y0079712D01*
X0007896Y0079455D01*
X0007738Y0079194D01*
X0007587Y0078929D01*
X0007442Y0078661D01*
X0007303Y0078389D01*
X0007171Y0078114D01*
X0007046Y0077835D01*
X0006928Y0077554D01*
X0006817Y0077270D01*
X0006713Y0076983D01*
X0006615Y0076694D01*
X0006525Y0076402D01*
X0006442Y0076109D01*
X0006367Y0075813D01*
X0006298Y0075516D01*
X0006237Y0075217D01*
X0006183Y0074916D01*
X0006137Y0074615D01*
X0006097Y0074312D01*
X0006066Y0074009D01*
X0006041Y0073704D01*
X0006025Y0073400D01*
X0006015Y0073095D01*
X0006013Y0072790D01*
X0006019Y0072485D01*
X0006032Y0072180D01*
X0006052Y0071875D01*
X0006080Y0071571D01*
X0006115Y0071268D01*
X0006158Y0070966D01*
X0006208Y0070665D01*
X0006265Y0070365D01*
X0006330Y0070067D01*
X0006402Y0069771D01*
X0006481Y0069476D01*
X0006568Y0069183D01*
X0006661Y0068893D01*
X0006762Y0068605D01*
X0006870Y0068319D01*
X0006984Y0068036D01*
X0007106Y0067756D01*
X0007234Y0067479D01*
X0007369Y0067206D01*
X0007510Y0066936D01*
X0007659Y0066669D01*
X0007813Y0066406D01*
X0007974Y0066147D01*
X0008142Y0065891D01*
X0008315Y0065640D01*
X0008495Y0065394D01*
X0008681Y0065152D01*
X0008872Y0064914D01*
X0009069Y0064681D01*
X0009272Y0064453D01*
X0009481Y0064230D01*
X0009694Y0064012D01*
X0009913Y0063800D01*
X0010137Y0063593D01*
X0010367Y0063391D01*
X0010601Y0063195D01*
X0010839Y0063005D01*
X0011083Y0062821D01*
X0011330Y0062643D01*
X0011582Y0062471D01*
X0011839Y0062305D01*
X0012099Y0062146D01*
X0012363Y0061992D01*
X0012630Y0061846D01*
X0012901Y0061706D01*
X0013176Y0061572D01*
X0013453Y0061446D01*
X0013734Y0061326D01*
X0014018Y0061213D01*
X0014304Y0061107D01*
X0014592Y0061008D01*
X0014883Y0060916D01*
X0015177Y0060832D01*
X0015472Y0060754D01*
X0015769Y0060684D01*
X0016067Y0060621D01*
X0016367Y0060565D01*
X0016669Y0060517D01*
X0016971Y0060476D01*
X0017274Y0060443D01*
X0017578Y0060417D01*
X0017883Y0060398D01*
X0018188Y0060387D01*
X0018493Y0060383D01*
X0018798Y0060387D01*
X0019103Y0060398D01*
X0019408Y0060417D01*
X0019712Y0060443D01*
X0020015Y0060476D01*
X0020317Y0060517D01*
X0020619Y0060565D01*
X0020919Y0060621D01*
X0021217Y0060684D01*
X0021514Y0060754D01*
X0021809Y0060832D01*
X0022103Y0060916D01*
X0022394Y0061008D01*
X0022682Y0061107D01*
X0022968Y0061213D01*
X0023252Y0061326D01*
X0023533Y0061446D01*
X0023810Y0061572D01*
X0024085Y0061706D01*
X0024356Y0061846D01*
X0024623Y0061992D01*
X0024887Y0062146D01*
X0025147Y0062305D01*
X0025404Y0062471D01*
X0025656Y0062643D01*
X0025903Y0062821D01*
X0026147Y0063005D01*
X0026385Y0063195D01*
X0026619Y0063391D01*
X0026849Y0063593D01*
X0027073Y0063800D01*
X0027292Y0064012D01*
X0027505Y0064230D01*
X0027714Y0064453D01*
X0027917Y0064681D01*
X0028114Y0064914D01*
X0028305Y0065152D01*
X0028491Y0065394D01*
X0028671Y0065640D01*
X0028844Y0065891D01*
X0029012Y0066147D01*
X0029173Y0066406D01*
X0029327Y0066669D01*
X0029476Y0066936D01*
X0029617Y0067206D01*
X0029752Y0067479D01*
X0029880Y0067756D01*
X0030002Y0068036D01*
X0030116Y0068319D01*
X0030224Y0068605D01*
X0030325Y0068893D01*
X0030418Y0069183D01*
X0030505Y0069476D01*
X0030584Y0069771D01*
X0030656Y0070067D01*
X0030721Y0070365D01*
X0030778Y0070665D01*
X0030828Y0070966D01*
X0030871Y0071268D01*
X0030906Y0071571D01*
X0030934Y0071875D01*
X0030954Y0072180D01*
X0030967Y0072485D01*
X0030973Y0072790D01*
X0030971Y0073095D01*
X0030961Y0073400D01*
X0030945Y0073704D01*
X0030920Y0074009D01*
X0030889Y0074312D01*
X0030849Y0074615D01*
X0030803Y0074916D01*
X0030749Y0075217D01*
X0030688Y0075516D01*
X0030619Y0075813D01*
X0030544Y0076109D01*
X0030461Y0076402D01*
X0030371Y0076694D01*
X0030273Y0076983D01*
X0030169Y0077270D01*
X0030058Y0077554D01*
X0029940Y0077835D01*
X0029815Y0078114D01*
X0029683Y0078389D01*
X0029544Y0078661D01*
X0029399Y0078929D01*
X0029248Y0079194D01*
X0029090Y0079455D01*
X0028925Y0079712D01*
X0028755Y0079965D01*
X0028578Y0080214D01*
X0028395Y0080459D01*
X0028207Y0080698D01*
X0028012Y0080934D01*
X0027812Y0081164D01*
X0027606Y0081389D01*
X0027395Y0081610D01*
X0027179Y0081825D01*
X0026957Y0082034D01*
X0026730Y0082238D01*
X0026499Y0082437D01*
X0026262Y0082630D01*
X0026021Y0082817D01*
X0025965Y0082742D01*
X0026204Y0082556D01*
X0026439Y0082365D01*
X0026668Y0082168D01*
X0026893Y0081965D01*
X0027114Y0081757D01*
X0027328Y0081543D01*
X0027538Y0081325D01*
X0027742Y0081101D01*
X0027941Y0080873D01*
X0028134Y0080639D01*
X0028321Y0080401D01*
X0028502Y0080159D01*
X0028678Y0079912D01*
X0028847Y0079661D01*
X0029010Y0079405D01*
X0029167Y0079146D01*
X0029317Y0078883D01*
X0029461Y0078617D01*
X0029599Y0078347D01*
X0029730Y0078074D01*
X0029854Y0077798D01*
X0029971Y0077518D01*
X0030081Y0077236D01*
X0030185Y0076952D01*
X0030281Y0076665D01*
X0030371Y0076375D01*
X0030453Y0076084D01*
X0030528Y0075791D01*
X0030596Y0075495D01*
X0030657Y0075199D01*
X0030710Y0074901D01*
X0030756Y0074601D01*
X0030795Y0074301D01*
X0030827Y0074000D01*
X0030851Y0073698D01*
X0030868Y0073395D01*
X0030877Y0073093D01*
X0030879Y0072790D01*
X0030873Y0072487D01*
X0030860Y0072185D01*
X0030840Y0071882D01*
X0030812Y0071581D01*
X0030777Y0071280D01*
X0030735Y0070980D01*
X0030685Y0070681D01*
X0030628Y0070384D01*
X0030564Y0070088D01*
X0030493Y0069794D01*
X0030414Y0069501D01*
X0030328Y0069211D01*
X0030235Y0068922D01*
X0030136Y0068637D01*
X0030029Y0068353D01*
X0029915Y0068073D01*
X0029795Y0067795D01*
X0029667Y0067520D01*
X0029533Y0067248D01*
X0029393Y0066980D01*
X0029246Y0066715D01*
X0029092Y0066454D01*
X0028932Y0066197D01*
X0028766Y0065944D01*
X0028594Y0065695D01*
X0028416Y0065450D01*
X0028231Y0065209D01*
X0028041Y0064974D01*
X0027846Y0064743D01*
X0027644Y0064516D01*
X0027438Y0064295D01*
X0027225Y0064079D01*
X0027008Y0063868D01*
X0026786Y0063663D01*
X0026558Y0063463D01*
X0026326Y0063268D01*
X0026089Y0063080D01*
X0025847Y0062897D01*
X0025602Y0062720D01*
X0025351Y0062549D01*
X0025097Y0062385D01*
X0024839Y0062226D01*
X0024577Y0062074D01*
X0024312Y0061929D01*
X0024043Y0061790D01*
X0023770Y0061657D01*
X0023495Y0061532D01*
X0023216Y0061413D01*
X0022935Y0061301D01*
X0022651Y0061196D01*
X0022364Y0061097D01*
X0022075Y0061006D01*
X0021784Y0060922D01*
X0021491Y0060845D01*
X0021197Y0060776D01*
X0020900Y0060713D01*
X0020603Y0060658D01*
X0020304Y0060610D01*
X0020004Y0060569D01*
X0019702Y0060536D01*
X0019401Y0060510D01*
X0019098Y0060492D01*
X0018796Y0060481D01*
X0018493Y0060477D01*
X0018190Y0060481D01*
X0017888Y0060492D01*
X0017585Y0060510D01*
X0017284Y0060536D01*
X0016982Y0060569D01*
X0016682Y0060610D01*
X0016383Y0060658D01*
X0016086Y0060713D01*
X0015789Y0060776D01*
X0015495Y0060845D01*
X0015202Y0060922D01*
X0014911Y0061006D01*
X0014622Y0061097D01*
X0014335Y0061196D01*
X0014051Y0061301D01*
X0013770Y0061413D01*
X0013491Y0061532D01*
X0013216Y0061657D01*
X0012943Y0061790D01*
X0012674Y0061929D01*
X0012409Y0062074D01*
X0012147Y0062226D01*
X0011889Y0062385D01*
X0011635Y0062549D01*
X0011384Y0062720D01*
X0011139Y0062897D01*
X0010897Y0063080D01*
X0010660Y0063268D01*
X0010428Y0063463D01*
X0010200Y0063663D01*
X0009978Y0063868D01*
X0009761Y0064079D01*
X0009548Y0064295D01*
X0009342Y0064516D01*
X0009140Y0064743D01*
X0008945Y0064974D01*
X0008755Y0065209D01*
X0008570Y0065450D01*
X0008392Y0065695D01*
X0008220Y0065944D01*
X0008054Y0066197D01*
X0007894Y0066454D01*
X0007740Y0066715D01*
X0007593Y0066980D01*
X0007453Y0067248D01*
X0007319Y0067520D01*
X0007191Y0067795D01*
X0007071Y0068073D01*
X0006957Y0068353D01*
X0006850Y0068637D01*
X0006751Y0068922D01*
X0006658Y0069211D01*
X0006572Y0069501D01*
X0006493Y0069794D01*
X0006422Y0070088D01*
X0006358Y0070384D01*
X0006301Y0070681D01*
X0006251Y0070980D01*
X0006209Y0071280D01*
X0006174Y0071581D01*
X0006146Y0071882D01*
X0006126Y0072185D01*
X0006113Y0072487D01*
X0006107Y0072790D01*
X0006109Y0073093D01*
X0006118Y0073395D01*
X0006135Y0073698D01*
X0006159Y0074000D01*
X0006191Y0074301D01*
X0006230Y0074601D01*
X0006276Y0074901D01*
X0006329Y0075199D01*
X0006390Y0075495D01*
X0006458Y0075791D01*
X0006533Y0076084D01*
X0006615Y0076375D01*
X0006705Y0076665D01*
X0006801Y0076952D01*
X0006905Y0077236D01*
X0007015Y0077518D01*
X0007132Y0077798D01*
X0007256Y0078074D01*
X0007387Y0078347D01*
X0007525Y0078617D01*
X0007669Y0078883D01*
X0007819Y0079146D01*
X0007976Y0079405D01*
X0008139Y0079661D01*
X0008308Y0079912D01*
X0008484Y0080159D01*
X0008665Y0080401D01*
X0008852Y0080639D01*
X0009045Y0080873D01*
X0009244Y0081101D01*
X0009448Y0081325D01*
X0009658Y0081543D01*
X0009872Y0081757D01*
X0010093Y0081965D01*
X0010318Y0082168D01*
X0010547Y0082365D01*
X0010782Y0082556D01*
X0011021Y0082742D01*
X0011078Y0082667D01*
X0010840Y0082482D01*
X0010608Y0082292D01*
X0010379Y0082097D01*
X0010156Y0081896D01*
X0009938Y0081689D01*
X0009724Y0081477D01*
X0009516Y0081260D01*
X0009314Y0081038D01*
X0009117Y0080811D01*
X0008925Y0080580D01*
X0008739Y0080344D01*
X0008559Y0080103D01*
X0008385Y0079858D01*
X0008217Y0079609D01*
X0008055Y0079355D01*
X0007900Y0079098D01*
X0007751Y0078837D01*
X0007608Y0078573D01*
X0007471Y0078305D01*
X0007342Y0078034D01*
X0007219Y0077760D01*
X0007102Y0077483D01*
X0006993Y0077203D01*
X0006890Y0076920D01*
X0006794Y0076636D01*
X0006706Y0076348D01*
X0006624Y0076059D01*
X0006549Y0075768D01*
X0006482Y0075475D01*
X0006421Y0075181D01*
X0006368Y0074885D01*
X0006323Y0074588D01*
X0006284Y0074290D01*
X0006253Y0073991D01*
X0006229Y0073691D01*
X0006212Y0073391D01*
X0006203Y0073091D01*
X0006201Y0072790D01*
X0006207Y0072490D01*
X0006219Y0072189D01*
X0006240Y0071890D01*
X0006267Y0071590D01*
X0006302Y0071292D01*
X0006344Y0070994D01*
X0006393Y0070698D01*
X0006450Y0070403D01*
X0006514Y0070109D01*
X0006584Y0069817D01*
X0006662Y0069527D01*
X0006748Y0069238D01*
X0006840Y0068952D01*
X0006939Y0068668D01*
X0007045Y0068387D01*
X0007158Y0068109D01*
X0007277Y0067833D01*
X0007404Y0067560D01*
X0007537Y0067291D01*
X0007676Y0067025D01*
X0007822Y0066762D01*
X0007974Y0066503D01*
X0008133Y0066247D01*
X0008298Y0065996D01*
X0008469Y0065749D01*
X0008646Y0065506D01*
X0008829Y0065267D01*
X0009017Y0065033D01*
X0009211Y0064804D01*
X0009411Y0064580D01*
X0009616Y0064360D01*
X0009827Y0064146D01*
X0010043Y0063936D01*
X0010263Y0063732D01*
X0010489Y0063534D01*
X0010720Y0063341D01*
X0010955Y0063154D01*
X0011194Y0062972D01*
X0011438Y0062797D01*
X0011687Y0062627D01*
X0011939Y0062464D01*
X0012195Y0062307D01*
X0012455Y0062156D01*
X0012719Y0062012D01*
X0012986Y0061874D01*
X0013256Y0061742D01*
X0013529Y0061618D01*
X0013806Y0061500D01*
X0014085Y0061389D01*
X0014367Y0061284D01*
X0014651Y0061187D01*
X0014938Y0061096D01*
X0015227Y0061013D01*
X0015517Y0060937D01*
X0015810Y0060867D01*
X0016104Y0060805D01*
X0016399Y0060751D01*
X0016696Y0060703D01*
X0016994Y0060663D01*
X0017293Y0060630D01*
X0017592Y0060604D01*
X0017892Y0060586D01*
X0018192Y0060575D01*
X0018493Y0060571D01*
X0018794Y0060575D01*
X0019094Y0060586D01*
X0019394Y0060604D01*
X0019693Y0060630D01*
X0019992Y0060663D01*
X0020290Y0060703D01*
X0020587Y0060751D01*
X0020882Y0060805D01*
X0021176Y0060867D01*
X0021469Y0060937D01*
X0021759Y0061013D01*
X0022048Y0061096D01*
X0022335Y0061187D01*
X0022619Y0061284D01*
X0022901Y0061389D01*
X0023180Y0061500D01*
X0023457Y0061618D01*
X0023730Y0061742D01*
X0024000Y0061874D01*
X0024267Y0062012D01*
X0024531Y0062156D01*
X0024791Y0062307D01*
X0025047Y0062464D01*
X0025299Y0062627D01*
X0025548Y0062797D01*
X0025792Y0062972D01*
X0026031Y0063154D01*
X0026266Y0063341D01*
X0026497Y0063534D01*
X0026723Y0063732D01*
X0026943Y0063936D01*
X0027159Y0064146D01*
X0027370Y0064360D01*
X0027575Y0064580D01*
X0027775Y0064804D01*
X0027969Y0065033D01*
X0028157Y0065267D01*
X0028340Y0065506D01*
X0028517Y0065749D01*
X0028688Y0065996D01*
X0028853Y0066247D01*
X0029012Y0066503D01*
X0029164Y0066762D01*
X0029310Y0067025D01*
X0029449Y0067291D01*
X0029582Y0067560D01*
X0029709Y0067833D01*
X0029828Y0068109D01*
X0029941Y0068387D01*
X0030047Y0068668D01*
X0030146Y0068952D01*
X0030238Y0069238D01*
X0030324Y0069527D01*
X0030402Y0069817D01*
X0030472Y0070109D01*
X0030536Y0070403D01*
X0030593Y0070698D01*
X0030642Y0070994D01*
X0030684Y0071292D01*
X0030719Y0071590D01*
X0030746Y0071890D01*
X0030767Y0072189D01*
X0030779Y0072490D01*
X0030785Y0072790D01*
X0030783Y0073091D01*
X0030774Y0073391D01*
X0030757Y0073691D01*
X0030733Y0073991D01*
X0030702Y0074290D01*
X0030663Y0074588D01*
X0030618Y0074885D01*
X0030565Y0075181D01*
X0030504Y0075475D01*
X0030437Y0075768D01*
X0030362Y0076059D01*
X0030280Y0076348D01*
X0030192Y0076636D01*
X0030096Y0076920D01*
X0029993Y0077203D01*
X0029884Y0077483D01*
X0029767Y0077760D01*
X0029644Y0078034D01*
X0029515Y0078305D01*
X0029378Y0078573D01*
X0029235Y0078837D01*
X0029086Y0079098D01*
X0028931Y0079355D01*
X0028769Y0079609D01*
X0028601Y0079858D01*
X0028427Y0080103D01*
X0028247Y0080344D01*
X0028061Y0080580D01*
X0027869Y0080811D01*
X0027672Y0081038D01*
X0027470Y0081260D01*
X0027262Y0081477D01*
X0027048Y0081689D01*
X0026830Y0081896D01*
X0026607Y0082097D01*
X0026378Y0082292D01*
X0026146Y0082482D01*
X0025908Y0082667D01*
X0025852Y0082591D01*
X0026087Y0082409D01*
X0026318Y0082220D01*
X0026545Y0082026D01*
X0026767Y0081826D01*
X0026983Y0081621D01*
X0027195Y0081411D01*
X0027401Y0081196D01*
X0027602Y0080976D01*
X0027798Y0080750D01*
X0027988Y0080521D01*
X0028172Y0080286D01*
X0028351Y0080047D01*
X0028524Y0079804D01*
X0028690Y0079557D01*
X0028851Y0079305D01*
X0029005Y0079050D01*
X0029153Y0078791D01*
X0029295Y0078529D01*
X0029430Y0078263D01*
X0029559Y0077994D01*
X0029681Y0077722D01*
X0029797Y0077447D01*
X0029906Y0077169D01*
X0030007Y0076889D01*
X0030102Y0076606D01*
X0030190Y0076321D01*
X0030271Y0076034D01*
X0030346Y0075746D01*
X0030412Y0075455D01*
X0030472Y0075163D01*
X0030525Y0074869D01*
X0030570Y0074574D01*
X0030609Y0074279D01*
X0030640Y0073982D01*
X0030663Y0073685D01*
X0030680Y0073387D01*
X0030689Y0073089D01*
X0030691Y0072791D01*
X0030685Y0072492D01*
X0030673Y0072194D01*
X0030653Y0071897D01*
X0030625Y0071600D01*
X0030591Y0071304D01*
X0030549Y0071008D01*
X0030500Y0070714D01*
X0030444Y0070421D01*
X0030381Y0070130D01*
X0030310Y0069840D01*
X0030233Y0069552D01*
X0030149Y0069266D01*
X0030057Y0068982D01*
X0029959Y0068700D01*
X0029854Y0068421D01*
X0029742Y0068145D01*
X0029623Y0067871D01*
X0029498Y0067601D01*
X0029366Y0067333D01*
X0029227Y0067069D01*
X0029082Y0066808D01*
X0028931Y0066551D01*
X0028774Y0066298D01*
X0028610Y0066049D01*
X0028440Y0065803D01*
X0028265Y0065562D01*
X0028083Y0065325D01*
X0027896Y0065093D01*
X0027704Y0064866D01*
X0027505Y0064643D01*
X0027302Y0064425D01*
X0027093Y0064212D01*
X0026879Y0064004D01*
X0026659Y0063802D01*
X0026436Y0063605D01*
X0026207Y0063414D01*
X0025973Y0063228D01*
X0025736Y0063048D01*
X0025494Y0062874D01*
X0025247Y0062706D01*
X0024997Y0062544D01*
X0024743Y0062388D01*
X0024485Y0062238D01*
X0024223Y0062095D01*
X0023958Y0061958D01*
X0023690Y0061827D01*
X0023419Y0061704D01*
X0023144Y0061587D01*
X0022867Y0061476D01*
X0022587Y0061373D01*
X0022305Y0061276D01*
X0022021Y0061186D01*
X0021734Y0061104D01*
X0021446Y0061028D01*
X0021156Y0060959D01*
X0020864Y0060898D01*
X0020571Y0060843D01*
X0020276Y0060796D01*
X0019981Y0060756D01*
X0019684Y0060723D01*
X0019387Y0060698D01*
X0019089Y0060680D01*
X0018791Y0060669D01*
X0018493Y0060665D01*
X0018195Y0060669D01*
X0017897Y0060680D01*
X0017599Y0060698D01*
X0017302Y0060723D01*
X0017005Y0060756D01*
X0016710Y0060796D01*
X0016415Y0060843D01*
X0016122Y0060898D01*
X0015830Y0060959D01*
X0015540Y0061028D01*
X0015252Y0061104D01*
X0014965Y0061186D01*
X0014681Y0061276D01*
X0014399Y0061373D01*
X0014119Y0061476D01*
X0013842Y0061587D01*
X0013567Y0061704D01*
X0013296Y0061827D01*
X0013028Y0061958D01*
X0012763Y0062095D01*
X0012501Y0062238D01*
X0012243Y0062388D01*
X0011989Y0062544D01*
X0011739Y0062706D01*
X0011492Y0062874D01*
X0011250Y0063048D01*
X0011013Y0063228D01*
X0010779Y0063414D01*
X0010550Y0063605D01*
X0010327Y0063802D01*
X0010107Y0064004D01*
X0009893Y0064212D01*
X0009684Y0064425D01*
X0009481Y0064643D01*
X0009282Y0064866D01*
X0009090Y0065093D01*
X0008903Y0065325D01*
X0008721Y0065562D01*
X0008546Y0065803D01*
X0008376Y0066049D01*
X0008212Y0066298D01*
X0008055Y0066551D01*
X0007904Y0066808D01*
X0007759Y0067069D01*
X0007620Y0067333D01*
X0007488Y0067601D01*
X0007363Y0067871D01*
X0007244Y0068145D01*
X0007132Y0068421D01*
X0007027Y0068700D01*
X0006929Y0068982D01*
X0006837Y0069266D01*
X0006753Y0069552D01*
X0006676Y0069840D01*
X0006605Y0070130D01*
X0006542Y0070421D01*
X0006486Y0070714D01*
X0006437Y0071008D01*
X0006395Y0071304D01*
X0006361Y0071600D01*
X0006333Y0071897D01*
X0006313Y0072194D01*
X0006301Y0072492D01*
X0006295Y0072791D01*
X0006297Y0073089D01*
X0006306Y0073387D01*
X0006323Y0073685D01*
X0006346Y0073982D01*
X0006377Y0074279D01*
X0006416Y0074574D01*
X0006461Y0074869D01*
X0006514Y0075163D01*
X0006574Y0075455D01*
X0006640Y0075746D01*
X0006715Y0076034D01*
X0006796Y0076321D01*
X0006884Y0076606D01*
X0006979Y0076889D01*
X0007080Y0077169D01*
X0007189Y0077447D01*
X0007305Y0077722D01*
X0007427Y0077994D01*
X0007556Y0078263D01*
X0007691Y0078529D01*
X0007833Y0078791D01*
X0007981Y0079050D01*
X0008135Y0079305D01*
X0008296Y0079557D01*
X0008462Y0079804D01*
X0008635Y0080047D01*
X0008814Y0080286D01*
X0008998Y0080521D01*
X0009188Y0080750D01*
X0009384Y0080976D01*
X0009585Y0081196D01*
X0009791Y0081411D01*
X0010003Y0081621D01*
X0010219Y0081826D01*
X0010441Y0082026D01*
X0010668Y0082220D01*
X0010899Y0082409D01*
X0011134Y0082591D01*
X0011191Y0082516D01*
X0010957Y0082335D01*
X0010728Y0082148D01*
X0010503Y0081955D01*
X0010283Y0081757D01*
X0010068Y0081554D01*
X0009858Y0081345D01*
X0009653Y0081131D01*
X0009454Y0080913D01*
X0009260Y0080689D01*
X0009071Y0080461D01*
X0008888Y0080229D01*
X0008711Y0079992D01*
X0008540Y0079750D01*
X0008374Y0079505D01*
X0008215Y0079256D01*
X0008062Y0079002D01*
X0007915Y0078746D01*
X0007774Y0078485D01*
X0007640Y0078221D01*
X0007512Y0077954D01*
X0007391Y0077684D01*
X0007276Y0077412D01*
X0007168Y0077136D01*
X0007067Y0076858D01*
X0006973Y0076577D01*
X0006886Y0076295D01*
X0006805Y0076010D01*
X0006732Y0075723D01*
X0006665Y0075435D01*
X0006606Y0075145D01*
X0006554Y0074853D01*
X0006509Y0074561D01*
X0006471Y0074267D01*
X0006440Y0073973D01*
X0006416Y0073678D01*
X0006400Y0073383D01*
X0006391Y0073087D01*
X0006389Y0072791D01*
X0006395Y0072495D01*
X0006407Y0072199D01*
X0006427Y0071904D01*
X0006454Y0071609D01*
X0006488Y0071315D01*
X0006530Y0071022D01*
X0006578Y0070730D01*
X0006634Y0070440D01*
X0006697Y0070151D01*
X0006767Y0069863D01*
X0006844Y0069577D01*
X0006927Y0069293D01*
X0007018Y0069012D01*
X0007116Y0068732D01*
X0007220Y0068455D01*
X0007331Y0068181D01*
X0007449Y0067910D01*
X0007573Y0067641D01*
X0007704Y0067376D01*
X0007842Y0067114D01*
X0007985Y0066855D01*
X0008135Y0066600D01*
X0008292Y0066348D01*
X0008454Y0066101D01*
X0008622Y0065858D01*
X0008797Y0065618D01*
X0008977Y0065383D01*
X0009162Y0065153D01*
X0009354Y0064927D01*
X0009550Y0064706D01*
X0009752Y0064490D01*
X0009960Y0064279D01*
X0010172Y0064073D01*
X0010390Y0063872D01*
X0010612Y0063676D01*
X0010839Y0063486D01*
X0011070Y0063302D01*
X0011306Y0063124D01*
X0011546Y0062951D01*
X0011791Y0062784D01*
X0012039Y0062623D01*
X0012292Y0062468D01*
X0012548Y0062320D01*
X0012807Y0062178D01*
X0013070Y0062042D01*
X0013336Y0061912D01*
X0013605Y0061790D01*
X0013878Y0061673D01*
X0014153Y0061564D01*
X0014430Y0061461D01*
X0014710Y0061365D01*
X0014992Y0061276D01*
X0015277Y0061194D01*
X0015563Y0061119D01*
X0015851Y0061051D01*
X0016140Y0060990D01*
X0016431Y0060936D01*
X0016724Y0060889D01*
X0017017Y0060849D01*
X0017311Y0060817D01*
X0017606Y0060792D01*
X0017901Y0060773D01*
X0018197Y0060763D01*
X0018493Y0060759D01*
X0018789Y0060763D01*
X0019085Y0060773D01*
X0019380Y0060792D01*
X0019675Y0060817D01*
X0019969Y0060849D01*
X0020262Y0060889D01*
X0020555Y0060936D01*
X0020846Y0060990D01*
X0021135Y0061051D01*
X0021423Y0061119D01*
X0021709Y0061194D01*
X0021994Y0061276D01*
X0022276Y0061365D01*
X0022556Y0061461D01*
X0022833Y0061564D01*
X0023108Y0061673D01*
X0023381Y0061790D01*
X0023650Y0061912D01*
X0023916Y0062042D01*
X0024179Y0062178D01*
X0024438Y0062320D01*
X0024694Y0062468D01*
X0024947Y0062623D01*
X0025195Y0062784D01*
X0025440Y0062951D01*
X0025680Y0063124D01*
X0025916Y0063302D01*
X0026147Y0063486D01*
X0026374Y0063676D01*
X0026596Y0063872D01*
X0026814Y0064073D01*
X0027026Y0064279D01*
X0027234Y0064490D01*
X0027436Y0064706D01*
X0027632Y0064927D01*
X0027824Y0065153D01*
X0028009Y0065383D01*
X0028189Y0065618D01*
X0028364Y0065858D01*
X0028532Y0066101D01*
X0028694Y0066348D01*
X0028851Y0066600D01*
X0029001Y0066855D01*
X0029144Y0067114D01*
X0029282Y0067376D01*
X0029413Y0067641D01*
X0029537Y0067910D01*
X0029655Y0068181D01*
X0029766Y0068455D01*
X0029870Y0068732D01*
X0029968Y0069012D01*
X0030059Y0069293D01*
X0030142Y0069577D01*
X0030219Y0069863D01*
X0030289Y0070151D01*
X0030352Y0070440D01*
X0030408Y0070730D01*
X0030456Y0071022D01*
X0030498Y0071315D01*
X0030532Y0071609D01*
X0030559Y0071904D01*
X0030579Y0072199D01*
X0030591Y0072495D01*
X0030597Y0072791D01*
X0030595Y0073087D01*
X0030586Y0073383D01*
X0030570Y0073678D01*
X0030546Y0073973D01*
X0030515Y0074267D01*
X0030477Y0074561D01*
X0030432Y0074853D01*
X0030380Y0075145D01*
X0030321Y0075435D01*
X0030254Y0075723D01*
X0030181Y0076010D01*
X0030100Y0076295D01*
X0030013Y0076577D01*
X0029919Y0076858D01*
X0029818Y0077136D01*
X0029710Y0077412D01*
X0029595Y0077684D01*
X0029474Y0077954D01*
X0029346Y0078221D01*
X0029212Y0078485D01*
X0029071Y0078746D01*
X0028924Y0079002D01*
X0028771Y0079256D01*
X0028612Y0079505D01*
X0028446Y0079750D01*
X0028275Y0079992D01*
X0028098Y0080229D01*
X0027915Y0080461D01*
X0027726Y0080689D01*
X0027532Y0080913D01*
X0027333Y0081131D01*
X0027128Y0081345D01*
X0026918Y0081554D01*
X0026703Y0081757D01*
X0026483Y0081955D01*
X0026258Y0082148D01*
X0026029Y0082335D01*
X0025795Y0082516D01*
D13*
X0055459Y0069398D03*
X0076959Y0069398D03*
X0096089Y0069398D03*
X0117589Y0069398D03*
D14*
X0132617Y0070963D02*
X0134869Y0070963D01*
X0134118Y0072465D01*
X0134118Y0073215D01*
X0134869Y0073966D01*
X0136370Y0073966D01*
X0137121Y0073215D01*
X0137121Y0071714D01*
X0136370Y0070963D01*
X0132617Y0070963D02*
X0132617Y0073966D01*
X0137121Y0018466D02*
X0137121Y0015463D01*
X0137121Y0016965D02*
X0132617Y0016965D01*
X0134118Y0015463D01*
X0206486Y0025920D02*
X0206486Y0049820D01*
X0253886Y0049820D01*
X0253886Y0025920D01*
X0206486Y0025920D01*
X0219886Y0026020D02*
X0219886Y0028120D01*
X0220486Y0028120D01*
X0220486Y0026320D01*
X0229886Y0026020D02*
X0229886Y0028120D01*
X0230486Y0028120D01*
X0230486Y0026320D01*
X0239886Y0026020D02*
X0239886Y0028120D01*
X0240486Y0028120D01*
X0240486Y0026320D01*
X0195303Y0184589D02*
X0192300Y0184589D01*
X0193802Y0184589D02*
X0193802Y0189093D01*
X0192300Y0187592D01*
X0139803Y0186841D02*
X0139803Y0185340D01*
X0139052Y0184589D01*
X0137551Y0184589D01*
X0136800Y0185340D01*
X0136800Y0186841D02*
X0138302Y0187592D01*
X0139052Y0187592D01*
X0139803Y0186841D01*
X0139803Y0189093D02*
X0136800Y0189093D01*
X0136800Y0186841D01*
X0040701Y0074753D02*
X0039200Y0074753D01*
X0038449Y0074003D01*
X0038449Y0073252D01*
X0039200Y0071751D01*
X0036948Y0071751D01*
X0036948Y0074753D01*
X0040701Y0074753D02*
X0041452Y0074003D01*
X0041452Y0072501D01*
X0040701Y0071751D01*
X0041452Y0019253D02*
X0041452Y0016251D01*
X0041452Y0017752D02*
X0036948Y0017752D01*
X0038449Y0016251D01*
D15*
X0178303Y0084202D02*
X0178305Y0084308D01*
X0178311Y0084413D01*
X0178321Y0084519D01*
X0178335Y0084623D01*
X0178352Y0084728D01*
X0178374Y0084831D01*
X0178399Y0084934D01*
X0178429Y0085036D01*
X0178462Y0085136D01*
X0178498Y0085235D01*
X0178539Y0085333D01*
X0178583Y0085429D01*
X0178631Y0085523D01*
X0178682Y0085616D01*
X0178736Y0085707D01*
X0178794Y0085795D01*
X0178856Y0085881D01*
X0178920Y0085965D01*
X0178987Y0086047D01*
X0179058Y0086126D01*
X0179131Y0086202D01*
X0179207Y0086275D01*
X0179286Y0086346D01*
X0179368Y0086413D01*
X0179452Y0086477D01*
X0179538Y0086539D01*
X0179626Y0086597D01*
X0179717Y0086651D01*
X0179810Y0086702D01*
X0179904Y0086750D01*
X0180000Y0086794D01*
X0180098Y0086835D01*
X0180197Y0086871D01*
X0180297Y0086904D01*
X0180399Y0086934D01*
X0180502Y0086959D01*
X0180605Y0086981D01*
X0180710Y0086998D01*
X0180814Y0087012D01*
X0180920Y0087022D01*
X0181025Y0087028D01*
X0181131Y0087030D01*
X0181237Y0087028D01*
X0181342Y0087022D01*
X0181448Y0087012D01*
X0181552Y0086998D01*
X0181657Y0086981D01*
X0181760Y0086959D01*
X0181863Y0086934D01*
X0181965Y0086904D01*
X0182065Y0086871D01*
X0182164Y0086835D01*
X0182262Y0086794D01*
X0182358Y0086750D01*
X0182452Y0086702D01*
X0182545Y0086651D01*
X0182636Y0086597D01*
X0182724Y0086539D01*
X0182810Y0086477D01*
X0182894Y0086413D01*
X0182976Y0086346D01*
X0183055Y0086275D01*
X0183131Y0086202D01*
X0183204Y0086126D01*
X0183275Y0086047D01*
X0183342Y0085965D01*
X0183406Y0085881D01*
X0183468Y0085795D01*
X0183526Y0085707D01*
X0183580Y0085616D01*
X0183631Y0085523D01*
X0183679Y0085429D01*
X0183723Y0085333D01*
X0183764Y0085235D01*
X0183800Y0085136D01*
X0183833Y0085036D01*
X0183863Y0084934D01*
X0183888Y0084831D01*
X0183910Y0084728D01*
X0183927Y0084623D01*
X0183941Y0084519D01*
X0183951Y0084413D01*
X0183957Y0084308D01*
X0183959Y0084202D01*
X0183957Y0084096D01*
X0183951Y0083991D01*
X0183941Y0083885D01*
X0183927Y0083781D01*
X0183910Y0083676D01*
X0183888Y0083573D01*
X0183863Y0083470D01*
X0183833Y0083368D01*
X0183800Y0083268D01*
X0183764Y0083169D01*
X0183723Y0083071D01*
X0183679Y0082975D01*
X0183631Y0082881D01*
X0183580Y0082788D01*
X0183526Y0082697D01*
X0183468Y0082609D01*
X0183406Y0082523D01*
X0183342Y0082439D01*
X0183275Y0082357D01*
X0183204Y0082278D01*
X0183131Y0082202D01*
X0183055Y0082129D01*
X0182976Y0082058D01*
X0182894Y0081991D01*
X0182810Y0081927D01*
X0182724Y0081865D01*
X0182636Y0081807D01*
X0182545Y0081753D01*
X0182452Y0081702D01*
X0182358Y0081654D01*
X0182262Y0081610D01*
X0182164Y0081569D01*
X0182065Y0081533D01*
X0181965Y0081500D01*
X0181863Y0081470D01*
X0181760Y0081445D01*
X0181657Y0081423D01*
X0181552Y0081406D01*
X0181448Y0081392D01*
X0181342Y0081382D01*
X0181237Y0081376D01*
X0181131Y0081374D01*
X0181025Y0081376D01*
X0180920Y0081382D01*
X0180814Y0081392D01*
X0180710Y0081406D01*
X0180605Y0081423D01*
X0180502Y0081445D01*
X0180399Y0081470D01*
X0180297Y0081500D01*
X0180197Y0081533D01*
X0180098Y0081569D01*
X0180000Y0081610D01*
X0179904Y0081654D01*
X0179810Y0081702D01*
X0179717Y0081753D01*
X0179626Y0081807D01*
X0179538Y0081865D01*
X0179452Y0081927D01*
X0179368Y0081991D01*
X0179286Y0082058D01*
X0179207Y0082129D01*
X0179131Y0082202D01*
X0179058Y0082278D01*
X0178987Y0082357D01*
X0178920Y0082439D01*
X0178856Y0082523D01*
X0178794Y0082609D01*
X0178736Y0082697D01*
X0178682Y0082788D01*
X0178631Y0082881D01*
X0178583Y0082975D01*
X0178539Y0083071D01*
X0178498Y0083169D01*
X0178462Y0083268D01*
X0178429Y0083368D01*
X0178399Y0083470D01*
X0178374Y0083573D01*
X0178352Y0083676D01*
X0178335Y0083781D01*
X0178321Y0083885D01*
X0178311Y0083991D01*
X0178305Y0084096D01*
X0178303Y0084202D01*
D16*
X0118493Y0054440D03*
X0106091Y0054479D03*
X0092745Y0054479D03*
X0079713Y0054597D03*
X0067706Y0054912D03*
X0055107Y0055109D03*
X0055107Y0033609D03*
X0067706Y0033412D03*
X0079713Y0033097D03*
X0092745Y0032979D03*
X0106091Y0032979D03*
X0118493Y0032940D03*
D17*
G36*
X0164230Y0016345D02*
X0163117Y0017458D01*
X0164646Y0018987D01*
X0165759Y0017874D01*
X0164230Y0016345D01*
G37*
G36*
X0179538Y0017458D02*
X0178425Y0016345D01*
X0176896Y0017874D01*
X0178009Y0018987D01*
X0179538Y0017458D01*
G37*
D18*
X0158966Y0042737D02*
X0158966Y0048737D01*
X0156466Y0048737D02*
X0156466Y0042737D01*
X0156663Y0065454D02*
X0156663Y0071454D01*
X0159163Y0071454D02*
X0159163Y0065454D01*
X0159260Y0081162D02*
X0159260Y0087162D01*
X0156760Y0087162D02*
X0156760Y0081162D01*
M02*
